<?xml version="1.0" standalone="no"?>
<!DOCTYPE svg PUBLIC "-//W3C//DTD SVG 20010904//EN"
 "http://www.w3.org/TR/2001/REC-SVG-20010904/DTD/svg10.dtd">
<svg version="1.0" xmlns="http://www.w3.org/2000/svg"
 width="700.000000pt" height="700.000000pt" viewBox="0 0 700.000000 700.000000"
 preserveAspectRatio="xMidYMid meet">
<metadata>
Created by potrace 1.11, written by Peter Selinger 2001-2013
</metadata>
<g transform="translate(0.000000,700.000000) scale(0.100000,-0.100000)"
fill="#000000" stroke="none">
<path d="M2463 6082 c-29 -2 -53 -7 -53 -13 0 -5 -35 -9 -79 -9 -69 0 -81 -3
-105 -25 -40 -37 -56 -43 -115 -41 -35 1 -55 -3 -58 -11 -3 -8 -22 -13 -49
-13 -39 0 -92 -15 -104 -31 -3 -3 -21 -14 -40 -24 -19 -10 -38 -24 -43 -31
-10 -17 -65 -44 -90 -44 -11 0 -34 -12 -52 -27 -61 -52 -79 -66 -101 -77 -41
-22 -277 -252 -282 -277 -2 -8 -11 -23 -21 -34 -29 -33 -136 -199 -133 -207 1
-4 -10 -29 -24 -54 -58 -103 -84 -183 -84 -256 0 -62 -11 -103 -33 -119 -4 -3
-9 -15 -12 -27 -2 -12 -7 -28 -12 -35 -4 -6 -8 -44 -10 -83 -1 -43 -10 -91
-23 -125 -17 -44 -21 -76 -21 -176 0 -68 -4 -123 -8 -123 -12 0 -19 -46 -10
-62 5 -7 9 -8 9 -3 0 6 5 3 10 -6 7 -12 30 -15 130 -14 67 1 124 -3 127 -8 3
-4 15 -12 28 -17 17 -6 22 -15 18 -28 -7 -28 7 -33 97 -35 64 -1 83 3 100 18
11 10 20 24 20 32 0 8 12 13 35 13 24 0 35 5 35 15 0 9 6 12 15 9 18 -7 26 11
28 63 1 21 5 41 10 44 5 3 10 22 11 42 3 29 -2 40 -20 52 -13 9 -24 22 -24 29
0 8 -4 16 -10 18 -5 2 -10 114 -11 280 l-1 277 36 38 c20 21 34 44 31 52 -3 8
2 22 11 32 9 10 14 24 11 31 -7 20 25 68 45 68 17 0 24 21 19 58 -3 20 29 52
51 52 14 0 18 8 18 34 0 19 5 38 10 41 6 3 10 17 10 29 0 25 37 79 49 72 3 -3
17 11 30 30 17 24 31 34 50 34 31 1 58 15 103 55 31 29 62 47 101 59 29 9 19
24 -14 20 -30 -4 -31 -3 -17 19 9 12 28 28 44 36 16 8 37 18 46 23 24 11 198
10 198 -1 0 -5 12 -23 26 -40 14 -17 23 -31 20 -31 -4 0 0 -10 9 -23 8 -13 13
-39 11 -61 -1 -22 3 -44 11 -51 18 -19 19 -630 1 -649 -18 -17 -16 -258 2
-292 11 -20 11 -28 0 -49 -10 -18 -14 -78 -15 -218 -1 -105 -6 -203 -12 -217
-5 -14 -9 -43 -8 -65 0 -22 -4 -43 -9 -47 -6 -4 -11 -35 -13 -69 -1 -35 -7
-67 -13 -73 -5 -5 -10 -18 -10 -28 0 -11 -11 -31 -24 -45 -13 -14 -22 -32 -19
-40 3 -8 0 -18 -6 -23 -7 -4 -14 -25 -14 -46 -2 -29 -10 -48 -34 -74 l-33 -34
0 -142 c0 -103 -4 -149 -14 -169 -8 -16 -12 -41 -9 -60 4 -24 -1 -42 -20 -71
-17 -26 -25 -50 -23 -72 2 -25 -4 -38 -21 -52 -13 -10 -23 -22 -23 -28 0 -5
-6 -22 -14 -37 -8 -15 -12 -34 -9 -41 3 -8 -1 -24 -9 -37 -8 -12 -14 -30 -13
-39 2 -9 -8 -27 -21 -39 -13 -12 -24 -34 -24 -47 0 -39 -27 -61 -91 -74 l-59
-12 0 -51 c0 -28 -5 -56 -11 -62 -6 -6 -11 -39 -12 -74 -1 -51 -6 -67 -24 -85
-13 -13 -23 -31 -23 -42 0 -17 -56 -81 -72 -82 -5 0 -15 0 -24 0 -8 0 -13 -4
-10 -9 3 -4 -6 -19 -19 -31 -14 -13 -25 -33 -25 -45 0 -11 -15 -37 -34 -57
-27 -29 -34 -43 -31 -67 2 -18 -2 -34 -11 -41 -8 -7 -14 -20 -14 -30 0 -28
-44 -104 -89 -153 -13 -15 -21 -27 -16 -27 5 0 -1 -9 -13 -20 -12 -11 -30 -20
-41 -20 -13 0 -34 -20 -60 -59 -42 -62 -125 -141 -147 -141 -8 0 -14 -4 -14
-9 0 -6 -17 -25 -37 -44 l-37 -35 72 2 c59 2 69 0 60 -11 -8 -11 -38 -14 -117
-12 -105 1 -136 9 -157 37 -6 8 -16 12 -21 9 -6 -4 -16 0 -23 8 -7 8 -25 15
-40 15 -27 0 -60 26 -60 48 0 6 -10 20 -22 32 -21 19 -22 26 -22 259 0 166 3
243 11 253 7 7 12 31 11 53 0 22 5 53 11 68 14 36 15 140 1 132 -6 -3 -10 -15
-10 -26 0 -10 -4 -19 -9 -19 -5 0 -11 -8 -14 -17 -3 -10 -14 -34 -25 -53 -11
-19 -26 -48 -33 -65 -8 -16 -22 -41 -31 -55 -10 -14 -20 -40 -23 -59 -3 -18
-13 -50 -22 -70 -9 -20 -18 -58 -20 -86 -6 -71 -65 -217 -81 -200 -10 9 -9
329 1 360 5 17 11 46 13 65 3 19 9 37 14 38 6 2 10 12 10 22 0 10 5 22 10 25
6 3 10 22 10 41 0 24 8 43 25 60 14 14 23 29 20 33 -7 12 25 102 44 126 32 40
44 70 43 107 -1 21 3 38 8 38 5 0 27 35 47 78 20 42 44 84 53 92 9 8 20 22 24
30 17 37 36 65 43 66 18 2 43 17 43 26 0 5 -4 6 -10 3 -17 -11 -11 16 12 48
29 42 44 57 57 57 5 0 8 9 6 20 -2 11 3 26 11 34 8 8 14 23 14 34 0 15 7 19
33 20 53 0 57 1 57 17 0 8 8 19 18 24 10 5 18 22 20 38 1 15 10 35 21 44 10 8
20 24 22 34 2 10 13 23 24 29 31 18 45 33 45 51 0 9 9 25 20 37 11 12 20 30
20 40 0 9 11 25 25 34 26 17 33 49 13 57 -9 3 -6 12 10 29 12 13 22 28 22 33
0 5 10 19 22 32 12 13 16 23 10 23 -7 0 -12 -4 -12 -10 0 -5 -6 -10 -12 -10
-12 0 -78 -91 -78 -108 0 -10 -70 -82 -80 -82 -4 0 -13 -13 -19 -28 -7 -16
-34 -51 -62 -78 -27 -26 -49 -53 -49 -59 0 -6 -31 -42 -70 -79 -38 -38 -70
-74 -70 -81 0 -6 -10 -20 -23 -31 -12 -11 -33 -34 -45 -51 l-24 -32 -40 29
c-22 17 -44 28 -48 25 -4 -2 -13 -18 -20 -35 -7 -16 -16 -30 -21 -30 -5 0 -16
-15 -25 -32 -9 -18 -21 -36 -26 -39 -6 -4 -11 -25 -12 -48 0 -25 -7 -46 -16
-51 -8 -5 -11 -10 -6 -10 5 0 2 -8 -6 -17 -9 -10 -14 -26 -13 -35 2 -9 -3 -22
-11 -29 -8 -6 -14 -24 -14 -39 0 -17 -10 -37 -25 -51 -28 -26 -125 -213 -125
-240 0 -10 -4 -19 -10 -21 -14 -5 -14 -40 0 -160 l13 -106 -25 -31 c-20 -23
-26 -39 -23 -68 1 -21 -2 -44 -8 -51 -6 -8 -12 -29 -12 -47 -2 -39 -25 -126
-36 -140 -13 -13 -11 -292 1 -300 18 -11 11 -71 -10 -90 -20 -18 -28 -41 -11
-30 5 3 16 -2 25 -10 8 -8 19 -15 23 -14 26 4 42 -4 47 -26 4 -14 11 -25 16
-25 6 0 10 -7 10 -15 0 -8 4 -15 9 -15 5 0 12 -11 15 -25 4 -14 13 -25 21 -25
9 0 23 -4 33 -9 62 -31 80 -36 107 -35 17 1 35 -2 41 -7 6 -5 29 -11 51 -13
23 -2 47 -8 55 -12 13 -9 171 -15 300 -12 53 1 68 -8 68 -37 0 -24 -3 -25 -55
-25 -55 0 -80 -19 -27 -21 15 -1 45 -2 66 -3 22 0 45 5 52 11 7 7 21 13 31 13
22 0 35 9 49 35 6 11 22 22 35 24 13 1 27 7 30 13 3 5 12 10 20 11 8 2 29 13
46 25 17 12 42 22 56 22 36 0 85 31 92 57 6 26 66 55 105 51 19 -2 25 -9 25
-28 1 -14 -5 -35 -13 -47 -7 -11 -9 -23 -5 -26 11 -7 45 18 36 26 -3 4 1 7 9
7 9 0 18 -6 21 -12 6 -21 37 10 37 37 0 14 7 25 20 28 11 3 23 13 27 24 3 10
15 30 25 45 21 30 24 74 6 81 -7 3 2 3 20 0 21 -4 32 -2 32 6 0 7 7 19 15 27
8 8 12 21 9 29 -4 9 3 16 20 21 16 4 26 13 26 24 0 11 10 20 30 24 17 3 30 11
30 17 0 6 11 24 25 41 14 16 25 35 25 41 0 7 20 32 45 56 24 23 44 46 43 49
-1 4 2 32 7 62 4 30 9 59 9 63 1 4 8 12 16 18 13 8 13 11 -2 20 -27 16 -22 30
7 19 21 -8 25 -7 25 10 0 12 7 20 18 20 23 1 54 45 56 79 1 18 16 43 44 71 23
24 40 45 37 48 -8 8 29 62 43 62 19 0 40 23 47 53 4 14 13 28 21 31 21 8 17
26 -5 26 -11 0 -23 4 -26 10 -3 6 -2 10 4 10 5 0 12 8 16 18 3 11 17 24 30 30
14 6 25 20 25 30 0 10 9 28 20 40 11 12 20 33 20 48 0 15 10 38 21 50 14 15
22 37 23 63 0 23 6 43 12 45 6 2 11 18 12 36 0 18 9 39 20 49 15 12 21 34 25
76 5 68 14 95 36 112 14 11 14 12 -1 13 -25 0 -22 23 6 49 16 16 24 33 24 54
-1 17 4 33 10 35 7 2 12 12 12 22 0 10 5 22 10 25 6 3 10 21 10 39 0 42 20 83
45 92 19 6 19 7 -2 11 -21 4 -23 10 -22 68 1 54 4 65 20 70 22 7 21 6 24 61 3
55 30 95 61 90 16 -3 24 0 24 9 0 8 10 21 22 29 15 11 23 28 25 58 2 24 8 45
13 46 6 2 10 17 10 32 0 32 12 43 46 45 37 1 64 33 64 76 0 21 -4 41 -10 44
-19 12 -11 38 10 32 19 -5 20 0 20 110 0 110 1 115 20 110 13 -3 20 0 20 9 0
8 -10 14 -22 14 -22 0 -23 3 -20 85 l3 85 -29 0 c-17 0 -32 6 -34 13 -5 13 -3
83 3 107 2 8 -2 14 -8 13 -15 -3 -17 13 -4 22 10 5 8 27 -4 66 -4 11 -2 19 6
19 8 0 9 3 0 13 -6 8 -8 17 -5 20 4 3 8 51 9 107 3 110 8 103 -65 103 -19 0
-37 3 -40 8 -11 17 -4 327 7 340 14 18 7 177 -9 204 -7 13 -4 57 5 73 5 6 5
17 2 23 -4 6 -9 27 -10 47 -2 20 -4 40 -4 45 -1 4 -9 7 -18 7 -12 0 -14 3 -6
11 11 11 5 59 -8 59 -5 0 -9 16 -9 36 0 25 -7 43 -22 55 -15 14 -21 30 -20 54
1 20 -6 44 -16 56 -33 41 -51 58 -158 143 -17 14 -33 23 -36 21 -2 -3 -15 6
-28 20 -16 17 -34 25 -57 25 -19 0 -44 6 -56 13 -12 7 -45 11 -74 9z m129
-126 c31 -14 36 -20 32 -41 -4 -20 9 -38 65 -95 38 -39 74 -70 80 -70 6 0 11
-18 11 -42 0 -40 0 -41 -20 -23 -11 10 -20 24 -20 32 0 7 -7 13 -15 13 -8 0
-15 5 -15 11 0 13 -26 40 -32 34 -3 -3 -15 6 -28 20 -13 14 -30 25 -37 25 -8
0 -12 4 -8 9 3 5 -5 11 -17 13 -15 2 -24 11 -26 26 -2 12 -7 22 -11 22 -12 0
-31 47 -31 76 0 20 3 23 18 15 9 -5 34 -17 54 -25z m225 -556 c-1 -45 -7 -49
-25 -20 -7 12 -8 20 -2 20 5 0 10 9 10 20 0 11 4 20 9 20 6 0 9 -18 8 -40z
m17 -112 c15 -10 15 -118 0 -118 -16 0 -22 27 -13 66 4 19 1 40 -7 55 -7 13
-13 29 -13 34 0 6 5 1 11 -10 6 -11 16 -23 22 -27z m6 -188 c0 -5 -5 -10 -11
-10 -5 0 -7 5 -4 10 3 6 8 10 11 10 2 0 4 -4 4 -10z m216 -407 c-10 -10 -19 5
-10 18 6 11 8 11 12 0 2 -7 1 -15 -2 -18z m-1656 -519 c13 -34 13 -45 -2 -41
-19 3 -46 40 -41 54 8 22 33 14 43 -13z m1336 -1060 c-3 -9 -6 -18 -6 -20 0
-3 -4 -3 -10 1 -11 7 -2 35 12 35 6 0 7 -7 4 -16z m-66 -264 c0 -5 -5 -10 -11
-10 -5 0 -7 5 -4 10 3 6 8 10 11 10 2 0 4 -4 4 -10z m-40 -170 c0 -5 -12 -10
-26 -10 -14 0 -23 4 -19 10 3 6 15 10 26 10 10 0 19 -4 19 -10z m-970 -630 c0
-5 -5 -10 -11 -10 -5 0 -7 5 -4 10 3 6 8 10 11 10 2 0 4 -4 4 -10z m620 -64
c0 -2 -8 -10 -17 -17 -16 -13 -17 -12 -4 4 13 16 21 21 21 13z m-735 -256 c3
-5 1 -10 -4 -10 -6 0 -11 5 -11 10 0 6 2 10 4 10 3 0 8 -4 11 -10z m-145 -60
c0 -5 -4 -10 -10 -10 -5 0 -10 5 -10 10 0 6 5 10 10 10 6 0 10 -4 10 -10z
m-835 -150 c8 -13 -5 -13 -25 0 -13 8 -13 10 2 10 9 0 20 -4 23 -10z m-105
-23 c0 -8 17 -29 37 -47 20 -19 32 -35 25 -38 -19 -6 -50 17 -66 49 -19 37
-20 49 -6 49 6 0 10 -6 10 -13z"/>
<path d="M5202 5769 c-23 -26 -49 -63 -57 -81 -19 -42 -39 -68 -54 -68 -6 0
-11 -4 -11 -10 0 -12 -48 -60 -60 -60 -6 0 -10 -7 -10 -15 0 -8 -15 -32 -34
-52 -25 -29 -33 -46 -31 -70 1 -19 -4 -34 -12 -37 -7 -3 -13 -17 -13 -31 0
-14 -3 -25 -8 -25 -14 0 -119 -105 -126 -127 -4 -11 -17 -24 -30 -27 -15 -4
-28 -18 -34 -36 -13 -35 -59 -79 -84 -80 -10 0 -18 -5 -18 -11 0 -7 10 -9 25
-7 31 6 33 -9 3 -21 -13 -5 -31 -18 -40 -29 -10 -13 -24 -19 -35 -16 -11 3
-25 -2 -32 -10 -8 -9 -20 -16 -28 -16 -8 0 -11 -4 -8 -10 3 -5 18 -10 33 -10
23 -1 25 -2 11 -13 -8 -7 -18 -20 -22 -29 -4 -11 -17 -18 -31 -18 -31 0 -42
-16 -25 -36 10 -13 10 -17 -2 -25 -8 -5 -16 -9 -19 -9 -9 0 -140 -130 -140
-138 0 -4 -14 -23 -32 -42 l-32 -35 32 -3 c32 -3 41 -15 22 -27 -19 -12 -10
-43 21 -69 16 -14 31 -36 31 -48 1 -13 6 -29 12 -36 5 -8 11 -28 12 -45 2 -17
10 -34 18 -39 14 -8 13 -11 -2 -29 -11 -13 -17 -38 -18 -75 -1 -60 9 -76 28
-45 20 32 38 6 38 -54 0 -44 3 -53 20 -58 11 -3 26 1 34 8 12 13 67 20 236 31
47 3 89 9 95 14 13 10 93 32 124 34 14 1 26 7 29 14 2 7 7 10 12 7 5 -3 29 2
55 11 26 8 59 14 74 13 14 -2 40 2 56 8 17 7 39 13 50 15 15 2 21 13 25 43 l5
40 49 3 c31 2 52 -1 57 -9 4 -7 31 -13 61 -14 29 -1 61 -6 71 -10 12 -5 17 -3
17 8 0 9 8 18 18 20 29 9 86 6 97 -3 7 -5 20 -11 31 -13 10 -1 25 -6 31 -10 7
-5 22 -10 34 -12 44 -9 79 -31 88 -55 8 -24 7 -25 -29 -22 -21 2 -47 -1 -59
-7 -12 -7 -21 -8 -21 -3 0 10 -63 46 -99 57 -18 6 -22 4 -15 -6 6 -11 5 -12
-7 -2 -8 6 -45 13 -81 14 -39 1 -69 7 -71 14 -4 9 -36 12 -69 6 -21 -3 -4 -21
20 -21 32 0 93 -20 114 -37 8 -7 54 -22 104 -33 51 -12 109 -33 137 -50 27
-17 52 -30 56 -30 11 0 95 -94 92 -104 -1 -5 5 -6 13 -3 9 4 22 -3 31 -16 8
-12 21 -22 28 -22 6 0 13 -12 15 -27 2 -16 8 -28 13 -28 5 0 9 -8 9 -19 0 -16
61 -107 81 -121 4 -3 10 -17 13 -30 2 -14 12 -41 22 -60 14 -27 18 -62 19
-165 1 -116 -1 -133 -19 -160 -15 -21 -22 -49 -24 -100 -3 -66 -7 -82 -32
-138 -6 -12 -12 -45 -14 -72 -2 -28 -11 -70 -20 -95 -10 -25 -19 -52 -21 -62
-12 -56 -124 -211 -231 -316 -46 -46 -84 -88 -84 -93 0 -11 -53 15 -88 42 -23
18 -25 18 -53 -3 -16 -12 -29 -26 -29 -31 0 -4 -13 -19 -29 -33 -16 -13 -32
-35 -35 -49 -4 -14 -13 -25 -22 -25 -8 0 -17 -7 -21 -16 -3 -8 -39 -37 -79
-65 -40 -27 -88 -64 -106 -82 -18 -18 -50 -41 -71 -51 -39 -18 -60 -47 -38
-54 9 -3 9 -7 0 -18 -6 -8 -15 -14 -20 -14 -4 0 -27 -20 -52 -45 -24 -25 -53
-47 -64 -49 -56 -11 -132 -36 -173 -56 -9 -4 -31 -11 -49 -15 -43 -9 -99 -42
-111 -65 -7 -13 -20 -18 -45 -17 -41 2 -48 -17 -8 -21 15 -2 34 -5 42 -8 26
-9 -10 -32 -54 -35 -22 -2 -69 -15 -105 -30 -36 -15 -96 -35 -135 -44 -38 -10
-81 -26 -95 -36 -14 -10 -39 -20 -57 -22 -17 -3 -36 -8 -41 -11 -16 -10 -76
-20 -117 -20 -47 0 -72 6 -101 21 -12 7 -26 8 -34 3 -10 -6 -18 -2 -28 11 -16
23 -60 25 -68 4 -4 -8 -10 -12 -15 -9 -6 3 -17 0 -25 -7 -19 -15 -89 -19 -123
-7 -13 5 -40 11 -60 14 -20 3 -49 9 -66 14 -16 5 -45 11 -63 12 -19 1 -36 6
-38 10 -3 4 -15 8 -28 8 -30 0 -87 29 -104 51 -7 10 -20 17 -30 16 -32 -2 -72
33 -72 63 0 16 -7 30 -15 34 -12 4 -14 14 -10 40 6 32 -11 106 -25 106 -22 -1
-33 -24 -34 -72 -1 -51 -15 -76 -35 -64 -5 3 -15 -1 -22 -10 -10 -12 -10 -20
-1 -35 18 -28 15 -41 -10 -37 -18 2 -22 10 -23 43 0 24 -5 40 -12 41 -7 1 -17
2 -21 3 -14 2 -12 122 2 150 17 32 4 76 -19 67 -8 -3 -15 -1 -15 5 0 5 7 12
15 15 8 4 12 10 9 15 -3 5 4 9 15 9 12 0 22 9 26 23 9 27 44 67 61 67 6 0 15
7 18 16 5 13 9 14 22 4 11 -10 12 -15 3 -20 -8 -6 -8 -9 0 -15 15 -9 43 14 37
31 -3 7 -2 14 2 16 4 2 15 17 24 33 20 36 54 48 43 16 -5 -17 -2 -21 17 -21
29 1 64 45 49 64 -7 9 -6 23 6 48 19 42 70 69 121 65 36 -3 39 4 22 64 -13 48
1 89 31 89 13 0 40 19 65 44 23 24 48 48 56 53 7 4 18 17 24 28 6 11 26 28 45
37 19 9 40 22 46 28 21 18 55 27 111 29 52 2 62 -5 41 -26 -8 -8 -8 -16 0 -30
10 -17 10 -17 11 1 0 11 3 17 6 13 4 -3 13 0 21 8 9 9 24 13 39 9 20 -5 24 -2
24 16 0 13 8 24 20 27 11 3 20 12 20 19 0 8 11 19 25 24 14 5 25 17 25 25 0 9
5 13 11 10 12 -8 69 14 69 26 0 5 26 9 58 9 53 0 60 3 81 31 12 16 30 29 39
27 23 -3 109 39 116 57 3 8 12 15 21 15 8 0 29 14 47 30 17 17 37 30 44 30 8
0 14 4 14 10 0 5 17 12 38 15 20 4 54 15 75 26 22 10 47 19 57 19 20 0 38 19
21 21 -6 1 -17 2 -23 3 -21 2 -15 30 7 35 11 2 31 8 45 14 14 6 39 12 55 14
49 7 54 23 8 23 -23 0 -48 7 -56 15 -12 12 -17 12 -26 2 -15 -19 -108 -21
-126 -4 -12 12 -11 17 8 33 12 11 35 25 52 32 16 8 35 22 43 33 7 10 24 19 37
19 13 0 25 4 27 9 2 6 15 12 29 15 30 5 69 27 69 38 0 5 9 8 19 8 11 0 23 5
26 10 3 6 19 10 35 10 15 0 50 9 77 21 26 11 61 22 76 24 27 4 87 57 87 76 0
5 10 9 22 9 16 0 19 3 11 11 -8 8 -17 8 -31 0 -11 -6 -42 -11 -68 -11 -26 0
-61 -4 -78 -10 -113 -35 -181 -62 -188 -73 -4 -6 -8 -8 -8 -4 0 5 -10 1 -22
-7 -12 -9 -31 -16 -40 -16 -10 0 -26 -4 -36 -9 -9 -5 -51 -22 -92 -37 -41 -16
-81 -37 -89 -46 -9 -10 -22 -18 -29 -18 -8 0 -25 -9 -39 -20 -14 -11 -36 -20
-49 -20 -13 0 -24 -4 -24 -8 0 -4 -14 -13 -30 -19 -17 -6 -29 -17 -28 -25 2
-10 -13 -13 -58 -14 -40 -1 -69 -7 -88 -19 -16 -11 -47 -21 -70 -25 -27 -3
-41 -10 -41 -20 0 -25 -36 -70 -56 -70 -11 0 -19 -4 -19 -8 0 -13 -71 -50
-105 -55 -16 -3 -55 -19 -87 -36 -65 -36 -70 -37 -61 -15 5 14 2 16 -22 10
-16 -4 -40 -16 -53 -27 -14 -10 -29 -19 -34 -19 -6 0 -24 -10 -41 -22 -18 -13
-48 -31 -67 -42 -19 -10 -53 -33 -75 -51 -22 -18 -51 -36 -63 -40 -13 -4 -61
-45 -107 -91 -46 -46 -89 -84 -95 -84 -15 0 -151 -130 -145 -139 8 -14 -13
-32 -44 -36 -19 -3 -53 -21 -82 -46 -48 -40 -49 -42 -49 -95 0 -39 -4 -54 -14
-54 -19 0 -108 -105 -121 -143 -5 -18 -17 -32 -25 -33 -38 -2 -42 -5 -36 -20
4 -9 -6 -28 -24 -47 -32 -34 -44 -75 -43 -144 2 -71 2 -73 23 -73 16 0 20 -7
20 -35 0 -19 5 -35 10 -35 6 0 10 -8 10 -19 0 -10 9 -21 20 -24 11 -3 20 -12
20 -21 0 -9 7 -16 15 -16 10 0 15 -10 15 -30 0 -16 5 -30 11 -30 6 0 9 -18 8
-45 -2 -25 2 -50 9 -57 7 -7 12 -23 12 -35 0 -26 23 -51 89 -97 28 -21 37 -32
28 -38 -9 -6 -9 -12 0 -25 6 -10 16 -17 21 -16 6 1 16 -4 22 -12 7 -8 19 -15
26 -15 8 0 14 -9 14 -21 0 -11 8 -33 18 -47 10 -15 22 -35 25 -44 4 -10 15
-18 26 -18 11 0 23 -5 26 -10 8 -13 55 -13 55 0 0 19 62 10 90 -13 20 -17 36
-23 59 -19 17 2 31 8 31 13 0 21 41 7 61 -21 13 -16 37 -34 55 -40 18 -6 38
-18 44 -26 7 -7 21 -14 31 -14 11 0 19 -4 19 -10 0 -5 7 -10 15 -10 8 0 15 -4
15 -10 0 -5 9 -10 20 -10 11 0 20 -6 20 -14 0 -10 -11 -13 -41 -11 -36 3 -40
1 -37 -18 2 -15 20 -31 56 -49 l54 -27 24 25 c28 27 44 30 62 12 17 -17 15
-25 -10 -31 -12 -4 -19 -9 -15 -13 12 -13 101 -11 122 2 22 13 227 13 256 0
28 -12 33 14 8 40 -18 20 -20 28 -11 46 7 15 11 18 11 8 1 -9 12 -17 27 -18
15 -1 33 -7 40 -13 14 -12 140 -17 151 -6 10 11 -1 17 -33 19 -16 1 -34 6 -41
11 -15 11 -6 37 13 37 8 0 17 6 20 14 3 8 24 27 46 41 32 21 55 28 98 29 32 1
64 6 71 12 8 6 37 10 64 10 43 -1 50 -4 51 -21 0 -28 -15 -45 -40 -45 -19 -1
-20 -1 -3 -11 13 -8 22 -7 32 1 8 7 26 9 40 6 29 -7 65 22 61 50 -2 13 -13 18
-45 19 -53 2 -66 14 -45 43 13 19 24 22 93 22 51 0 82 4 89 12 11 14 61 16 81
4 6 -4 20 -5 29 -1 9 4 36 7 58 7 35 0 47 6 75 34 19 19 43 34 56 34 12 0 36
14 52 31 l29 30 -18 42 -19 42 26 27 c14 15 29 27 32 26 28 -3 49 5 53 20 3
11 27 29 54 42 27 13 63 33 79 44 17 12 31 22 33 23 4 1 10 30 11 51 1 6 11
12 24 12 20 -1 20 -2 5 -11 -26 -14 -22 -29 7 -29 22 0 25 4 25 34 0 19 5 38
10 41 6 3 10 20 10 36 0 23 6 32 27 40 16 6 35 17 44 24 8 8 26 16 40 18 15 2
29 15 39 35 12 26 21 32 48 32 17 0 32 5 32 10 0 6 7 10 16 10 8 0 28 13 44
28 39 39 76 62 100 62 12 0 24 9 29 22 5 15 17 23 37 24 43 2 44 3 44 20 0 8
-5 12 -11 9 -13 -8 12 37 26 47 6 4 20 8 33 8 12 0 22 4 22 9 0 5 9 11 20 14
27 7 25 25 -10 80 -17 27 -25 49 -19 53 5 3 7 14 4 25 -5 15 -1 19 19 19 14 0
26 5 26 10 0 6 6 10 14 10 7 0 24 21 37 47 15 29 43 59 72 80 26 19 57 43 68
54 26 26 79 125 79 148 0 25 74 171 86 171 7 0 15 7 18 16 11 30 26 2 26 -50
0 -46 3 -54 21 -59 26 -7 20 -32 -8 -33 -37 -2 -80 -63 -110 -157 -19 -60 -40
-103 -66 -134 -38 -47 -40 -55 -9 -59 15 -3 52 27 52 42 0 16 64 84 79 84 21
0 41 19 41 39 0 8 14 27 32 43 25 22 32 37 33 67 1 22 7 46 14 54 7 9 11 21
10 29 -3 23 1 38 9 37 26 -4 41 2 35 17 -4 10 1 17 16 21 22 6 28 27 11 38
-16 10 -12 24 15 49 17 16 24 31 21 47 -2 13 1 30 7 37 15 19 18 104 4 120 -6
7 -11 34 -12 60 -3 62 -2 60 -25 67 -27 8 -25 21 5 47 14 12 25 28 25 36 0 25
-34 72 -52 72 -10 0 -18 5 -18 10 0 6 7 10 15 10 29 0 39 54 12 72 -6 3 -10
34 -10 67 1 34 -3 58 -8 55 -5 -3 -9 -12 -9 -20 0 -9 -7 -23 -16 -31 -12 -13
-18 -14 -24 -4 -9 15 -2 51 10 51 5 0 2 13 -6 30 -9 16 -13 34 -10 38 3 5 -6
19 -19 30 -14 12 -25 32 -25 45 0 13 -9 32 -20 42 -11 10 -20 28 -20 41 0 13
-5 33 -11 46 -13 29 -69 63 -79 48 -8 -12 -40 -3 -40 12 0 5 5 6 10 3 6 -3 10
0 10 7 0 22 -69 83 -90 80 -14 -2 -19 4 -22 25 -2 17 -12 32 -26 39 -12 6 -47
34 -76 63 -30 28 -59 51 -66 51 -6 0 -9 4 -5 9 3 5 -4 13 -15 16 -12 4 -26 18
-32 31 -6 13 -16 24 -23 24 -6 0 -24 14 -41 31 -31 33 -197 149 -213 149 -5 0
-16 8 -23 19 -7 10 -26 25 -43 35 -16 9 -37 20 -45 25 -46 27 -173 69 -228 75
-23 3 -48 8 -55 13 -16 10 -377 11 -377 0 0 -4 -4 -5 -10 -2 -18 11 -10 47 15
67 25 19 25 21 8 35 -10 8 -12 12 -5 8 6 -3 12 -2 12 4 0 5 9 8 19 6 11 -2 25
3 32 11 6 8 17 14 25 14 7 0 15 9 19 19 6 19 91 91 106 91 5 0 15 12 23 28 14
28 124 142 136 142 4 0 12 11 18 25 6 14 15 24 20 23 12 -4 62 57 62 75 0 23
16 30 84 34 106 7 143 3 138 -16 -4 -21 27 -11 47 15 27 35 26 44 -4 44 -41 0
-30 33 30 93 52 52 45 106 -13 101 -26 -2 -82 -50 -82 -71 0 -7 -7 -13 -15
-13 -8 0 -12 6 -9 14 3 8 1 17 -5 21 -14 8 -70 -25 -76 -45 -7 -23 -40 -18
-68 8 -13 12 -33 22 -45 22 -24 0 -27 10 -12 40 6 11 15 29 20 40 6 11 10 40
10 65 0 28 5 46 13 47 6 0 17 2 22 3 6 2 17 3 25 4 10 1 11 4 3 12 -21 21 37
100 68 94 27 -5 24 2 -22 46 -35 33 -74 49 -93 37 -2 -2 -12 4 -22 13 -12 10
-36 15 -64 14 -75 -3 -80 -4 -80 -23 0 -26 -20 -42 -53 -42 -38 0 -55 19 -59
67 l-3 40 -43 -48z m448 -489 c0 -5 -5 -10 -11 -10 -5 0 -7 5 -4 10 3 6 8 10
11 10 2 0 4 -4 4 -10z m-310 -159 c0 -6 -4 -13 -10 -16 -5 -3 -10 1 -10 9 0 9
5 16 10 16 6 0 10 -4 10 -9z m-161 -202 c-5 -10 -18 -19 -28 -19 -9 0 -31 -16
-47 -36 -16 -20 -33 -41 -39 -48 -5 -6 -11 -20 -13 -31 -2 -11 -11 -26 -20
-33 -14 -11 -19 -10 -29 5 -7 9 -13 20 -13 24 0 5 25 34 55 66 30 32 55 61 55
66 0 4 8 7 19 7 10 0 24 6 31 14 17 22 42 9 29 -15z m66 -508 c5 -9 -40 -51
-54 -51 -6 0 -7 48 -2 58 3 6 51 1 56 -7z m-132 -40 c5 -1 5 -6 2 -11 -5 -8
-34 -9 -63 -1 -2 1 -1 5 2 9 3 5 15 8 28 6 13 -1 27 -3 31 -3z m377 -21 c0
-10 5 -22 10 -25 6 -3 10 -13 10 -22 0 -13 -3 -12 -18 4 -10 12 -28 23 -41 25
l-22 3 21 23 c23 25 40 21 40 -8z m480 -337 c0 -20 -28 -15 -50 7 -11 11 -17
20 -13 20 4 0 -5 11 -20 25 -15 14 -27 30 -27 35 0 4 -3 17 -7 27 -3 10 21 -9
55 -42 34 -33 61 -66 62 -72z m50 -122 c14 -27 13 -30 -10 -24 -24 6 -34 19
-25 33 10 16 23 12 35 -9z m-1850 -645 c0 -3 -4 -8 -10 -11 -5 -3 -10 -1 -10
4 0 6 5 11 10 11 6 0 10 -2 10 -4z m2448 -329 c7 -8 7 -18 2 -27 -6 -8 -10
-26 -10 -40 0 -37 -16 -58 -32 -42 -6 6 -20 12 -30 12 -12 0 -15 5 -11 16 3 9
0 20 -7 24 -11 7 -11 11 -1 24 7 9 11 23 7 31 -4 12 3 15 33 15 21 0 43 -6 49
-13z m-3334 -468 c-25 -27 -52 -41 -65 -34 -11 7 48 53 70 54 10 1 9 -5 -5
-20z m-114 -102 c0 -14 -57 -69 -100 -97 -13 -8 -48 -39 -79 -67 -59 -56 -81
-65 -81 -33 0 18 64 90 80 90 4 0 10 9 13 20 3 11 19 26 36 33 22 10 28 16 20
24 -8 8 -3 15 18 26 36 19 93 22 93 4z m-45 -127 c-3 -5 -13 -10 -21 -10 -8 0
-12 5 -9 10 3 6 13 10 21 10 8 0 12 -4 9 -10z m-60 -774 c22 -3 45 -28 45 -49
0 -32 -71 -17 -118 25 l-38 34 20 28 21 27 28 -31 c16 -18 34 -33 42 -34z
m249 -81 c10 -8 22 -12 26 -10 4 2 18 -7 30 -20 28 -30 17 -31 -44 -5 -26 11
-46 26 -46 35 0 19 9 19 34 0z m1786 -4 c0 -5 -7 -11 -14 -14 -10 -4 -13 -1
-9 9 6 15 23 19 23 5z m-1604 -38 c106 -54 152 -73 169 -73 12 0 26 -5 32 -11
6 -6 26 -13 44 -16 36 -5 62 -21 54 -33 -7 -11 -107 -10 -145 3 -19 7 -48 26
-65 44 -18 19 -52 38 -85 48 -30 10 -59 21 -64 25 -5 5 -15 6 -22 3 -8 -3 -14
0 -14 5 0 20 60 23 96 5z m-426 -38 c11 -30 39 -43 50 -25 6 10 14 11 37 2 15
-7 43 -13 61 -14 18 -1 38 -8 43 -15 6 -6 16 -10 23 -7 14 5 39 -20 42 -42 3
-18 -5 -18 -27 2 -23 20 -129 27 -129 7 0 -26 -36 -12 -82 32 -27 25 -48 54
-48 65 0 28 19 25 30 -5z m1615 -4 c-14 -14 -103 -36 -111 -28 -4 3 -4 13 -1
22 5 11 21 15 64 15 36 0 53 -4 48 -9z m-783 -48 c14 -12 15 -19 5 -34 -14
-23 -33 -25 -41 -4 -3 8 -12 12 -21 9 -9 -4 -15 -1 -15 8 0 34 43 46 72 21z
m505 -61 c-20 -20 -64 2 -47 23 9 11 17 11 36 3 21 -10 23 -13 11 -26z m-172
-43 c-20 -31 -114 -48 -123 -21 -3 9 5 11 27 7 23 -4 33 -1 37 10 3 8 9 13 13
11 4 -3 13 -1 21 4 16 10 33 3 25 -11z m-495 -8 c0 -5 -7 -11 -14 -14 -10 -4
-13 -1 -9 9 6 15 23 19 23 5z m260 -125 c0 -15 -62 -14 -67 0 -2 5 13 10 32
11 21 0 35 -4 35 -11z m-155 -86 c3 -5 1 -10 -4 -10 -6 0 -11 5 -11 10 0 6 2
10 4 10 3 0 8 -4 11 -10z"/>
<path d="M5786 5522 c-3 -5 -8 -23 -11 -41 -5 -31 -5 -31 17 -19 13 7 29 11
36 10 18 -4 15 29 -5 44 -21 16 -30 17 -37 6z"/>
<path d="M5632 5088 c-6 -6 -26 -13 -43 -14 -18 -2 -36 -7 -42 -13 -6 -6 -21
-11 -33 -11 -35 0 -36 -15 -3 -27 17 -7 31 -7 35 -2 10 17 41 9 57 -13 l15
-23 31 30 32 29 -23 9 c-21 8 -22 9 -6 21 10 7 15 16 11 19 -9 10 -17 9 -31
-5z"/>
<path d="M5386 4965 c-3 -8 -1 -17 3 -20 5 -3 11 2 15 10 3 8 1 17 -3 20 -5 3
-11 -2 -15 -10z"/>
<path d="M3086 4906 c3 -9 11 -16 16 -16 13 0 5 23 -10 28 -7 2 -10 -2 -6 -12z"/>
<path d="M5310 4890 c0 -5 11 -10 25 -10 14 0 25 5 25 10 0 6 -11 10 -25 10
-14 0 -25 -4 -25 -10z"/>
<path d="M5235 4820 c3 -5 10 -10 16 -10 5 0 9 5 9 10 0 6 -7 10 -16 10 -8 0
-12 -4 -9 -10z"/>
<path d="M5176 4684 c-5 -14 -4 -15 9 -4 17 14 19 20 6 20 -5 0 -12 -7 -15
-16z"/>
<path d="M4290 4250 c0 -5 5 -10 10 -10 6 0 10 5 10 10 0 6 -4 10 -10 10 -5 0
-10 -4 -10 -10z"/>
<path d="M4480 3970 c0 -5 5 -10 10 -10 6 0 10 5 10 10 0 6 -4 10 -10 10 -5 0
-10 -4 -10 -10z"/>
<path d="M1360 3355 c-8 -9 -8 -15 -2 -15 12 0 26 19 19 26 -2 2 -10 -2 -17
-11z"/>
<path d="M4095 3290 c-3 -5 -1 -10 4 -10 6 0 11 5 11 10 0 6 -2 10 -4 10 -3 0
-8 -4 -11 -10z"/>
<path d="M3840 3220 c-12 -7 -10 -9 8 -7 12 0 22 5 22 9 0 11 -12 10 -30 -2z"/>
<path d="M3765 3176 c-16 -6 -39 -19 -49 -28 -18 -16 -18 -18 -3 -18 10 0 20
6 23 14 3 8 12 12 19 10 7 -3 23 4 34 15 23 23 20 24 -24 7z"/>
<path d="M4550 3035 c0 -13 4 -14 20 -5 11 6 20 13 20 15 0 3 -9 5 -20 5 -11
0 -20 -7 -20 -15z"/>
<path d="M4415 2995 c-16 -14 -35 -23 -42 -21 -15 6 -56 -26 -84 -65 -24 -34
-14 -51 24 -43 19 3 68 40 75 57 5 11 32 9 32 -3 0 -19 15 -9 37 26 18 27 21
40 13 55 -13 24 -18 24 -55 -6z"/>
<path d="M1070 2940 c0 -5 5 -10 10 -10 6 0 10 5 10 10 0 6 -4 10 -10 10 -5 0
-10 -4 -10 -10z"/>
<path d="M940 2920 c0 -5 5 -10 10 -10 6 0 10 5 10 10 0 6 -4 10 -10 10 -5 0
-10 -4 -10 -10z"/>
<path d="M4116 2843 c-10 -10 -7 -95 4 -88 5 3 18 18 28 33 20 27 20 27 -3 44
-12 9 -25 14 -29 11z"/>
<path d="M4003 2780 c-2 -19 8 -26 20 -14 7 7 -2 34 -12 34 -4 0 -7 -9 -8 -20z"/>
<path d="M4055 2760 c-3 -5 -1 -10 4 -10 6 0 11 5 11 10 0 6 -2 10 -4 10 -3 0
-8 -4 -11 -10z"/>
<path d="M880 2743 c0 -5 5 -15 10 -23 8 -12 10 -11 10 8 0 12 -4 22 -10 22
-5 0 -10 -3 -10 -7z"/>
<path d="M3815 2720 c-3 -5 -1 -10 4 -10 6 0 11 5 11 10 0 6 -2 10 -4 10 -3 0
-8 -4 -11 -10z"/>
<path d="M3892 2689 c-19 -31 -9 -33 18 -4 16 17 19 25 9 25 -8 0 -20 -9 -27
-21z"/>
<path d="M873 2685 c-9 -24 1 -27 15 -5 8 13 8 20 2 20 -6 0 -13 -7 -17 -15z"/>
<path d="M843 2623 c-7 -15 -11 -29 -8 -32 7 -6 34 31 35 47 0 21 -14 13 -27
-15z"/>
<path d="M3795 2590 c-3 -5 -1 -10 4 -10 6 0 11 5 11 10 0 6 -2 10 -4 10 -3 0
-8 -4 -11 -10z"/>
<path d="M3732 2550 c-18 -15 -22 -25 -17 -42 6 -19 5 -21 -6 -10 -7 6 -19 12
-26 12 -11 0 -83 -65 -83 -75 0 -3 22 -5 50 -5 47 0 50 2 80 45 19 28 30 55
28 69 -3 24 -3 24 -26 6z"/>
<path d="M3800 2550 c-11 -7 -12 -12 -3 -21 13 -13 33 -4 33 17 0 16 -9 18
-30 4z"/>
<path d="M855 2480 c-3 -5 1 -10 9 -10 9 0 16 5 16 10 0 6 -4 10 -9 10 -6 0
-13 -4 -16 -10z"/>
<path d="M3565 2430 c-11 -12 -20 -27 -21 -33 0 -7 -2 -18 -2 -24 -1 -7 -13
-13 -27 -13 -22 0 -82 -28 -112 -52 -16 -13 -17 -58 -1 -58 6 0 31 21 53 46
38 41 44 45 62 33 34 -21 52 -6 47 38 -3 27 0 41 12 50 9 6 14 17 12 23 -2 7
-11 3 -23 -10z"/>
<path d="M833 2430 c-17 -7 -23 -18 -23 -40 0 -33 14 -40 24 -12 3 9 10 27 16
40 5 12 8 22 7 21 -1 0 -12 -4 -24 -9z"/>
<path d="M6544 2370 c-5 -29 -13 -44 -25 -47 -12 -4 -18 -17 -21 -50 -2 -25 0
-47 4 -49 10 -7 38 38 38 62 0 12 6 26 13 32 12 10 15 78 3 89 -3 3 -8 -14
-12 -37z"/>
<path d="M6425 2138 c-27 -28 -59 -67 -71 -87 -14 -25 -29 -37 -47 -39 -15 -2
-27 -9 -27 -17 0 -7 -6 -16 -12 -18 -7 -3 -3 -6 10 -6 12 -1 22 4 22 9 0 6 18
10 41 10 31 0 42 4 46 18 2 10 20 24 39 31 38 14 42 26 18 52 -16 17 -15 19
10 29 21 8 46 43 46 66 0 16 -32 -4 -75 -48z"/>
<path d="M6290 2110 c0 -9 31 -30 44 -30 3 0 6 9 6 20 0 15 -7 20 -25 20 -14
0 -25 -4 -25 -10z"/>
<path d="M6190 1901 l0 -24 25 23 c14 13 25 25 25 27 0 1 -11 2 -25 1 -19 -2
-25 -8 -25 -27z"/>
<path d="M6120 1861 c-8 -6 -17 -8 -20 -6 -4 2 -7 -2 -7 -9 0 -17 49 -6 55 12
4 14 -7 15 -28 3z"/>
<path d="M6017 1820 c-10 -10 -20 -26 -21 -37 -2 -10 -12 -23 -24 -29 -12 -6
-30 -18 -40 -27 -9 -9 -30 -18 -46 -21 -17 -3 -38 -14 -49 -24 -18 -18 -17
-19 35 -19 48 -1 55 2 81 33 16 19 37 34 48 34 12 0 24 11 31 28 7 15 20 39
30 53 17 26 17 26 -5 26 -12 0 -30 -8 -40 -17z"/>
<path d="M5761 1641 c-10 -6 -10 -10 -1 -16 7 -4 19 0 28 9 14 13 14 16 2 16
-8 0 -21 -4 -29 -9z"/>
<path d="M5910 1630 c-13 -8 -12 -10 3 -10 9 0 17 5 17 10 0 12 -1 12 -20 0z"/>
<path d="M5750 1521 c-16 -16 -36 -31 -45 -34 -8 -4 -15 -13 -15 -21 0 -18 17
-30 22 -16 2 6 13 12 26 15 29 5 43 15 37 25 -2 4 5 19 16 34 18 22 18 26 4
26 -9 0 -29 -13 -45 -29z"/>
<path d="M2780 1517 c0 -8 7 -20 15 -27 11 -9 15 -10 15 -1 0 7 -7 19 -15 27
-13 13 -15 13 -15 1z"/>
<path d="M5430 1371 c0 -5 9 -11 20 -14 13 -3 20 0 20 9 0 8 -9 14 -20 14 -11
0 -20 -4 -20 -9z"/>
<path d="M5385 1260 c-3 -6 1 -7 9 -4 18 7 21 14 7 14 -6 0 -13 -4 -16 -10z"/>
<path d="M5163 1233 c-3 -8 -1 -19 5 -25 8 -8 13 -7 17 4 7 18 59 18 92 0 28
-15 33 -15 33 2 0 28 -137 46 -147 19z"/>
<path d="M4420 1060 c0 -5 5 -10 10 -10 6 0 10 5 10 10 0 6 -4 10 -10 10 -5 0
-10 -4 -10 -10z"/>
<path d="M4410 1016 c-10 -13 -7 -14 16 -10 15 3 35 9 43 14 12 7 8 9 -15 10
-17 0 -37 -7 -44 -14z"/>
<path d="M880 1001 c0 -10 24 -21 43 -21 7 0 3 7 -7 15 -22 17 -36 19 -36 6z"/>
</g>
</svg>
