<?xml version="1.0" encoding="utf-8"?>
<!-- Generator: Adobe Illustrator 22.1.0, SVG Export Plug-In . SVG Version: 6.00 Build 0)  -->
<svg version="1.1" id="Layer_1" xmlns="http://www.w3.org/2000/svg" xmlns:xlink="http://www.w3.org/1999/xlink" x="0px" y="0px"
	 viewBox="0 0 32 32" style="enable-background:new 0 0 32 32;" xml:space="preserve">
<g>
	<path d="M14.1,9.9L14.1,9.9C14.1,9.9,14.1,9.9,14.1,9.9c0.1,0.1,0,0.1,0,0.1c0,0,0,0.1,0,0.1c0,0,0,0.1,0,0.1l0,0.1l0,0l0,0.1v0.3
		l0,0.1v0v0c0,0,0,0.1-0.1,0.1h0l0,0c-0.1,0-0.1,0-0.1,0.1v0v0.1c0,0,0,0,0,0v0l0-0.1c0,0,0-0.1,0.1-0.1l0,0c0,0,0.1,0,0.1,0.1
		c0,0,0,0,0,0v0l-0.1,0.1c0,0,0,0,0,0c0,0,0,0,0,0h0c0,0,0.1,0,0.1,0h0l0,0c0,0-0.1,0.1,0,0.1c0,0,0,0.1,0,0.1c0,0,0,0.1,0,0.1
		c-0.1,0-0.1,0.1-0.1,0.1c0,0,0,0,0.1,0l0.1,0h0v0c0,0,0,0,0,0l-0.1,0.1v0c0,0.1,0,0.1,0,0.1V12v0c0,0,0,0,0,0l0,0.1c0,0,0,0,0.1,0
		c0,0,0,0,0.1,0c0,0,0,0,0.1,0c0,0.1,0,0.1,0,0.1v0.1v0.2c0,0,0,0,0,0c0,0,0,0,0,0.1v0.1l0,0c0,0,0,0.1,0,0.1l0,0c0,0,0,0.1-0.1,0.1
		h0c0,0,0,0,0.1,0c0,0,0.1,0,0.1,0c0,0,0,0,0.1,0c0,0,0,0,0,0.1c0,0,0,0,0,0h-0.1v0c0,0-0.1,0-0.1,0c0,0,0,0,0,0.1v0c0,0,0,0,0,0h0
		v0c0,0.1,0,0.1,0,0.1v0.1c0,0,0,0.1,0,0.1v0v0c0,0,0,0.1,0,0.1c0,0,0,0,0,0.1l0,0v0.1v0l0,0l0,0.1v0.1h0c0,0,0,0.1,0,0.1h-0.1
		c-0.1,0-0.1,0-0.1,0.1l0.1,0.1h0l0,0c0,0,0,0,0,0h0v0c0,0,0,0,0,0c0,0,0,0.1,0,0.1c0,0,0,0,0,0.1c0,0,0,0.1,0,0.1
		c0,0.1,0,0.1-0.1,0.1v0c0,0,0,0-0.1,0.1h-0.1c0,0-0.1,0-0.1,0c0,0,0,0-0.1,0.1h0c0,0,0,0,0,0c0,0,0,0,0.1,0v0l0,0v0
		c0,0.1,0,0.1,0.1,0h0c0,0,0,0,0,0s0,0,0,0v0c0,0-0.1,0-0.1,0c0,0,0,0-0.1,0h0l0,0c0,0,0,0.1,0,0.1c0,0,0,0,0,0c0,0,0,0.1,0,0.1
		c0,0,0,0-0.1,0.1v0.1c0,0,0,0.1,0,0.1c0,0,0,0.1,0,0.1h0c0,0.1,0,0.1-0.1,0.1c0,0-0.1,0.1-0.1,0.1c0,0,0,0.1,0,0.1c0,0,0,0-0.1,0
		c0,0,0,0-0.1,0c0,0,0,0-0.1,0c0,0.1,0,0.1,0.1,0.1H13c0,0,0,0,0,0h0.1h0c0,0,0,0,0,0s0,0,0,0.1v0.1v0l0,0c0,0,0,0,0,0.1v0
		c0,0,0,0,0,0.1c0,0,0,0,0,0.1c0,0,0,0,0,0c0,0,0,0,0,0h0h0l0,0c0,0,0,0-0.1,0.1l0.1,0h0c0,0.1,0,0.1-0.1,0l-0.1,0l0,0c0,0,0,0,0,0
		V17c0,0,0,0,0.1,0l0.1,0h0l-0.1,0.1h-0.1c0,0,0,0,0,0.1l0,0c0,0,0,0-0.1,0.1c0,0,0,0.1,0,0.1c0,0,0,0.1,0,0.1c0,0,0,0.1,0,0.1v0
		c0,0-0.1,0.1-0.1,0.2c0,0,0,0.1-0.1,0.1v0c0,0,0,0,0,0.1v0c0,0,0,0,0,0.1v0.1c0,0,0,0-0.1,0.1c0,0-0.1,0.1-0.1,0.1v0.1v0h0.1
		c0,0,0,0,0,0.1l0,0h-0.1l0,0.1l-0.1,0.1c0,0,0,0.1,0.1,0.1s0,0,0,0h0c-0.1,0-0.1,0.1-0.1,0.1l0,0c0,0,0,0.1,0,0.1c0,0,0,0.1,0,0.1
		v0.1v0.1c0,0,0,0,0,0s0,0-0.1,0c0,0,0,0.1-0.1,0.1v0.1v0.1c0,0,0,0,0,0.1c0,0-0.1,0-0.1,0.1l0,0.1c0,0,0,0,0,0c0,0,0,0,0,0.1v0
		c0,0,0,0.1-0.1,0.2c0,0,0,0,0,0l-0.1,0.1v0.1c0,0,0,0.1,0,0.1c0,0,0,0,0,0.1v0l-0.1,0v0.1v0c-0.1,0-0.1,0.1-0.1,0.1
		c0.1,0.1,0,0.1,0,0.1c0,0-0.1,0.1-0.1,0.1c0,0-0.1,0-0.1,0v0c0,0,0,0,0,0.1v0c0,0,0,0-0.1,0.1c-0.1,0-0.1,0,0,0.1h0.1h0.1v0
		c0,0.1,0,0.1-0.1,0.1c0,0,0,0,0,0c0,0,0,0,0,0c0,0-0.1,0.1-0.1,0.2v0.1c0,0-0.1,0-0.1,0l0,0l0,0h0c0,0.1,0,0.1,0,0.1L11,21.9l0,0.1
		l0,0c0,0,0,0-0.1,0.1l0,0.1c0,0.1-0.1,0.1-0.1,0.1l0,0c0,0.1,0,0.1-0.1,0.1h0c0,0,0,0.1,0,0.1v0c0,0,0,0,0,0h-0.1
		c0,0-0.1,0.1-0.1,0.1c0,0,0,0.1,0.1,0.1c0,0,0.1,0,0.1,0l0,0v0h-0.1c-0.1,0.1-0.1,0.1-0.1,0.2l-0.1,0c0,0,0,0,0,0.1v0
		c0,0,0,0.1-0.1,0.1l0,0h0h-0.1h0h-0.1h0c0,0,0,0,0,0s0,0,0,0v0c0,0,0,0,0.1,0l0,0v0l0,0c0,0,0,0.1,0,0.1l0,0c0,0.1,0,0.1-0.1,0
		h-0.1c-0.1,0-0.1,0,0,0.1c0,0,0,0,0,0s0,0,0,0l0.1,0c0,0.1,0,0.1,0,0.1l0,0c0,0,0,0-0.1,0L9.9,24l0,0.1c-0.1,0.1-0.2,0.2-0.2,0.2
		l-0.1,0.1l-0.1,0.1v0.1c0,0,0,0,0,0v0c0,0-0.1,0.1-0.1,0.1l0,0c0,0,0,0.1-0.1,0.1c0,0,0,0.1,0,0.1l-0.1,0.1l0,0c0,0,0,0-0.1,0
		l-0.1,0c0,0,0,0.1,0,0.1l0,0v0.1c0,0,0,0-0.1,0c0,0,0,0-0.1,0c0,0,0,0,0,0.1l0,0l0,0.1c0,0,0,0,0,0c0,0,0,0,0,0l0,0
		c0,0,0,0-0.1,0.1l0,0c0,0.1-0.1,0.1-0.1,0.1v0c0,0-0.1,0-0.1,0c0,0,0,0,0,0.1c0,0,0,0.1,0,0.1c0,0.1-0.1,0.1-0.1,0.2
		c-0.1,0.1-0.1,0.1-0.1,0.2l-0.1,0.1l0,0l0,0H8.1v0.1v0.1h0c0,0,0,0,0,0s0,0,0,0L8,26.6L8,26.6h0H7.9c0,0,0,0,0,0.1h0c0,0,0,0,0,0
		s0-0.1,0-0.1l0-0.1v0H7.8c0,0,0,0,0,0h0l0,0.1h0l-0.2,0.1h0v-0.1h0c0,0,0,0,0.1-0.1v0c0,0,0,0,0-0.1v-0.1c0,0,0,0,0,0s0,0,0,0
		c0,0,0,0,0,0v-0.1l-0.1,0H7.4h0c0,0-0.1,0.1-0.1,0.1l0,0H7.2h0c0,0,0,0-0.1,0.1v0.1c0,0-0.1,0.1-0.1,0.1c-0.1,0-0.1,0-0.1,0l0,0
		c0,0,0,0.1-0.1,0.1v0c0,0,0,0-0.1,0c0,0,0,0-0.1,0c-0.1,0-0.1,0.1-0.2,0.1c0,0-0.1,0.1-0.1,0.1c0,0-0.1,0-0.1,0
		c0,0-0.1,0.1-0.1,0.1c0,0,0,0-0.1,0c-0.1,0-0.1,0.1-0.2,0.1v0.1c0,0-0.1,0.1-0.1,0.1h0c0,0-0.1,0-0.1,0c0,0,0,0-0.1,0l0,0
		c0,0,0,0.1-0.1,0.1s-0.1,0-0.1,0c0,0,0,0-0.1,0c0,0,0,0-0.1,0c0,0,0,0-0.1,0l0,0h0c0,0,0,0,0,0c0,0,0,0,0,0H5.1c0,0,0,0,0,0l-0.1,0
		c0,0-0.1,0-0.1,0c0,0-0.1,0-0.1-0.1H4.6c0,0,0,0,0,0v0c0,0,0,0,0.1,0c0.1,0,0.1,0,0.2,0h0h0.1c0,0,0,0,0.1,0c0,0,0,0,0.1,0
		c0,0,0,0,0.1,0c0,0,0,0,0-0.1l0,0v-0.1c0,0,0,0,0,0s0,0,0,0l-0.1-0.1c-0.1,0-0.1,0-0.1,0h0H4.9c0,0-0.1,0-0.1,0l0,0
		C4.8,27.1,4.7,27,4.6,27H4.5c0,0-0.1,0-0.1,0c0,0-0.1,0-0.1,0l-0.1,0H4.2c0,0,0,0,0,0H4.1h0h0H4h0c0,0-0.1,0-0.1,0
		c-0.1,0-0.1,0-0.1,0c0,0-0.1,0-0.1,0c-0.1,0-0.1,0-0.1-0.1h0H3.3c0,0-0.1,0-0.2-0.1c-0.1,0-0.1,0-0.2,0h0l-0.1,0
		c-0.1,0-0.1-0.1-0.2-0.1l-0.1,0l-0.1-0.1l-0.1,0c0,0-0.1,0-0.1-0.1c0,0,0,0,0-0.1c0,0-0.1,0-0.1-0.1s0,0-0.1-0.1h0
		C2,26.1,2,26,1.9,26c0,0-0.1,0-0.2,0l0-0.1H1.7c0,0-0.1,0-0.1,0c0,0-0.1,0-0.1,0h0l0,0c0,0,0,0,0,0c0,0,0,0,0,0
		c0-0.1,0.1-0.1,0.1-0.1c0-0.1,0-0.1,0.1-0.1v0c0,0,0-0.1,0-0.1c0,0,0-0.1,0-0.1v0v-0.1c0,0-0.1-0.1-0.1-0.1c0,0,0-0.1,0-0.1v-0.3
		c0,0,0-0.1,0-0.1s0,0,0,0c0,0,0-0.1,0-0.1c0,0,0,0,0-0.1v-0.1c0,0,0,0,0-0.1c0,0,0,0,0-0.1v-0.1c0,0,0,0,0,0v-0.1
		c0-0.1,0.1-0.2,0.1-0.2s0-0.1,0-0.1s0,0,0,0c0-0.1,0.1-0.2,0.1-0.2c0,0,0,0,0,0c0,0,0-0.1,0-0.1c0,0,0-0.1,0-0.1v0c0,0,0,0,0-0.1
		c0-0.1,0-0.2,0.1-0.2v0c0,0,0-0.1,0-0.1c0,0,0-0.1,0-0.1v0c0,0,0-0.1,0-0.1c0,0,0-0.1,0-0.1c0-0.1,0.1-0.1,0.1-0.1
		c0,0,0-0.1,0.1-0.1l0-0.1c0,0,0-0.1,0-0.1c0,0,0,0,0-0.1C2,21.6,2,21.6,2,21.5c0,0,0-0.1,0-0.1s0,0,0-0.1c0,0,0-0.1,0.1-0.1
		c0,0,0,0,0-0.1l0,0c0-0.1,0.1-0.2,0.1-0.3c0.1-0.1,0.1-0.1,0.1-0.1c0,0,0,0,0-0.1c0,0,0,0,0.1-0.1v0c0,0,0-0.1,0-0.1s0,0,0,0
		l0.1-0.1c0-0.1,0-0.1,0.1-0.2v0c0,0,0.1,0,0.1-0.1v0l0,0c0,0,0.1-0.1,0.1-0.1c0,0,0-0.1,0-0.1c0,0,0,0,0-0.1l0,0c0,0,0-0.1,0.1-0.1
		c0,0,0,0,0-0.1c0,0,0,0,0-0.1c0,0,0.1-0.1,0.1-0.1c0,0,0,0,0-0.1c0,0,0.1,0,0.1-0.1c0,0,0,0,0-0.1c0,0,0-0.1,0-0.1c0,0,0,0,0-0.1
		c0.1-0.1,0.1-0.1,0.2-0.3l0.1-0.1c0.1-0.1,0.1-0.1,0.1-0.2l0.1-0.1L4,18.4l0,0c0,0,0-0.1,0-0.1c0,0,0,0,0.1-0.1l0.1-0.1
		c0,0,0-0.1,0.1-0.1c0,0,0,0,0.1-0.1c0,0,0,0,0,0s0,0,0,0l0,0l0-0.1l0.1-0.1l0,0c0,0,0,0,0,0c0,0,0-0.1,0.1-0.1c0,0,0.1-0.1,0.1-0.1
		c0,0,0.1-0.1,0.1-0.1c0,0,0.1-0.1,0.1-0.1L5,17.2C5,17.1,5.1,17,5.2,16.9l0.1-0.1l0.1-0.1l0.1-0.1c0,0,0,0,0-0.1c0,0,0.1,0,0.1-0.1
		c0,0,0,0,0.1-0.1c0,0,0,0,0,0c0.1,0,0.1,0,0.1-0.1c0,0,0.1-0.1,0.1-0.1l0,0c0,0,0.1,0,0.1-0.1c0,0,0,0,0.1-0.1c0,0,0,0,0,0s0,0,0,0
		L6,16v0L6,15.9c0,0,0,0,0.1-0.1c0,0,0-0.1,0.1-0.1l0-0.1c0,0,0,0,0,0s0,0,0,0l0.1-0.1c0,0,0,0,0,0c0.1,0,0.1-0.1,0.1-0.1l0,0
		c0.1,0,0.1,0,0.1,0l0,0l0,0l-0.1,0.1h0l-0.1,0.1v0c0,0,0,0,0,0.1l-0.1,0.1l-0.1,0.1C6.3,16,6.2,16,6.2,16.1h0c0,0,0,0.1-0.1,0.1
		l0,0c0,0-0.1,0.1-0.1,0.1v0c0,0.1,0,0.1-0.1,0.1L6,16.4c0,0,0,0.1-0.1,0.1c0,0,0,0,0,0.1c0,0,0,0,0,0s0,0,0,0l-0.1,0
		c0,0,0,0.1,0,0.1c0,0,0,0.1,0,0.1c0,0-0.1,0-0.1,0.1l-0.1,0c0,0-0.1,0.1-0.1,0.1c0,0,0,0,0,0.1c0,0,0,0.1-0.1,0.1c0,0,0,0,0,0
		l-0.1,0.1v0.1c0,0.1,0,0.1-0.1,0.1v0h0c0,0,0,0,0,0l0,0l0,0v0h0.1c0,0.1-0.1,0.1-0.1,0.1c-0.1,0.1-0.1,0.1-0.1,0.2c0,0,0,0-0.1,0
		c-0.1,0-0.1,0-0.1,0h0c0,0,0,0,0.1,0h0c0,0,0,0,0,0c0,0,0,0,0,0s0,0,0,0c0,0,0,0-0.1,0h0c0,0-0.1,0-0.1,0h0c0,0,0,0-0.1,0
		c0,0,0,0.1,0,0.1l0,0h0c0,0,0,0,0,0c0,0,0,0,0,0.1l0,0c0,0-0.1,0-0.1,0.1l0,0.1c0,0,0,0,0,0c0,0.1,0,0.1-0.1,0.1l-0.1,0.1
		c0,0.1,0,0.1-0.1,0.1c0,0,0,0,0,0s0,0,0,0l0,0c0,0,0,0,0,0.1c0,0,0,0,0,0l-0.1,0.1h0c0,0,0,0.1,0,0.1c0,0.1,0,0.1,0.1,0
		c0,0,0-0.1,0-0.1s0,0,0-0.1c0,0,0.1,0,0.1,0c0,0,0,0.1-0.1,0.1c0,0.1-0.1,0.1-0.1,0.1c0,0,0,0,0,0v0.1c-0.1,0-0.1,0-0.1,0l0,0v0
		l0,0l0,0v0h0v0v0v0h0c0,0-0.1,0-0.1,0.1c0,0,0,0,0,0.1c0,0-0.1,0-0.1,0.1c0,0,0,0.1-0.1,0.1h0c0,0,0,0.1-0.1,0.1h0c0,0,0,0,0,0.1v0
		c0,0,0,0-0.1,0.1l0,0v0.1c-0.1,0.1-0.1,0.1-0.1,0.1l0,0.1c0,0,0,0.1-0.1,0.1c0,0,0,0,0,0.1c0,0,0,0,0,0s0,0,0,0
		c-0.1,0-0.1,0-0.1,0.1c0,0,0,0.1,0,0.1l0,0c0,0,0,0,0,0.1v0.1c-0.1,0.1-0.1,0.1-0.1,0.1v0.1l-0.1,0.1c0,0-0.1,0.1-0.1,0.1
		c0,0,0,0.1,0,0.1c0,0,0,0,0,0c0,0,0,0,0,0l-0.1,0.2c0,0,0,0,0,0s0,0,0,0c0,0,0,0,0,0.1s0,0,0,0.1c0,0,0,0.1-0.1,0.1
		c0,0,0,0.1-0.1,0.1c0,0,0,0.1,0,0.1v0c0,0,0,0,0,0.1c0,0,0,0,0,0.1v0c0,0-0.1,0.1-0.1,0.1c0,0,0,0.1,0,0.1c0,0,0,0.1-0.1,0.1
		c0,0,0,0.1,0,0.2l0,0.1c-0.1,0.1-0.1,0.2-0.1,0.3l0,0.1V23c0,0.1,0,0.1,0,0.1c0,0,0,0,0,0.1c0,0,0,0,0,0.1c0,0,0,0,0,0.1
		c0,0,0,0,0,0.1c0,0,0,0.1,0,0.1c0,0,0,0.1,0,0.1c0,0,0,0.1,0,0.1v0.1c0,0.1,0,0.1,0,0.2v0.1l0,0.1l0,0c0,0,0,0,0.1,0
		c0,0,0-0.1,0-0.1c0,0,0.1-0.1,0.1-0.1c0-0.1,0-0.1,0.1-0.2v0c0-0.1,0-0.1,0.1-0.3c0,0,0,0,0-0.1s0-0.1,0-0.1c0,0,0,0,0-0.1
		c0-0.2,0.1-0.3,0.1-0.3l0.1-0.3c0,0,0,0,0-0.1c0,0,0-0.1,0.1-0.2c0,0,0.1-0.1,0.1-0.1c0-0.1,0-0.1,0-0.1c0,0,0.1-0.1,0.1-0.1
		c0-0.1,0-0.1,0-0.1c0-0.1,0.1-0.1,0.1-0.2s0-0.1,0.1-0.1c0,0,0-0.1,0-0.1c0,0,0,0,0.1-0.1v0c0,0,0-0.1,0-0.1s0-0.1,0.1-0.1l0,0
		c0,0,0-0.1,0-0.1c0,0,0,0,0-0.1v0c0,0,0-0.1,0-0.1c0-0.1,0-0.1,0.1-0.1c0,0,0.1,0,0.1-0.1c0-0.1,0-0.1,0.1-0.1l0,0
		c0-0.1,0-0.1,0.1-0.2l0-0.1l0.1-0.1v0h0l0,0v0c0,0,0,0,0,0v0c0,0,0,0,0,0c0,0-0.1,0-0.1,0.1v0.1c0,0,0,0-0.1,0.1c0,0-0.1,0-0.1,0.1
		c0,0.1,0,0.1,0,0.1c0,0,0,0,0,0.1v0v0.1c0,0-0.1,0.1-0.1,0.1l0,0.1l0,0l-0.1,0c0,0,0,0.1,0,0.1s0,0.1,0,0.1v0.2l0,0.1l0,0.1
		c-0.1,0.2-0.1,0.3-0.1,0.4c0,0,0,0.1,0,0.1c0,0,0,0.1,0,0.1v0c0,0.1-0.1,0.1-0.1,0.2l0,0v0v0.1c0,0,0,0.1,0,0.1c0,0,0,0.1,0,0.1
		v0.1c0,0,0,0,0,0.1h0c0,0,0,0,0,0c0,0,0,0,0,0v0.1v0.1c0,0,0,0.1,0,0.1v0c0,0,0,0,0,0s0,0,0,0v0c0,0.1,0,0.1,0,0.2v0.1v0.1
		c0,0.1,0,0.1,0,0.2v0.1V24c0,0.1,0,0.1,0,0.1v0.1c0,0,0,0.1,0,0.1c0,0,0,0,0,0.1v0.1c0,0,0,0.1,0,0.2c0,0.1,0.1,0.1,0.1,0.1
		c0,0,0.1,0.1,0.1,0.2c0,0,0,0.1,0.1,0.1c0,0,0,0.1,0.1,0.1h0c0,0,0,0,0.1,0c0,0,0,0,0,0s0,0,0,0c0,0,0.1,0,0.1,0s0,0,0.1,0.1h0.1
		c0,0,0.1,0,0.1,0.1c0.1,0,0.1,0.1,0.2,0.1h0.1c0,0,0,0,0.1,0h0c0,0,0,0,0.1,0h0c0,0,0,0,0.1,0h0.1c0.1,0,0.2,0,0.2,0h0
		c0,0,0.1,0,0.1,0c0,0,0,0,0,0l0.1,0c0,0,0.1,0,0.2-0.1L5,25.4c0.1,0,0.1-0.1,0.2-0.2c0.1,0,0.1,0,0.1-0.1c0,0,0,0,0,0
		c0,0,0,0,0.1-0.1h0C5.5,25,5.5,25,5.6,24.9c0,0,0,0,0.1-0.1c0,0,0,0,0,0c0,0,0,0,0,0c0,0,0.1,0,0.1-0.1c0,0,0.1-0.1,0.1-0.1
		c0,0,0.1-0.1,0.1-0.1c0.1-0.1,0.1-0.1,0.1-0.2l0,0l0.1-0.1c0-0.1,0.1-0.1,0.1-0.1h0h0c0,0,0,0,0.1,0c0,0,0,0,0.1,0h0
		c0,0,0-0.1,0-0.1l0,0l-0.1,0.1h0l0,0c0,0,0,0,0,0s0,0,0,0l0.1-0.1h0.1l0,0h0c0,0,0,0,0-0.1c0-0.1,0.1-0.1,0.1-0.1
		c0-0.1,0.1-0.1,0.1-0.1l0-0.1c0,0,0,0,0.1-0.1c0,0,0-0.1,0.1-0.1l0-0.1c0,0,0-0.1,0.1-0.1c0,0,0,0,0-0.1c0,0,0,0,0-0.1l0.1-0.1
		l0-0.1c0,0,0,0,0,0c0,0,0,0,0,0v0c0,0,0-0.1,0-0.1s0,0,0-0.1c0,0,0-0.1,0.1-0.1c0,0,0.1-0.1,0.1-0.1l0.1-0.1c0,0,0,0,0-0.1
		c0,0,0,0,0-0.1c0,0,0,0,0.1-0.1c0,0,0,0,0,0s0,0,0,0l0.1-0.1l0-0.1C8,21.8,8,21.7,8,21.7l0.1-0.1c0,0,0,0,0,0c0,0,0,0,0,0
		c0,0,0.1-0.1,0.1-0.2c0,0,0,0,0-0.1c0,0,0,0,0.1-0.1c0.1,0,0.1-0.1,0.1-0.1c0,0,0,0,0,0s0,0,0,0c0,0,0,0,0-0.1l0,0c0,0,0-0.1,0-0.1
		c0,0,0-0.1,0-0.1c0,0,0,0,0-0.1c0,0,0,0,0-0.1l0,0c0,0,0.1-0.1,0.1-0.2l0,0c0,0,0,0,0-0.1l0,0c0,0,0,0,0-0.1c0,0,0-0.1,0-0.1
		c0,0,0-0.1,0-0.1L9,19.9c0.1-0.1,0.1-0.1,0.1-0.1l0,0l0.1-0.1c0-0.1,0-0.2,0-0.2c0,0,0-0.1,0.1-0.1c0,0,0.1-0.1,0.1-0.1v-0.1v-0.1
		c0,0,0.1-0.1,0.1-0.2c0,0,0,0,0,0c0-0.1,0-0.1,0-0.2c0,0,0.1-0.1,0.1-0.1c0,0,0,0,0-0.1c0-0.1,0.1-0.1,0.1-0.1v0
		c0,0,0.1-0.1,0.1-0.1c0,0,0,0,0-0.1h0c0,0,0-0.1,0-0.1c0,0,0,0,0-0.1c0,0,0-0.1,0.1-0.2c0,0,0,0,0.1-0.1v-0.1c0,0,0,0,0-0.1
		c0,0,0-0.1,0-0.1h0h0v0v0c-0.1,0,0,0,0-0.1l0,0v0c0,0,0-0.1,0.1-0.2v-0.1c0,0,0-0.1,0-0.1c0,0,0,0,0-0.1c0,0,0-0.1,0-0.1v-0.1
		c0,0,0-0.1,0-0.1c0,0,0-0.1,0-0.1c0,0,0,0,0-0.1c0,0,0,0,0-0.1c0-0.1,0-0.1,0-0.1c0,0,0,0,0,0c0,0,0,0,0-0.1c0,0,0,0,0,0
		c0,0,0-0.1,0-0.1c0,0,0,0,0-0.1c0,0,0.1-0.1,0.1-0.1c0,0,0-0.1,0.1-0.1c0,0,0-0.1,0.1-0.1c0,0,0-0.1,0-0.1c0,0,0,0,0-0.1v-0.1
		c0,0,0-0.1,0.1-0.1c0,0,0,0,0,0s0,0,0,0v0c0,0,0-0.1,0-0.1c0,0,0,0,0-0.1v0v0c0,0,0.1-0.1,0.1-0.1c0-0.1,0-0.1,0.1-0.1
		c0,0,0,0,0-0.1v-0.1c0,0,0.1-0.1,0.1-0.1c0,0,0,0,0-0.1c0,0,0-0.1,0-0.1s0-0.1,0-0.1c0,0,0,0,0-0.1c0-0.1,0-0.2,0.1-0.2v-0.1v-0.1
		c0-0.1,0-0.1,0-0.1l0-0.1c0-0.1,0.1-0.2,0.1-0.3V13c0,0,0-0.1,0-0.2c0,0,0,0,0-0.1c0,0,0,0,0,0c0,0,0,0,0,0v-0.1c0,0,0-0.1,0-0.1
		v-0.1c0-0.1,0-0.1,0-0.2c0,0,0-0.1,0-0.1c0,0,0,0,0-0.1c0-0.1,0-0.2,0-0.2c0-0.1,0-0.1,0-0.3v0c0,0,0,0,0,0c0,0,0,0,0,0v-0.1
		c0,0,0,0,0.1-0.1l0-0.1c0,0,0,0,0-0.1c0,0-0.1-0.1-0.1-0.1c0,0,0-0.1,0-0.1c0-0.1,0-0.1,0-0.2c0,0,0-0.1,0-0.1c0,0,0,0,0-0.1v-0.2
		v-0.1c0-0.1,0-0.1,0-0.2v0c0,0,0-0.1,0-0.2l0.1-0.1c0-0.1,0-0.1,0-0.1v0c0,0,0,0,0-0.1l0,0V9.2V9.1c0-0.1,0-0.2,0-0.3v0V8.8V8.6
		V8.5c0,0,0-0.1,0-0.1s0-0.1,0-0.2V8.1c0-0.1,0-0.1,0-0.2c0,0,0-0.1,0-0.1c0,0,0-0.1,0-0.1c0,0,0-0.1,0-0.1V7.6c0-0.1,0-0.1,0-0.2
		c0,0,0-0.1,0-0.1c0-0.1,0-0.2,0-0.3v0c0,0,0-0.1,0-0.1c0,0,0-0.1,0-0.1v0l-0.1,0c0,0,0,0,0-0.1c0,0,0,0,0,0s0,0,0,0V6.4
		c0,0,0-0.1,0-0.1l-0.1-0.1c0-0.1,0-0.1-0.1-0.2c0,0-0.1-0.1-0.1-0.1c0-0.1,0-0.1-0.1-0.1c0,0,0,0-0.1,0h-0.1h-0.1
		c-0.1,0-0.1,0-0.2,0c0,0,0,0,0,0c0,0-0.1,0-0.1,0c0,0-0.1,0-0.1,0h0c-0.1,0-0.1,0.1-0.2,0.1c0,0,0,0,0,0h-0.1c0,0,0,0-0.1,0.1l0,0
		c0,0-0.1,0-0.1,0.1c0,0-0.1,0.1-0.1,0.1c0,0-0.1,0-0.1,0c0,0,0,0,0,0c0,0,0,0,0,0L9.7,6.2c-0.1,0-0.1,0.1-0.2,0.1L9.4,6.3L9.3,6.4
		c0,0,0,0,0,0s0,0,0,0c0,0-0.1,0-0.1,0c0,0,0,0.1-0.1,0.1C9,6.6,9,6.6,9,6.6L8.9,6.7C8.9,6.7,8.8,6.8,8.7,6.8l0,0c0,0,0,0,0,0
		c0,0-0.1,0-0.1,0c0,0,0,0-0.1,0c0,0,0,0-0.1,0.1l0,0v0c0,0.1-0.1,0.1-0.1,0.1l0,0.1v0c0,0,0,0-0.1,0c0,0-0.1,0.1-0.1,0.1
		c0,0,0,0-0.1,0.1v0.1C8,7.6,7.9,7.6,7.9,7.7l0,0c0,0,0,0,0,0.1c0,0,0,0,0,0.1l-0.1,0C7.7,7.9,7.7,7.9,7.7,8V8c-0.1,0-0.1,0-0.1,0.1
		l0,0.1c0,0,0,0,0,0.1c0,0,0,0.1,0,0.1L7.4,8.4c0,0,0,0,0,0.1c0,0,0,0-0.1,0.1c0,0,0,0,0,0.1c0,0.1,0,0.1,0,0.1c0,0,0,0,0,0
		c0,0,0,0-0.1,0.1c0,0,0,0,0,0c0,0,0,0.1,0,0.1c0,0,0,0.1,0,0.1L7,9.3c0,0,0,0.1-0.1,0.1s0,0.1,0,0.1v0.1l0,0.1v0.1
		c-0.1,0.1-0.1,0.1,0,0.1v0c0,0.1,0,0.1,0,0.1v0.1v0c0,0,0,0.1,0,0.1h0c0,0,0,0,0,0.1v0v0.1c0,0,0,0,0,0.1s0,0,0,0.1
		c0,0,0,0.1,0,0.1v0.1v0.1c0,0,0,0.1,0,0.1c0,0,0,0.1,0,0.1c0,0,0,0.1,0,0.1c0,0,0,0.1,0,0.1c0,0,0,0.1,0,0.1l0,0c0,0,0,0,0,0.1l0,0
		c0,0,0,0,0,0c0,0.1,0,0.1,0,0.2c0,0.1,0,0.1,0,0.1h0l0,0.1c0,0,0,0.1,0.1,0.1l0,0h0c0,0,0,0,0,0s0,0,0,0l0,0v0.1v0l0.1,0.1
		c0.1,0,0.1,0,0.1,0.1c0,0,0,0.1,0,0.1c0,0,0,0,0,0.1v0c0,0.1,0,0.1-0.1,0.1v0.1c0,0,0,0,0,0.1c0,0,0,0,0,0.1v0.1v0
		c0,0.1,0,0.1-0.1,0.1h0c0,0-0.1,0-0.1,0v0.1v0c0,0,0,0,0,0c0,0,0,0-0.1,0h0l-0.1,0v0c0,0-0.1,0-0.1,0h0c0,0,0,0,0,0c0,0,0,0,0,0
		l0,0.1l-0.1,0.1l0,0l-0.1,0.1v0l-0.1,0c0,0-0.1,0-0.1,0c0,0-0.1,0-0.1,0v0c-0.1,0-0.2,0-0.2,0c0,0,0,0,0,0c0,0,0,0-0.1,0
		c-0.1,0-0.1,0-0.1,0l0,0c-0.1,0-0.1,0-0.1-0.1l0-0.1c0-0.1,0-0.1-0.1-0.1c-0.1,0-0.1-0.1-0.1-0.1c0,0,0,0-0.1,0h0c0,0-0.1,0-0.1,0
		c0,0-0.1,0-0.1,0c0,0,0,0-0.1,0c0,0,0,0,0,0s0,0,0,0h0H4.8c0,0-0.1,0-0.1,0c0,0-0.1,0-0.1,0l-0.1,0c0,0-0.1,0-0.1,0
		c0,0-0.1,0-0.1,0c0,0-0.1,0-0.1-0.1c0,0-0.1,0-0.1,0h0c0,0,0,0,0,0c0,0,0,0,0-0.1l0-0.1c0-0.1,0-0.1,0.1-0.1l0-0.1l0-0.1
		c0,0,0-0.1,0-0.1s0-0.1,0-0.1v-0.1v-0.1c0,0,0,0,0,0s0,0,0,0c0,0,0,0,0-0.1c0,0,0,0,0-0.1c0-0.1,0-0.1,0-0.2c0-0.1,0-0.2,0.1-0.3
		c0-0.1,0-0.1,0.1-0.3c0,0,0,0,0-0.1c0,0,0,0,0-0.1c0,0,0,0,0,0s0,0,0,0c0,0,0-0.1,0-0.1c0,0,0-0.1,0-0.1c0,0,0,0,0-0.1
		c0-0.2,0.1-0.3,0.1-0.3c0-0.1,0-0.2,0.1-0.2c0-0.1,0.1-0.2,0.1-0.2V9.3c0-0.1,0.1-0.2,0.1-0.3l0,0c0-0.1,0.1-0.1,0.1-0.2
		s0-0.1,0.1-0.2c0-0.1,0-0.1,0.1-0.2c0,0,0-0.1,0.1-0.2c0,0,0,0,0-0.1c0,0,0.1-0.1,0.1-0.1s0-0.1,0.1-0.2v0c0.1-0.1,0.1-0.2,0.2-0.3
		c0,0,0.1-0.1,0.1-0.2c0,0,0.1-0.1,0.1-0.1c0,0,0,0,0.1-0.1l0,0c0,0,0-0.1,0.1-0.1S5.9,7,5.9,7C6,6.9,6,6.9,6,6.9
		c0,0,0.1-0.1,0.1-0.1c0-0.1,0.1-0.1,0.1-0.1c0,0,0,0,0.1-0.1l0.1-0.1l0.1-0.1c0-0.1,0.1-0.1,0.1-0.1l0,0L6.9,6c0,0,0.1,0,0.1-0.1
		c0,0,0,0,0.1-0.1c0,0,0,0,0.1,0l0,0c0,0,0.1-0.1,0.1-0.1c0,0,0.1,0,0.1-0.1c0.1,0,0.2-0.1,0.3-0.2l0.1-0.1l0,0c0.1,0,0.1,0,0.1,0
		c0,0,0,0,0.1,0c0,0,0.1,0,0.1-0.1l0.1,0c0,0,0.1,0,0.1-0.1c0,0,0,0,0.1-0.1h0c0,0,0.1,0,0.2-0.1c0,0,0.1,0,0.1-0.1c0,0,0.1,0,0.1,0
		l0.2-0.1l0.1,0c0.1,0,0.1,0,0.1,0c0,0,0.1,0,0.1,0s0.1,0,0.1-0.1h0.1c0,0,0.1,0,0.1,0s0,0,0.1,0c0,0,0,0,0.1,0c0.1,0,0.2,0,0.3-0.1
		h0.1H10h0c0,0,0,0,0.1,0v0c0,0,0-0.1,0.1-0.1c0,0,0,0,0.1-0.1h0.1c0.1,0,0.1,0,0.2,0h0.1c0.1,0,0.2,0,0.2,0c0,0,0,0,0,0
		c0,0,0,0,0,0c0,0,0.1,0,0.1,0v0l0,0c0-0.1,0.1-0.1,0.1-0.1h0.1c0.1,0,0.1,0,0.1,0h0.1c0,0,0,0,0,0s0,0,0.1,0c0,0,0.1,0,0.1,0
		c0,0,0.1,0.1,0.1,0.1c0,0,0.1,0,0.1,0c0,0,0,0,0.1,0s0.1,0,0.2,0.1l0.1,0.1c0,0,0.1,0,0.1,0c0,0,0,0,0.1,0.1c0,0,0,0,0,0
		c0.1,0.1,0.1,0.1,0.2,0.1c0,0,0,0,0,0.1l0.1,0l0,0c0,0.1,0,0.1,0.1,0.1l0,0c0,0,0,0,0.1,0.1c0,0,0.1,0.1,0.1,0.1
		c0.1,0.1,0.1,0.1,0.1,0.1c0,0,0,0.1,0.1,0.1l0,0.1l0,0c0,0,0,0.1,0,0.1v0.1c0,0.1,0,0.1,0.1,0.1h0c0,0,0,0.1,0,0.1c0,0,0,0,0,0
		c0,0,0.1,0,0.1,0.1l0,0.1v0c0,0,0,0.1,0,0.1c0,0,0,0.1,0.1,0.1v0.1v0v0c0,0,0,0,0,0.1l0,0l-0.1,0.1l0,0c0,0,0,0,0.1,0l0,0l0,0l0,0
		l0,0c0,0,0.1,0,0.1,0v0.1c0,0,0,0,0,0.1l0,0c0,0,0,0.1,0,0.1v0c0,0.1,0,0.1,0,0.1c0.1,0.1,0.1,0.1,0,0.2c0,0,0,0,0,0v0.1v0
		c0,0,0,0,0,0c0,0,0,0,0,0.1l0,0v0.1v0.1c0,0,0.1,0.1,0.1,0.2v0.1c0,0,0,0,0,0.1v0v0.1v0.2l0,0.1c0,0,0,0,0,0c0,0,0,0,0,0
		c0,0,0.1-0.1,0.1-0.1l0,0l0,0v0c0,0,0,0-0.1,0.1c-0.1,0-0.1,0.1-0.1,0.1v0.1c0,0,0,0.1,0,0.1c0,0.1,0,0.1,0,0.1V9c0,0,0,0.1,0,0.1
		c0,0,0,0,0,0.1c0,0,0,0.1,0,0.2c0,0.2,0,0.3,0,0.3c0,0.1,0,0.2,0,0.2C14,9.9,14,9.9,14.1,9.9L14.1,9.9L14.1,9.9L14.1,9.9L14.1,9.9
		L14.1,9.9z M2.4,25.6C2.4,25.6,2.4,25.6,2.4,25.6C2.4,25.5,2.4,25.5,2.4,25.6c0-0.1,0-0.1,0-0.1c0,0,0-0.1-0.1-0.1
		c0,0-0.1,0-0.1-0.1c0,0,0,0-0.1-0.1v0c0,0,0-0.1,0-0.1H2.1c0,0-0.1,0-0.1,0c0,0.1,0,0.1,0,0.1c0,0,0.1,0.1,0.1,0.1c0,0,0,0,0,0
		s0,0,0,0.1c0,0,0,0,0,0C2.2,25.5,2.2,25.5,2.4,25.6C2.3,25.6,2.3,25.6,2.4,25.6C2.3,25.6,2.4,25.6,2.4,25.6z M2.6,25.1
		c0,0,0-0.1-0.1-0.1c0,0-0.1,0-0.1,0C2.4,25,2.5,25.1,2.6,25.1L2.6,25.1z M2.5,25.5L2.5,25.5L2.5,25.5L2.5,25.5L2.5,25.5z M2.9,20.6
		L2.9,20.6L2.9,20.6z M3.2,26.5C3.2,26.5,3.2,26.5,3.2,26.5L3.2,26.5L3.2,26.5z M3.3,26.4L3.3,26.4L3.3,26.4L3.3,26.4z M4.1,19.4
		C4.1,19.4,4.1,19.3,4.1,19.4L4.1,19.4c0.1-0.1,0.1-0.1,0.1-0.1h0c0,0-0.1,0.1-0.1,0.2c0,0.1,0,0.1-0.1,0.2c0,0,0,0,0,0.1
		c0,0.1,0,0.1-0.1,0.1c0,0,0,0,0,0.1c0,0,0,0-0.1,0.1c0,0,0,0.1,0,0.1s0,0,0,0.1l0,0c0,0,0,0,0,0c0,0,0,0,0-0.1c0,0,0.1-0.1,0.1-0.1
		h0c0,0,0.1-0.1,0.1-0.2c0-0.1,0.1-0.2,0.1-0.2c0,0,0,0,0,0s0,0,0,0C4,19.5,4,19.4,4.1,19.4z M3.7,27.3C3.9,27.4,3.9,27.4,3.7,27.3
		L3.7,27.3L3.7,27.3C3.7,27.3,3.7,27.3,3.7,27.3L3.7,27.3z M3.7,27.3c0,0,0.1,0,0.1,0c0,0,0,0,0,0c0,0,0,0,0,0
		C3.8,27.3,3.8,27.3,3.7,27.3L3.7,27.3L3.7,27.3z M3.7,19.4L3.7,19.4C3.8,19.4,3.8,19.4,3.7,19.4L3.7,19.4z M4.4,27.5L4.4,27.5
		L4.4,27.5L4.4,27.5l-0.1,0c-0.1,0-0.1,0-0.2,0c-0.1,0-0.1,0-0.1-0.1h0c0,0,0,0,0.1,0l0,0C4.1,27.4,4.3,27.5,4.4,27.5L4.4,27.5z
		 M4,27.4L4,27.4L4,27.4L4,27.4L4,27.4z M4,19.9C4,19.9,4,19.9,4,19.9C4,19.9,4,19.9,4,19.9C4,19.9,4,19.9,4,19.9z M4.4,26.9
		C4.4,26.9,4.4,26.9,4.4,26.9L4.4,26.9C4.4,26.9,4.4,26.9,4.4,26.9L4.4,26.9z M4.5,27.5L4.5,27.5L4.5,27.5L4.5,27.5L4.5,27.5z
		 M4.5,19.2C4.5,19.2,4.5,19.2,4.5,19.2C4.5,19.2,4.5,19.3,4.5,19.2C4.4,19.3,4.4,19.3,4.5,19.2L4.5,19.2L4.5,19.2z M4.6,27.3
		C4.5,27.3,4.5,27.3,4.6,27.3L4.6,27.3z M4.6,19.1L4.6,19.1L4.6,19.1L4.6,19.1L4.6,19.1z M4.8,27.2c0,0.1-0.1,0.1-0.1,0.1
		C4.7,27.2,4.8,27.2,4.8,27.2z M4.7,12C4.7,12,4.7,12,4.7,12L4.7,12z M4.9,18.6c0-0.1,0-0.1,0.1-0.1C5,18.6,5,18.6,4.9,18.6z
		 M5.1,18.4C5.1,18.4,5.1,18.4,5.1,18.4L5.1,18.4L5.1,18.4L5.1,18.4L5.1,18.4z M5.2,27.1L5.2,27.1L5.2,27.1L5.2,27.1L5.2,27.1z
		 M5.2,17.8L5.2,17.8L5.2,17.8L5.2,17.8L5.2,17.8z M5.3,26.8L5.3,26.8L5.3,26.8L5.3,26.8L5.3,26.8z M5.3,27.4
		C5.3,27.4,5.3,27.4,5.3,27.4C5.3,27.3,5.3,27.3,5.3,27.4L5.3,27.4z M5.3,18.1L5.3,18.1L5.3,18.1z M5.4,25.1
		C5.3,25.1,5.3,25.1,5.4,25.1C5.3,25.1,5.3,25.1,5.4,25.1L5.4,25.1L5.4,25.1z M5.3,27.2C5.3,27.2,5.3,27.2,5.3,27.2L5.3,27.2
		L5.3,27.2z M5.3,16.9L5.3,16.9L5.3,16.9L5.3,16.9z M5.4,17.7L5.4,17.7L5.4,17.7L5.4,17.7L5.4,17.7z M5.5,25.4L5.5,25.4L5.5,25.4z
		 M5.6,17.8L5.6,17.8L5.6,17.8L5.6,17.8L5.6,17.8z M5.6,17L5.6,17L5.6,17L5.6,17z M5.6,17.4C5.6,17.4,5.6,17.4,5.6,17.4L5.6,17.4
		L5.6,17.4z M5.7,25.2L5.7,25.2L5.7,25.2L5.7,25.2L5.7,25.2z M5.9,27.1C5.9,27,5.8,27,5.9,27.1L5.9,27.1C5.8,27.1,5.8,27.1,5.9,27.1
		L5.9,27.1z M5.9,17.1C5.9,17.1,5.9,17,5.9,17.1C5.9,17,6,17,5.9,17.1L5.9,17.1L5.9,17.1C5.9,17.1,5.8,17.1,5.9,17.1z M6.1,16.8
		L6.1,16.8L6.1,16.8L6.1,16.8L6.1,16.8L6.1,16.8L6.1,16.8C6,16.8,6,16.8,6.1,16.8z M6.2,15.9L6.2,15.9L6.2,15.9L6.2,15.9z M6.4,16.5
		c0,0,0,0-0.1,0.1l-0.1,0.1v0.1H6.2c0,0,0-0.1,0.1-0.1C6.3,16.5,6.3,16.5,6.4,16.5C6.3,16.5,6.3,16.5,6.4,16.5z M6.5,13.1L6.5,13.1
		L6.5,13.1C6.4,13,6.4,13,6.4,12.9c0,0,0-0.1-0.1-0.1H6.2c0,0,0,0,0,0.1c0,0,0,0,0,0.1c0,0,0,0,0,0.1V13h0.1v0.1c0,0,0,0,0,0
		s0,0,0,0C6.4,13.1,6.4,13.1,6.5,13.1L6.5,13.1z M6.4,24.4L6.4,24.4v-0.1h0c-0.1,0-0.1,0-0.1,0.1C6.3,24.4,6.3,24.4,6.4,24.4
		C6.3,24.4,6.3,24.5,6.4,24.4L6.4,24.4L6.4,24.4z M6.3,13.2C6.3,13.2,6.4,13.2,6.3,13.2L6.3,13.2L6.3,13.2L6.3,13.2z M6.5,13
		C6.5,12.9,6.5,12.9,6.5,13l-0.1,0C6.4,13,6.5,13,6.5,13C6.5,13,6.5,13,6.5,13z M6.7,24.3C6.7,24.3,6.6,24.3,6.7,24.3L6.7,24.3
		L6.7,24.3L6.7,24.3L6.7,24.3z M6.7,26.6C6.7,26.6,6.7,26.6,6.7,26.6C6.7,26.6,6.7,26.6,6.7,26.6C6.7,26.6,6.7,26.6,6.7,26.6
		L6.7,26.6L6.7,26.6z M6.8,15.3C6.8,15.3,6.7,15.3,6.8,15.3L6.8,15.3L6.8,15.3L6.8,15.3z M6.9,27.1L6.9,27.1L6.9,27.1L6.9,27.1z
		 M6.9,26.4C6.9,26.4,6.9,26.4,6.9,26.4C6.9,26.4,6.9,26.4,6.9,26.4C6.8,26.4,6.8,26.4,6.9,26.4L6.9,26.4z M6.9,11.3
		C6.9,11.3,6.9,11.3,6.9,11.3L6.9,11.3L6.9,11.3L6.9,11.3z M7.1,24.1C7.1,24.1,7.1,24.1,7.1,24.1L7.1,24.1c-0.1-0.1-0.1,0-0.1,0
		C7,24.1,7,24.2,7.1,24.1L7.1,24.1z M7.1,26.2L7.1,26.2C7,26.3,7.1,26.3,7.1,26.2L7.1,26.2z M7.2,12.8C7.2,12.8,7.2,12.8,7.2,12.8
		L7.2,12.8L7.2,12.8L7.2,12.8L7.2,12.8z M7.2,24.1L7.2,24.1L7.2,24.1z M7.3,6C7.3,6,7.2,6,7.3,6C7.2,6,7.2,6,7.3,6L7.3,6
		C7.3,6.1,7.3,6.1,7.3,6C7.3,6.1,7.3,6,7.3,6z M7.3,23.7L7.3,23.7L7.3,23.7L7.3,23.7C7.3,23.6,7.3,23.6,7.3,23.7z M7.3,26.8
		L7.3,26.8L7.3,26.8L7.3,26.8z M7.3,24.4C7.3,24.4,7.3,24.4,7.3,24.4L7.3,24.4L7.3,24.4z M7.5,22.6c0,0,0,0.1,0,0.1h0
		c0,0,0,0,0.1-0.1v-0.1C7.6,22.6,7.6,22.6,7.5,22.6L7.5,22.6z M7.5,26.2L7.5,26.2C7.5,26.2,7.5,26.1,7.5,26.2
		C7.5,26.1,7.5,26.1,7.5,26.2L7.5,26.2C7.5,26.2,7.5,26.2,7.5,26.2z M7.5,24.9L7.5,24.9L7.5,24.9L7.5,24.9
		C7.5,24.8,7.5,24.8,7.5,24.9z M7.6,26.3C7.6,26.3,7.6,26.3,7.6,26.3L7.6,26.3L7.6,26.3L7.6,26.3C7.6,26.2,7.6,26.3,7.6,26.3z
		 M7.6,27C7.6,27,7.6,27,7.6,27L7.6,27z M7.7,26.2C7.7,26.2,7.7,26.2,7.7,26.2C7.7,26.2,7.7,26.2,7.7,26.2
		C7.7,26.2,7.7,26.2,7.7,26.2C7.7,26.2,7.7,26.2,7.7,26.2z M7.8,26.6L7.8,26.6L7.8,26.6L7.8,26.6L7.8,26.6z M7.8,26.1L7.8,26.1
		L7.8,26.1z M7.9,26.1L7.9,26.1L7.9,26.1L7.9,26.1z M7.9,7.4C7.9,7.4,8,7.4,7.9,7.4L7.9,7.4L7.9,7.4z M8,23.2L8,23.2L8,23.2z
		 M8,26.6C8,26.6,8,26.5,8,26.6C8,26.5,8,26.5,8,26.6z M8,26.1C8,26.1,8,26.1,8,26.1L8,26.1L8,26.1z M8.1,25.6
		C8.1,25.6,8.1,25.6,8.1,25.6L8.1,25.6C8.1,25.6,8.1,25.6,8.1,25.6z M8.2,26C8.1,26,8.1,26,8.2,26L8.2,26L8.2,26z M8.2,7.2
		C8.2,7.2,8.2,7.2,8.2,7.2L8.2,7.2z M8.3,25.5L8.3,25.5L8.3,25.5c-0.1,0-0.1,0-0.1,0.1L8.3,25.5C8.2,25.5,8.3,25.5,8.3,25.5
		L8.3,25.5z M8.2,25.8L8.2,25.8L8.2,25.8z M8.2,26.1L8.2,26.1L8.2,26.1z M8.5,25.6C8.5,25.6,8.5,25.6,8.5,25.6c0-0.1,0-0.1,0-0.1
		L8.5,25.6c-0.1-0.1-0.1-0.1-0.1-0.1c0,0,0,0,0,0.1l0,0C8.4,25.6,8.4,25.6,8.5,25.6L8.5,25.6z M8.6,25.4C8.7,25.3,8.7,25.3,8.6,25.4
		L8.6,25.4C8.6,25.3,8.5,25.4,8.6,25.4l-0.1,0.1L8.6,25.4L8.6,25.4L8.6,25.4L8.6,25.4z M8.6,21.3C8.6,21.3,8.6,21.3,8.6,21.3
		L8.6,21.3L8.6,21.3z M8.8,21.6L8.8,21.6L8.8,21.6L8.8,21.6L8.8,21.6z M8.9,21.9L8.9,21.9C8.9,21.9,8.9,21.9,8.9,21.9L8.9,21.9z
		 M9.1,20.5L9.1,20.5C9.1,20.5,9.1,20.6,9.1,20.5L9.1,20.5z M9.4,24.4C9.4,24.4,9.4,24.4,9.4,24.4C9.4,24.4,9.4,24.4,9.4,24.4
		C9.4,24.4,9.3,24.4,9.4,24.4C9.3,24.4,9.4,24.4,9.4,24.4z M9.4,23.2L9.4,23.2L9.4,23.2z M9.6,24L9.6,24C9.6,23.9,9.6,23.9,9.6,24
		c-0.1,0-0.1,0-0.1,0l0,0C9.5,24.1,9.5,24.1,9.6,24L9.6,24z M9.9,23.7C9.9,23.7,9.9,23.7,9.9,23.7C9.9,23.7,9.9,23.7,9.9,23.7z
		 M9.9,23.5L9.9,23.5C9.9,23.5,9.9,23.5,9.9,23.5z M10.1,22.6L10.1,22.6L10.1,22.6L10.1,22.6L10.1,22.6L10.1,22.6L10.1,22.6z
		 M10.1,22.2L10.1,22.2L10.1,22.2z M10.2,23L10.2,23L10.2,23z M10.5,22.9C10.5,22.9,10.5,22.9,10.5,22.9L10.5,22.9l-0.1,0
		c0,0,0,0-0.1,0.1l0,0.1C10.3,23,10.4,23,10.5,22.9C10.5,23,10.5,23,10.5,22.9z M10.4,23.2L10.4,23.2C10.4,23.1,10.4,23.1,10.4,23.2
		L10.4,23.2c-0.1-0.1-0.1-0.1-0.1-0.1S10.3,23.1,10.4,23.2L10.4,23.2z M10.4,19.4L10.4,19.4L10.4,19.4L10.4,19.4L10.4,19.4z
		 M10.5,18.6L10.5,18.6L10.5,18.6L10.5,18.6L10.5,18.6z M10.6,18.9L10.6,18.9L10.6,18.9L10.6,18.9z M10.6,5.5L10.6,5.5L10.6,5.5
		C10.6,5.4,10.6,5.4,10.6,5.5C10.6,5.5,10.6,5.5,10.6,5.5L10.6,5.5z M10.6,22.4L10.6,22.4L10.6,22.4L10.6,22.4z M10.6,18.8
		L10.6,18.8L10.6,18.8L10.6,18.8z M10.8,16L10.8,16L10.8,16L10.8,16L10.8,16z M10.9,20.4C10.9,20.4,10.9,20.4,10.9,20.4
		C10.9,20.5,10.9,20.5,10.9,20.4L10.9,20.4z M11.1,17.4C11.1,17.4,11.1,17.4,11.1,17.4L11.1,17.4z M11.2,19.4L11.2,19.4L11.2,19.4z
		 M12.6,6L12.6,6l0.1,0.1c0,0,0,0,0,0.1c0,0,0,0,0,0.1l0,0V6.2c0,0,0,0,0-0.1c0,0,0,0,0-0.1l0-0.1c0,0,0-0.1,0-0.1
		c0,0,0-0.1-0.1-0.1v0l-0.1-0.1c0,0-0.1-0.1-0.1-0.1c0,0,0,0-0.1-0.1c0,0,0,0-0.1-0.1v0c0,0,0,0-0.1-0.1c0,0-0.1,0-0.1-0.1
		c0,0,0,0,0-0.1h0c0,0,0,0,0,0c0,0,0,0,0-0.1c0,0,0,0,0-0.1c0,0-0.1,0-0.1,0c-0.1,0-0.1-0.1-0.2-0.1c-0.1,0-0.2-0.1-0.3-0.1
		c0,0-0.1,0-0.1,0h0c0,0-0.1,0-0.1-0.1l0,0l0,0c0,0.1,0,0.1,0.1,0.1l0.1,0h0.1C11.5,4.9,11.6,5,11.6,5c0,0,0,0.1,0.1,0.1
		c0,0,0,0,0,0.1c0,0,0,0.1,0.1,0.1c0,0,0,0,0,0c0,0,0,0,0.1,0l0,0.1c0,0,0,0,0,0c0,0,0,0,0.1,0l0.1,0.1l0,0c0,0,0,0,0.1,0.1
		c0,0,0.1,0,0.1,0c0,0,0,0.1,0.1,0.1l0,0.1l0.1,0C12.5,5.9,12.5,5.9,12.6,6z M11.5,15.5L11.5,15.5L11.5,15.5z M11.6,16.1L11.6,16.1
		L11.6,16.1L11.6,16.1L11.6,16.1z M11.8,12.9L11.8,12.9L11.8,12.9L11.8,12.9L11.8,12.9z M11.8,20.3C11.8,20.2,11.8,20.2,11.8,20.3
		C11.8,20.2,11.8,20.2,11.8,20.3L11.8,20.3C11.8,20.3,11.8,20.3,11.8,20.3z M11.8,11.8L11.8,11.8L11.8,11.8L11.8,11.8z M11.8,14.6
		L11.8,14.6L11.8,14.6L11.8,14.6L11.8,14.6C11.9,14.6,11.9,14.6,11.8,14.6L11.8,14.6z M12,19.8c0,0,0-0.1,0-0.1h-0.1
		c-0.1,0-0.1,0.1-0.1,0.1v0h0L12,19.8C11.9,19.9,11.9,19.9,12,19.8L12,19.8z M11.8,5C11.9,5,11.9,5,11.8,5L11.8,5L11.8,5
		C11.9,5,11.8,5,11.8,5L11.8,5z M11.8,12.4L11.8,12.4L11.8,12.4z M12,19.3L12,19.3C12.1,19.3,12.1,19.3,12,19.3L12,19.3L12,19.3
		C12,19.3,12,19.3,12,19.3L12,19.3z M12.2,18.9L12.2,18.9L12.2,18.9L12.2,18.9c-0.1,0.1-0.1,0.1-0.1,0.1v0h0.1
		C12.2,19.1,12.2,19,12.2,18.9C12.2,19,12.2,19,12.2,18.9L12.2,18.9z M12.2,6.9L12.2,6.9L12.2,6.9L12.2,6.9z M12.4,12.8L12.4,12.8
		C12.4,12.8,12.4,12.8,12.4,12.8L12.4,12.8z M12.6,17.7C12.6,17.6,12.5,17.6,12.6,17.7c-0.1,0-0.1,0-0.1,0c-0.1,0-0.1,0-0.1,0.1
		c0,0,0,0,0,0s0,0,0,0c0.1,0.1,0.1,0.1,0.1,0C12.5,17.7,12.6,17.7,12.6,17.7L12.6,17.7z M12.4,4.6L12.4,4.6
		C12.5,4.7,12.5,4.7,12.4,4.6L12.4,4.6z M12.5,6.2L12.5,6.2L12.5,6.2L12.5,6.2z M12.6,18.2L12.6,18.2L12.6,18.2L12.6,18.2z
		 M12.6,4.8L12.6,4.8L12.6,4.8L12.6,4.8c0.1,0,0.1,0,0.1,0L12.6,4.8L12.6,4.8z M12.6,13.7C12.6,13.7,12.6,13.7,12.6,13.7L12.6,13.7z
		 M12.7,16.9C12.6,16.9,12.6,16.9,12.7,16.9L12.7,16.9L12.7,16.9L12.7,16.9z M12.7,7.5L12.7,7.5L12.7,7.5z M12.7,8.2L12.7,8.2
		L12.7,8.2L12.7,8.2z M12.7,17.8L12.7,17.8L12.7,17.8L12.7,17.8L12.7,17.8z M12.7,7.3C12.7,7.3,12.8,7.4,12.7,7.3
		c0.1,0.1,0.1,0.1,0.1,0.2h0.1V7.4v0c-0.1,0-0.1,0,0-0.1l0-0.1c0-0.1-0.1-0.1-0.1,0V7.3L12.7,7.3L12.7,7.3z M12.8,8.5
		C12.8,8.5,12.8,8.4,12.8,8.5C12.8,8.4,12.8,8.4,12.8,8.5L12.8,8.5L12.8,8.5z M12.8,10.3C12.8,10.2,12.8,10.2,12.8,10.3L12.8,10.3
		C12.7,10.3,12.7,10.3,12.8,10.3C12.8,10.3,12.8,10.3,12.8,10.3z M12.8,16.5C12.8,16.5,12.8,16.5,12.8,16.5
		C12.8,16.5,12.8,16.6,12.8,16.5L12.8,16.5L12.8,16.5z M12.8,6.8L12.8,6.8C12.8,6.8,12.8,6.8,12.8,6.8L12.8,6.8L12.8,6.8L12.8,6.8z
		 M12.9,7.7L12.9,7.7L12.9,7.7L12.9,7.7c-0.1-0.1-0.1-0.1-0.1-0.1v0v0.1L12.9,7.7l-0.1,0.1c0,0,0.1,0,0.1,0L12.9,7.7
		C12.9,7.8,12.9,7.7,12.9,7.7L12.9,7.7z M12.9,8.3c0,0,0,0.1,0.1,0.1l0,0c0,0,0,0,0-0.1c0,0,0,0,0-0.1c0-0.1,0-0.1,0-0.2
		c0,0,0,0,0-0.1v0v0c0,0,0-0.1-0.1-0.1c0,0,0,0,0,0.1l0,0.1C12.9,8.2,12.8,8.2,12.9,8.3L12.9,8.3z M13,8.6L13,8.6V8.5c0,0,0,0,0,0
		c0,0,0,0,0,0l-0.1,0.1v0L13,8.6L13,8.6c-0.1,0.1-0.1,0.1-0.1,0.1c0,0,0,0,0,0C13,8.8,13,8.7,13,8.6L13,8.6z M12.9,5.3L12.9,5.3
		L12.9,5.3C13,5.4,13,5.4,13,5.4l0,0V5.3C13,5.3,13,5.3,12.9,5.3L12.9,5.3z M13.1,15.7C13.1,15.7,13.1,15.6,13.1,15.7L13.1,15.7
		L13,15.6v0L13.1,15.7L13.1,15.7L13.1,15.7z M13.1,9.7C13.1,9.7,13.1,9.7,13.1,9.7C13.1,9.7,13.1,9.7,13.1,9.7L13.1,9.7L13.1,9.7
		L13.1,9.7z M13.1,15.5C13.1,15.5,13.1,15.5,13.1,15.5C13.1,15.5,13.1,15.5,13.1,15.5C13.1,15.5,13.1,15.5,13.1,15.5L13.1,15.5z
		 M13.1,15.9c0.1,0,0.1-0.1,0-0.1C13.1,15.8,13.1,15.8,13.1,15.9C13.1,15.8,13.1,15.8,13.1,15.9z M13.2,9.1L13.2,9.1L13.2,9.1
		L13.2,9.1z M13.3,15.5L13.3,15.5L13.3,15.5L13.3,15.5z M13.5,14.1C13.5,14,13.5,14,13.5,14.1c-0.1-0.1-0.1,0-0.1,0c0,0,0,0.1,0,0.1
		C13.4,14.1,13.5,14.1,13.5,14.1L13.5,14.1z M13.5,6.4L13.5,6.4L13.5,6.4L13.5,6.4L13.5,6.4z M13.5,13.9
		C13.6,13.9,13.6,13.9,13.5,13.9c0.1-0.1,0.1-0.1,0-0.1C13.5,13.8,13.5,13.8,13.5,13.9C13.5,13.9,13.5,13.9,13.5,13.9z M13.6,7.2
		C13.6,7.3,13.6,7.3,13.6,7.2L13.6,7.2z M13.7,7.4c0,0-0.1,0.1-0.1,0.1C13.6,7.4,13.7,7.4,13.7,7.4z M13.6,8.1L13.6,8.1L13.6,8.1
		L13.6,8.1L13.6,8.1z M13.7,8.3L13.7,8.3L13.7,8.3L13.7,8.3z M13.7,8.5L13.7,8.5L13.7,8.5L13.7,8.5z M13.8,10.1
		C13.8,10.1,13.8,10.1,13.8,10.1L13.8,10.1C13.9,10.1,13.9,10.1,13.8,10.1C13.8,10.1,13.8,10.1,13.8,10.1z M13.9,10.6
		c0.1,0,0.1-0.1,0.1-0.1v-0.1l0,0h0c0,0-0.1,0.1-0.1,0.1L13.9,10.6L13.9,10.6C13.8,10.6,13.8,10.6,13.9,10.6z M13.8,9.3
		C13.8,9.3,13.8,9.3,13.8,9.3L13.8,9.3z M14,8C14,8,14,8,14,8C14,8,14,8,14,8L14,8L14,8z M14,8.1L14,8.1L14,8.1L14,8.1L14,8.1z
		 M14,9.7C14,9.7,14,9.7,14,9.7L14,9.7z M14.1,9L14.1,9L14.1,9L14.1,9L14.1,9z M14.1,9.2L14.1,9.2L14.1,9.2L14.1,9.2L14.1,9.2
		L14.1,9.2z M14.1,9.3L14.1,9.3L14.1,9.3L14.1,9.3L14.1,9.3L14.1,9.3z M14.2,9.7C14.1,9.7,14.1,9.7,14.2,9.7v0.1
		C14.2,9.8,14.1,9.8,14.2,9.7L14.2,9.7L14.2,9.7c-0.1-0.1-0.1-0.2-0.1-0.2v0c0,0,0,0,0.1,0v0C14.2,9.6,14.2,9.6,14.2,9.7L14.2,9.7z"
		/>
	<path d="M30.7,17.8c0,0,0,0.1,0.1,0.1c0,0.1,0,0.1,0,0.2l0,0.1c0,0.1,0,0.1,0,0.1c0,0.1-0.1,0.1-0.1,0.2s0,0.1,0,0.2
		c0,0.1,0,0.1-0.1,0.1l0,0c0,0-0.1,0.1-0.1,0.2l0.1,0.1l0,0c0,0.1-0.1,0.1-0.1,0.1c0,0-0.1,0-0.1,0.1c0,0,0,0.1,0.1,0.1h0
		c0,0,0.1,0,0.1,0s0,0,0,0c0,0-0.1,0-0.1,0c0,0-0.1,0-0.1,0c0,0,0,0-0.1,0c0,0,0,0-0.1,0c0,0,0,0-0.1,0v0l0.1,0c0,0.1,0,0.1,0,0.2
		c0,0.1-0.1,0.1-0.1,0.2c0,0,0,0.1,0,0.1c0,0,0,0.1,0,0.1c0,0,0,0,0,0.1c0,0-0.1,0.1-0.1,0.1c0,0.1-0.1,0.1-0.1,0.1h0
		c-0.1,0-0.1,0-0.1,0.1v0l0,0.1c0,0-0.1,0.1-0.1,0.1v0l0,0l0,0c-0.1,0-0.2,0-0.2,0.1c0,0-0.1,0-0.1,0.1c0,0-0.1,0.1-0.1,0.1
		c0,0.1-0.1,0.2-0.2,0.3c0,0-0.1,0-0.1,0c0,0-0.1,0-0.1,0c0,0,0-0.1,0.1-0.2l0.1-0.1c0.1-0.1,0.2-0.3,0.2-0.4c0,0,0-0.1,0-0.1
		c0.1-0.1,0.1-0.1,0.1-0.2c0-0.1,0-0.1,0.1-0.2l0-0.1c0.1-0.1,0.2-0.2,0.2-0.2c0,0,0-0.1,0-0.1h0.1v0c0,0,0.1,0,0.1,0
		c0.1,0,0.1-0.1,0.1-0.1c0,0-0.1-0.1-0.2-0.1c0,0,0,0,0,0c0,0,0,0,0-0.1v-0.1c0,0,0-0.1,0.1-0.2c0-0.1,0-0.1-0.1-0.1c0,0,0,0-0.1,0
		c0,0,0,0.1-0.1,0.1c0,0,0,0-0.1,0.1c0,0.1,0,0.1-0.1,0.2c0,0,0,0.1-0.1,0.2c0,0,0,0,0,0c0,0,0,0,0,0c0,0.1,0,0.1-0.1,0.2
		c0,0,0,0,0,0.1v0c0,0,0,0.1,0,0.1c-0.1,0.2-0.2,0.3-0.2,0.4c0,0.1-0.1,0.1-0.2,0.2c0,0,0,0.1-0.1,0.1s0,0-0.1,0.1l0,0l-0.2,0.1
		l-0.1,0.1c-0.1,0.2-0.2,0.3-0.1,0.3l-0.1,0.1l-0.1,0c0,0.1-0.1,0.1-0.1,0.1l0,0h0c0,0,0,0,0,0c0,0,0,0-0.1,0c-0.1,0-0.1,0,0,0.1
		c0,0.1,0,0.1-0.1,0.1L28,22.1c0,0.1-0.1,0.1-0.1,0.1c-0.1,0-0.1,0-0.1,0.1c0,0,0,0-0.1,0l-0.1,0c0,0-0.1,0-0.1,0.1
		c0,0.1-0.1,0.1-0.1,0.2s0,0,0,0c0.1-0.1,0.1,0,0.1,0v0c0,0-0.1,0.1-0.1,0.1c0,0-0.1,0-0.2,0c0,0-0.1,0-0.1,0c0,0,0,0.1,0,0.1
		c0,0,0,0.1-0.1,0.1l-0.1,0c-0.1,0-0.1,0.1-0.2,0.1c-0.1,0.1-0.2,0.2-0.3,0.3c0,0,0,0-0.1,0c0,0,0,0-0.1,0.1l-0.1,0h-0.1
		c-0.1,0-0.1,0.1-0.1,0.1v0l0,0c0,0,0,0.1,0,0.1l0,0c-0.1,0-0.1,0.1-0.1,0.1l0,0c-0.1,0-0.2,0-0.3,0.1c-0.1,0.1-0.1,0.1-0.2,0.1
		c-0.1,0-0.1,0-0.1,0.1v0.1c0,0.1,0,0.1-0.1,0.2l0,0.1h-0.1c-0.1,0-0.1,0-0.1,0c-0.1,0-0.1,0-0.1,0.1l0,0.1c0,0.1-0.1,0.2-0.2,0.2
		l-0.1,0.1c-0.1,0-0.1,0.1-0.3,0.1c0,0-0.1,0.1-0.1,0.1c0,0-0.1,0-0.1,0.1c0,0,0,0,0,0c0,0,0,0.1-0.1,0.1c0,0-0.1,0-0.1,0s0,0-0.1,0
		c0,0.1-0.1,0.1-0.1,0.1h0c0,0,0,0.1-0.1,0.1C23.7,26,23.7,26,23.6,26c0,0-0.1,0-0.1,0.1c0,0-0.1,0.1-0.1,0.1c0,0-0.1,0-0.1,0
		c0,0-0.1,0-0.1,0l-0.1,0.1l0,0c0,0,0,0-0.1,0.1c0,0-0.1,0.1-0.1,0.1s-0.1,0-0.2,0c-0.1,0-0.1,0-0.2,0c-0.1,0.1-0.2,0.1-0.2,0l0,0
		h-0.1c-0.1,0-0.1,0-0.1,0c0,0,0,0,0,0c0,0,0,0,0,0c0,0,0,0-0.1,0h0c0,0-0.1,0-0.1,0.1c0,0-0.1,0-0.1,0s-0.1,0-0.1,0s-0.1,0-0.1,0
		h-0.1c-0.1,0-0.2,0-0.3,0l-0.1,0.1c-0.1,0.1-0.1,0.1,0,0.2l0.1,0c0,0,0.1,0,0.1,0h0.1c0.1,0,0.2,0,0.1,0.1l0,0l0,0.1
		c0,0-0.1,0.1-0.1,0.1c-0.1,0-0.1,0.1-0.2,0c-0.1,0-0.1,0-0.1,0l0,0l-0.1,0.1c-0.2-0.1-0.2-0.1-0.1-0.1v0c0,0,0.1,0,0.1,0
		s0,0,0.1-0.1v0c0-0.1,0-0.1,0-0.2c0,0-0.1,0-0.1,0c-0.1,0-0.1,0-0.1,0h-0.1c0,0,0,0-0.1,0c0,0,0,0-0.1,0c0,0-0.1,0.1-0.1,0.1L20,27
		c0,0-0.1,0-0.1,0.1c0,0-0.1,0-0.1,0c0,0,0,0,0,0c0,0,0,0,0,0c0,0.1-0.1,0.1-0.1,0.1c0,0-0.1,0-0.1,0.1c0,0.1-0.1,0.1-0.2,0.1
		c0,0,0,0,0,0s0,0,0,0h0h0c0,0,0,0.1,0,0.1c0.1,0.1,0.1,0.1,0.1,0.1c0,0,0,0,0.1,0l0.1,0c0,0,0.1,0,0.1,0.1l-0.1,0
		c-0.1,0-0.1,0-0.1,0c-0.1,0.1-0.1,0.1-0.2,0l-0.1,0c-0.1,0-0.2,0-0.3-0.1h-0.1c0,0-0.1,0-0.1,0l0-0.1c-0.1,0-0.1,0.1-0.1,0.2
		l0.1,0.1l0.1,0.1c-0.1,0.1-0.1,0.1-0.1,0.1l0,0c0,0-0.1-0.1-0.2-0.1c-0.1,0-0.1,0-0.1,0H18h-0.1h-0.1h-0.1h-0.1c0,0,0,0,0,0v0
		c0,0,0-0.1-0.1-0.1c0,0,0,0,0,0c0,0,0,0.1,0.1,0.1l0,0c0,0,0,0,0,0l0,0c0,0-0.1,0.1-0.1,0.1h-0.1h-0.1c0,0-0.1,0-0.1,0c0,0,0,0,0,0
		h-0.1c0,0-0.1,0-0.1-0.1H17l0,0v0l0,0h0.1c0,0,0,0,0.1,0c0,0,0,0,0-0.1c0,0,0,0,0,0s0,0,0,0c-0.1-0.1-0.2-0.1-0.3-0.1h0
		c0,0,0,0,0,0v0.1c0,0,0,0,0,0c0,0,0,0,0,0v0c0,0,0,0-0.1,0.1c-0.1,0-0.1,0-0.1,0c0,0-0.1-0.1-0.2-0.1c-0.1,0-0.2-0.1-0.2-0.1
		c-0.1-0.1-0.1-0.1-0.1-0.2l0,0c0.1,0,0.1,0,0.2,0c0.1,0,0.1,0,0.2,0c0,0,0,0,0,0s0,0,0-0.1h0c-0.1,0-0.1,0-0.1,0c0,0-0.1,0-0.1-0.1
		l-0.1,0c0-0.1-0.1-0.1-0.1-0.1c0,0-0.1,0-0.2-0.1c-0.1-0.1-0.2-0.1-0.2-0.1c-0.1,0-0.2-0.1-0.2-0.2l0,0v0c-0.1-0.1-0.2-0.1-0.2-0.1
		h0h-0.1c0,0-0.1,0-0.1-0.1l0-0.1c0,0-0.1-0.1-0.1-0.1s-0.1,0-0.1,0h-0.1l0,0c0-0.1,0-0.1-0.1-0.1l-0.1,0c-0.1,0-0.2,0-0.3-0.1h-0.1
		l0,0c0,0,0,0-0.1,0.1S14,26,14,26c-0.1,0-0.1,0-0.1,0.1l0,0.1c0,0,0.1,0.1,0.1,0.1c0,0,0,0,0.1,0.1c0,0,0.1,0,0.1,0.1
		c0,0,0.1,0,0.1,0.1c0,0,0,0,0.1,0c0,0,0,0,0.1,0h0c0,0,0,0.1,0,0.1h0c0,0,0,0-0.1,0c0,0,0,0-0.1,0c-0.1-0.1-0.1-0.1-0.2-0.1
		c-0.1,0-0.1,0-0.1-0.1c0-0.1-0.1-0.1-0.1-0.2c-0.1-0.1-0.1-0.1-0.1-0.2c0-0.1,0-0.1-0.1-0.1c0,0-0.1-0.1-0.1-0.1c0,0,0,0-0.1,0h0
		c0,0,0,0,0,0c0,0,0,0-0.1-0.1l0,0v-0.1c0.1,0,0.1-0.1,0-0.1c0,0-0.1,0-0.1-0.1c-0.1,0-0.1-0.1-0.2-0.1c0,0-0.1-0.1-0.1-0.1
		c0,0-0.1-0.1-0.1-0.1c-0.1-0.1-0.2-0.2-0.2-0.2h0c0,0,0,0,0,0.1c0,0,0,0,0.1,0.1c0,0,0.1,0,0.1,0c0,0,0,0,0,0v-0.1c0,0,0-0.1,0-0.1
		c0,0-0.1-0.1-0.1-0.1c-0.1-0.1-0.1-0.1,0-0.1c0-0.1,0-0.1,0-0.1c0,0,0-0.1,0-0.1c0,0,0-0.1,0-0.1h0l-0.1-0.1c0,0,0,0,0-0.1
		s0,0,0-0.1l0,0c-0.1,0-0.1,0-0.1-0.1l-0.1-0.1l-0.1,0c0-0.1,0-0.2-0.1-0.2l0,0c0,0,0-0.1,0-0.1l0,0c0,0,0-0.1,0-0.1
		c0-0.1,0-0.1-0.1-0.1c0,0-0.1,0-0.1-0.1c0,0,0-0.1,0-0.1c0,0,0-0.1,0-0.1c0,0,0,0,0-0.1c0,0,0-0.1,0-0.1c0,0,0-0.1,0-0.1
		c0,0,0-0.1,0.1-0.3l0.1-0.1l0.1-0.1c0,0,0.1-0.1,0-0.1c0,0,0,0,0-0.1c0,0,0,0,0.1,0c0,0,0,0,0.1,0c0.1,0,0.1-0.1,0.1-0.2
		c0-0.1,0.1-0.2,0.2-0.3c0,0,0.1,0,0.1-0.1c0.1-0.2,0.2-0.2,0.3-0.2h0V21V21c0,0,0-0.1,0.1-0.2l0.1-0.1c0,0,0,0,0,0s0,0,0,0
		c0,0,0,0,0.1,0c0-0.1,0.1-0.1,0.2-0.2c0.1,0,0.1,0,0.2,0c0.1,0,0.1-0.1,0.1-0.1c0-0.1,0-0.1,0-0.1l0.1-0.1c0,0,0,0,0.1-0.1
		c0,0,0.1-0.1,0.1-0.1l0.1-0.1l0.1-0.1c0.1-0.1,0.2-0.1,0.2-0.1c0,0,0,0,0,0c0,0,0,0,0,0c0.1-0.1,0.2-0.1,0.3-0.3c0,0,0.1,0,0.1-0.1
		c0,0,0,0,0.1-0.1c0,0,0.1,0,0.1-0.1c0,0,0.1-0.1,0.1-0.1c0.1,0,0.1-0.1,0.2-0.1c0.1,0,0.1-0.1,0.2-0.1c0,0,0.1-0.1,0.1-0.1
		c0,0,0.1,0,0.1-0.1l0,0c0.1,0,0.1-0.1,0.2-0.1c0,0,0.1-0.1,0.2-0.1l0.1-0.1c0.1,0,0.1-0.1,0.2-0.1c0.1,0,0.1-0.1,0.2-0.1l0.1-0.1
		l0.1,0c0.1-0.1,0.1-0.1,0.1,0v0l0,0c0,0,0,0,0,0.1v0c0.1,0,0.2-0.1,0.2-0.1c0.1,0,0.1-0.1,0.2-0.1c0.1,0,0.1-0.1,0.2-0.1
		c0,0,0.1,0,0.1,0c0.1,0,0.2-0.1,0.3-0.1c0,0,0.1-0.1,0.1-0.1c0.1,0,0.1-0.1,0.1-0.1l0.1,0c0,0,0.1,0,0.1-0.1c0,0,0,0,0.1-0.1
		c0-0.1,0.1-0.1,0.2-0.1l0,0c0.1,0,0.1,0,0-0.1h-0.1c-0.1,0-0.1,0-0.1,0.1l0,0h-0.1c-0.2,0.1-0.2,0.1-0.2,0.1h0c0,0,0,0,0,0
		c0.1,0,0.1-0.1,0.2-0.1c0,0,0.1,0,0.2,0c0,0,0,0,0,0s0,0,0,0c0.1,0,0.1-0.1,0.2-0.1c0.1,0,0.1-0.1,0.2-0.1c0,0,0.1,0,0.1-0.1
		c0,0,0.1,0,0.1,0c0,0,0.1,0,0.1,0c0,0,0,0,0.1,0l0.1,0c0.1,0,0.1,0,0.2,0l0,0c0,0,0,0,0,0c0,0,0,0,0,0c0,0,0,0,0,0s0,0,0,0v-0.1
		c0,0,0,0,0,0h-0.1c-0.1,0-0.1,0,0,0h0c0,0,0.1,0,0.2-0.1c0.1,0,0.1,0,0.2-0.1h0.1c0,0,0.1,0,0.2-0.1c0,0,0.1-0.1,0.1-0.1
		c0.1,0,0.2,0,0.2-0.1c0.1,0,0.1-0.1,0.2-0.1c0.1,0,0.1,0,0.2-0.1c0.1,0,0.2-0.1,0.3-0.1c0.1,0,0.2-0.1,0.3-0.1c0.1,0,0.2,0,0.2-0.1
		c0.1,0,0.1,0,0.2-0.1c0.1,0,0.2-0.1,0.3-0.1c0.1,0,0.2-0.1,0.3-0.1c0,0,0.1,0,0.1,0c0.1,0,0.1-0.1,0.2-0.1c0.1,0,0.1,0,0.2,0
		c0.1,0,0.1,0,0.2,0c0.1,0,0.1,0,0.2-0.1l0,0c0,0,0.1,0,0.1,0.1h0c-0.1,0-0.2,0-0.2,0.1s0,0.1-0.1,0.1c0,0.1-0.1,0.1-0.1,0.1h0
		c0,0,0,0,0,0c0,0,0,0,0,0c0,0.1-0.1,0.1-0.3,0.1l-0.2,0.1c0,0-0.1,0-0.2,0.1c-0.1,0-0.1,0-0.2,0h-0.1c0,0.1-0.1,0.1-0.2,0.1
		l-0.1,0.1c-0.1,0.1-0.2,0.1-0.3,0.1c-0.1,0-0.1,0.1-0.1,0.1c-0.1,0-0.1,0-0.1,0c-0.1,0-0.1,0-0.2,0.1c0,0.1-0.1,0.1-0.3,0.2l0,0
		c0,0-0.1,0.1-0.1,0.1c0,0-0.1,0-0.1,0.1c0,0,0,0,0,0v0l0.1,0.1l0.1,0c0,0,0.1,0,0.1,0c0,0,0,0,0.1,0c0,0,0.1,0,0.1,0
		c0.1,0,0.1-0.1,0.2-0.1c0,0,0,0,0.1,0.1c0,0,0,0,0.1,0c0,0,0.1,0,0.1,0.1h0c0,0,0,0-0.1,0c-0.1,0-0.2,0.1-0.3,0.1c0,0-0.1,0-0.1,0
		c-0.1,0-0.1,0.1-0.1,0.1v0c0,0.1,0,0.1,0.1,0.1l0.1,0l0,0c0,0,0,0,0,0.1c0,0-0.1,0-0.1,0c0,0,0,0-0.1,0c0,0-0.1,0.1-0.1,0.1
		c0,0-0.1,0-0.1,0l0,0c-0.1,0.1-0.1,0.1-0.3,0.1c0,0-0.1,0-0.2,0.1c-0.1,0-0.1,0-0.2,0.1c0,0-0.1,0.1-0.1,0.1
		c-0.1,0.1-0.1,0.1-0.2,0.1h0c-0.1,0.1-0.1,0.1-0.1,0.1c0,0,0,0.1-0.1,0.1l-0.1,0c0,0,0,0,0,0c0,0,0,0,0,0h0c0,0-0.1,0.1-0.1,0.1
		c0,0-0.1,0-0.1,0.1l-0.1-0.1c-0.2,0.1-0.2,0.2-0.2,0.2c0,0,0,0-0.1,0.1l-0.1,0c0,0-0.1,0-0.1,0s0,0-0.1,0c0,0-0.1,0-0.1,0
		s0,0-0.1,0c-0.1,0-0.1,0.1-0.3,0.1c0,0-0.1,0.1-0.2,0.2c-0.1,0-0.1,0.1-0.1,0.1c0,0,0,0,0,0.1h-0.1c-0.1,0-0.1,0.1-0.1,0.2v0.1
		c0,0,0,0,0,0l-0.1-0.1l-0.1,0l0,0c-0.1,0-0.1,0-0.1,0.1v0v0c0,0-0.1,0-0.1,0c0,0,0,0-0.1,0c0,0,0,0,0,0c0,0.1,0,0.1,0.1,0.1l0,0
		l0-0.1c0,0,0,0,0-0.1c0,0,0,0,0-0.1c0,0,0,0,0,0H17l0.1-0.1l0,0c0,0,0,0,0,0s0,0,0,0l0,0v0l0.1,0c0,0.1-0.1,0.1-0.1,0.1
		c-0.1,0-0.1,0.1-0.2,0.1c0,0-0.1,0.1-0.1,0.1c0,0,0,0-0.1,0c-0.2,0.1-0.3,0.2-0.3,0.3l-0.1,0.1c-0.1,0-0.2,0.1-0.2,0.2
		c-0.1,0.1-0.2,0.1-0.2,0.2c0,0-0.1,0-0.1,0l0,0v0h0l0,0h-0.1l0,0c0,0-0.1,0.1-0.1,0.2c0,0,0,0,0,0.1h0L15.7,21c-0.1,0-0.1,0-0.2,0
		h0l-0.1,0c0,0,0,0-0.1,0c-0.1,0-0.1,0.1-0.2,0.1c0,0-0.1,0.1-0.1,0.1s0,0.1,0,0.1c0,0,0,0.1-0.1,0.1l0,0c0,0,0,0.1,0,0.1l0.1,0l0,0
		c0,0,0.1,0,0,0c0,0,0,0.1,0,0.1c-0.1,0.1-0.1,0.1-0.1,0l-0.1,0h0c0,0-0.1,0-0.1,0v0v0l-0.1,0l0,0c0,0-0.1,0.1-0.1,0.1
		c-0.1,0.1-0.1,0.1-0.1,0.2c0,0,0,0-0.1,0.1c-0.1,0-0.1,0-0.1,0c-0.1,0-0.1-0.1-0.1-0.1l0.1,0c0.1,0,0.1,0,0.1-0.1c0,0-0.1,0-0.1,0
		l-0.1,0.1c0,0.1-0.1,0.2-0.2,0.2c0,0-0.1,0.1-0.1,0.1c0,0,0,0-0.1,0.1c0,0,0,0,0,0s0,0,0,0l0,0c0,0,0,0,0,0c0,0,0,0,0,0l0,0
		c0,0,0,0-0.1,0c0,0,0,0.1-0.1,0.1l0,0v0.1v0.1l0,0h-0.1v0.1l0,0c0.1,0,0.1,0,0.1-0.1c0,0,0,0,0,0v-0.1v-0.1c0,0,0,0,0,0
		c0,0,0,0,0,0s0,0,0,0c0,0,0.1,0,0.1-0.1l0-0.1l0.1-0.1c0,0,0.1,0,0.1,0s0.1,0,0.1,0c0,0,0,0-0.2,0.1l0,0.1v0.1
		c0,0.1-0.1,0.1-0.1,0.1v0c0,0-0.1,0-0.1,0c0,0,0,0,0,0.1c0,0,0,0.1,0.1,0.2c0,0,0,0.1,0,0.1c0,0.1-0.1,0.1-0.1,0.2
		c0,0.1,0,0.2,0,0.2v0c0,0,0,0,0,0.1c0,0,0,0,0,0c0,0,0,0.1,0,0.1l0,0c0,0,0,0,0,0.1l0,0.1c0.1,0,0.2,0,0.2,0h0c0,0,0,0,0,0.1
		s0,0,0,0.1c0,0,0,0,0,0.1c0,0,0,0.1,0,0.1l0.1,0c0,0,0.1,0,0.1,0V24c0,0-0.1-0.1-0.1-0.2c0,0,0,0,0,0l0.1-0.1l0.1,0
		c0,0,0.1,0,0.1,0c0,0,0-0.1,0-0.1l0,0c0,0,0-0.1,0-0.1c0-0.1,0-0.1,0-0.2c0-0.1,0-0.1,0.1-0.2l0,0l0,0l0.1,0c0.1-0.1,0.1-0.1,0.1,0
		c0,0,0,0,0,0c0,0,0,0-0.1,0c0,0,0,0,0,0.1c0,0,0.1,0.1,0.1,0.2c0,0,0,0,0,0.1c-0.1,0.2,0,0.3,0.1,0.3c0,0,0,0,0,0.1
		c0,0.1,0,0.2,0.1,0.2c0.1,0.1,0.1,0.1,0.2,0.1c0.1,0,0.1,0,0.1,0c0,0,0.1,0.1,0.1,0.1l0,0h0c0,0,0,0.1,0.1,0.1c0.1,0,0.1,0,0.2,0.1
		l0.1,0c0.1,0,0.1,0,0.1,0c0.1,0.1,0.3,0.1,0.4,0.1l0,0c0.1,0,0.2,0.1,0.3,0.1h0.1c0.2,0,0.3,0.1,0.4,0.1H17c0,0,0,0,0,0
		c0,0,0,0,0,0l0.1,0c0,0,0,0,0.1-0.1c0,0,0,0,0.1,0c0,0,0,0,0.1-0.1h0c0,0,0.1,0,0.1,0c0,0,0.1,0,0.1,0c0,0,0,0,0.1,0.1l0,0.1
		c0.1-0.1,0.1-0.1,0.2-0.1c0,0,0,0,0.1,0.1h0c0,0,0,0,0.1,0c0.2,0.1,0.4,0.1,0.6,0c0.1,0,0.2,0,0.3-0.1c0.1,0,0.2,0,0.2,0
		c0,0,0.1,0,0.2-0.1l0.1-0.1c0.2,0,0.3-0.1,0.5-0.1c0.2-0.1,0.4-0.1,0.5-0.2c0.1,0,0.2-0.1,0.3-0.1c0.1,0,0.1,0,0.2,0
		c0,0,0.1,0,0.2-0.1l0,0c0-0.1,0-0.1-0.1-0.1l-0.1,0l-0.1,0c-0.1,0-0.1-0.1-0.1-0.1h0h0.1c0.1,0,0.1,0,0.2,0c0.1,0,0.1,0,0.1-0.1
		c0,0,0.1-0.1,0.1-0.1s0.1,0,0.2-0.1c0.1,0,0.2-0.1,0.3-0.1c0.1,0,0.2-0.1,0.3-0.1c0.1-0.1,0.2-0.1,0.3-0.1s0.2-0.1,0.3-0.1
		c0,0,0.1,0,0.1,0c0,0,0.1,0,0.1-0.1c0,0,0.1-0.1,0.1-0.1c0,0,0.1,0,0.1-0.1c0,0,0.1-0.1,0.1-0.1c0.1,0,0.1-0.1,0.2-0.1
		c0,0,0-0.1-0.1-0.1c0,0,0,0,0-0.1l0,0c0.1,0,0.1-0.1,0.2-0.1c0.1,0,0.1-0.1,0.2-0.1c0.1,0,0.1-0.1,0.1-0.1c0,0,0.1-0.1,0.1-0.1
		c0,0,0.1-0.1,0.1-0.1c0.1-0.1,0.2-0.1,0.3-0.2c0.1-0.1,0.2-0.1,0.3-0.2l0.1-0.1c0,0,0-0.1,0.1-0.1c0,0,0.1,0,0.1-0.1l0,0h0v0h0v0
		l0-0.1l0.1-0.1c0,0,0,0,0.1-0.1c0.1,0,0.1,0,0.1-0.1s0.1-0.1,0.1-0.1c0,0,0.1,0,0.1-0.1c0,0,0,0,0,0s0,0,0.1,0
		C26,21,26,20.9,26,20.8c0-0.1,0.1-0.1,0.2-0.2c0.1-0.1,0.1-0.2,0.2-0.2c0.1-0.1,0.1-0.2,0.2-0.2c0.1-0.1,0.2-0.2,0.3-0.4
		c0.1-0.1,0.2-0.3,0.3-0.4c0.1-0.1,0.1-0.2,0.2-0.4c0-0.1,0.1-0.2,0.1-0.3c0-0.1,0.1-0.2,0.1-0.3c0,0,0,0,0-0.1c0-0.1,0-0.1,0-0.2
		c0-0.1,0-0.1,0.1-0.2c0,0,0-0.1,0-0.1c0,0,0-0.1,0.1-0.1c0,0,0,0,0-0.1c0-0.1,0-0.1,0-0.2c0,0,0-0.1,0-0.1c0,0,0-0.1,0-0.1
		c0,0,0-0.1,0-0.1c0-0.1,0-0.1,0.1-0.2c0-0.1,0.1-0.1,0.1-0.2c0-0.1,0-0.1,0-0.2v-0.3c0,0,0-0.1,0-0.1c0-0.1,0-0.1,0-0.2
		s0-0.1,0-0.2c0-0.1,0-0.2-0.1-0.4c0,0,0,0,0,0c0,0,0,0,0,0c-0.1-0.1-0.1-0.2-0.1-0.3c0,0-0.1-0.1-0.1-0.1c0,0,0-0.1-0.1-0.1
		c0-0.1-0.1-0.1-0.1-0.2c-0.1,0-0.1-0.1-0.1-0.2c0,0,0-0.1-0.1-0.1c0,0,0,0,0-0.1c-0.1-0.1-0.1-0.1-0.2-0.2c0-0.1-0.1-0.1-0.2-0.2
		c-0.1-0.1-0.2-0.1-0.2-0.2c-0.1-0.1-0.1-0.1-0.2-0.2c0,0-0.1-0.1-0.1-0.1c0,0-0.1,0-0.1-0.1c0,0-0.1-0.1-0.1-0.1c0,0-0.1,0-0.1-0.1
		c-0.1-0.1-0.2-0.1-0.3-0.2c-0.1,0-0.2-0.1-0.3-0.1c-0.1,0-0.2-0.1-0.2-0.1c-0.1,0-0.2-0.1-0.3-0.1h0c0,0-0.1,0-0.2,0
		c-0.1,0-0.1,0-0.2,0h-0.1c0,0,0,0,0,0l0,0v-0.1c0,0-0.1,0-0.1,0c0,0-0.1,0-0.1,0h0c0,0,0,0-0.1,0s-0.1,0-0.1,0
		c-0.1,0-0.1,0-0.1,0.1v0.1v0.1c0,0,0,0.1-0.1,0.1H24h-0.1c-0.1,0-0.2,0-0.3,0.1l-0.1,0c0,0,0,0-0.1,0c0,0-0.1,0-0.1,0
		c0,0,0,0-0.1,0c-0.1,0.1-0.2,0.1-0.3,0.1c-0.1,0-0.1,0-0.1,0c0,0-0.1,0.1-0.1,0.1s0,0-0.1,0c0,0,0,0-0.1,0
		c-0.2,0.1-0.3,0.1-0.3,0.1h0h-0.1l-0.1,0.1c0,0-0.1,0-0.1,0c0,0-0.1,0-0.1,0c0,0,0,0-0.1,0c-0.1,0-0.2,0-0.2,0
		c-0.1,0-0.3,0-0.4,0.1c0,0,0,0-0.1,0c0,0,0,0-0.1,0s0,0-0.1,0h0c-0.1,0-0.1,0-0.2,0c0,0-0.1,0.1-0.1,0.1l0,0h0c0,0,0,0-0.1,0
		c0,0,0,0-0.1,0l0-0.1c0,0,0-0.1,0-0.2l0-0.1c0,0,0-0.1,0-0.1c0,0-0.1-0.1-0.1-0.1c-0.1,0.1-0.1,0.1-0.1,0.1l0,0
		c0,0.1-0.1,0.1-0.1,0c0,0,0-0.1,0-0.1v-0.1c0,0-0.1-0.1,0-0.2c0-0.1,0-0.1,0.1-0.2c0.1,0,0-0.1,0-0.1l0,0c-0.1,0-0.1-0.1-0.1-0.2
		s0-0.2-0.1-0.2c0,0,0-0.1,0-0.1c0-0.1,0-0.2-0.1-0.2l-0.1-0.1c0,0-0.1-0.1-0.1-0.1s0-0.1,0-0.1h0c0.1-0.1,0.1-0.1,0.1-0.2v0
		c0,0,0,0-0.1,0c-0.1,0-0.1,0-0.1,0c0,0,0,0-0.1,0h0v0c0,0,0.1-0.1,0.1-0.1c0,0,0-0.1,0.1-0.1c0.1-0.1,0.1-0.1,0.1-0.2
		c0,0,0-0.1,0.1-0.1l0,0c0,0,0.1,0,0.1-0.1l0.1-0.1H20c0.1,0,0.1-0.1,0.2-0.2c0,0,0.1-0.1,0.1-0.1h0.1c0.1-0.1,0.1-0.1,0-0.2v0
		c0,0,0,0,0-0.1h0.1h0.1c0,0,0.1-0.1,0.1-0.1c0-0.1,0-0.1,0.1-0.1c0.1-0.1,0-0.1-0.1-0.1c-0.1,0-0.1,0-0.1-0.1h0
		c0.1,0,0.1,0,0.2-0.1c0.1,0,0.1,0,0.2,0c0,0,0.1,0,0.1-0.1c0-0.1,0.1-0.1,0.1-0.1h0.1c0.1-0.1,0.1-0.2,0-0.1h0c-0.1,0-0.1,0-0.1,0
		h-0.1c0,0,0,0,0,0c0,0,0-0.1,0.1-0.1l0,0c0,0,0,0,0.1,0c0,0,0,0,0.1-0.1c0.1-0.1,0.2-0.1,0.2-0.3c0,0,0-0.1,0.1-0.1
		c0.1,0,0.2-0.1,0.2-0.2c0-0.1,0.1-0.1,0.2-0.2l0.2-0.2c0,0,0-0.1,0.1-0.1s0,0,0.1-0.1c0-0.1,0-0.2,0.1-0.2c0,0,0,0,0-0.1
		c0,0,0,0,0-0.1c0,0,0,0,0-0.1c0,0,0,0,0.1-0.1c0.1-0.1,0.2-0.2,0.2-0.3c0,0,0-0.1,0.1-0.1c0,0,0.1,0,0.1-0.1c0.1,0,0.1-0.1,0.1-0.1
		c0-0.1,0.1-0.1,0.1-0.1c0.1,0,0.1-0.1,0.1-0.1c0,0,0.1-0.1,0.1-0.1c0,0,0,0,0,0s0,0,0,0c0,0,0-0.1,0-0.1c0,0,0.1-0.1,0.1-0.2
		l0.1-0.1c0.1,0,0.1-0.1,0.2-0.2c0,0,0.1-0.1,0.1-0.2V5.9l0-0.1c0.1,0,0.1,0,0.1,0.1c0,0,0,0,0.1,0l0.1,0h0c0.1,0,0.1,0,0.2-0.1
		c0-0.1,0-0.1,0-0.1c0-0.1,0-0.1,0.1-0.1c0,0,0.1,0,0.1,0c0,0,0,0,0.1,0c0,0,0,0,0.1,0l0,0l0,0c0,0,0,0,0.1,0v0l0.1,0
		c0,0,0.1,0.1,0.1,0.1c0,0,0.1,0,0.1,0c0.1,0,0.1,0,0.1,0l0.1,0c0,0,0,0.1,0.1,0.1s0,0,0.1,0.1c0,0,0.1,0.1,0.1,0.1
		c0,0,0.1,0.1,0.1,0.1c0,0,0,0,0.1,0c0.1,0,0.1,0,0.2,0c0,0,0,0,0,0c0,0,0,0,0,0c0,0,0,0,0,0h-0.1H26h0c0,0,0,0-0.1,0h-0.1
		c0,0,0,0-0.1,0l0,0c-0.1,0.1-0.1,0.1-0.2,0.2l0,0c0,0,0,0.1-0.1,0.2v0h0h0c0.1,0,0.1,0,0.1,0.1h-0.1l0,0c-0.1,0-0.1,0-0.1,0l-0.1,0
		V7v0.1c-0.1,0-0.1,0-0.1,0h0v0.1l0,0v0.1l-0.1,0.1C25,7.4,25,7.4,25,7.5c0,0,0,0,0.1,0c0,0,0.1,0,0.1,0c0,0,0.1,0,0.1,0.1l0.1,0.1
		c0.1,0,0.1,0,0.2,0c0-0.1,0.1-0.2,0.3-0.3l0,0c0,0,0.1,0,0.1,0.1L26,7.5l0,0.1c0.1,0,0.1,0,0.1,0v0l0-0.1c0.1-0.1,0.1-0.2,0.3-0.3
		l0.1,0h0c0,0,0.1,0,0.1,0c0,0,0,0,0.1,0.1l0,0.1c0,0.1,0,0.1-0.1,0.2l-0.1,0.1c0,0-0.1,0.1-0.1,0.1c0,0-0.1,0.1-0.1,0.1
		c0,0,0,0,0,0.1c0,0,0,0.1,0,0.1c0,0,0,0,0.1,0c0,0,0.1,0,0.1,0c0,0,0,0,0,0.1s-0.1,0.1-0.1,0.1c0,0.1-0.1,0.1-0.1,0.1v0v0
		c0,0,0-0.1-0.1-0.1l0,0h0c0,0,0,0-0.1,0c0,0,0,0,0,0c-0.1,0-0.1,0-0.2-0.1l-0.1,0.1l-0.1,0c0,0-0.1,0-0.1,0c0,0,0,0-0.1,0
		c0,0-0.1,0-0.1,0c0,0,0,0-0.1,0c-0.1,0-0.1,0-0.1,0.1l0,0c0,0,0,0,0,0.1c0,0,0,0-0.1,0.1l-0.1,0.1c0,0.1,0,0.1-0.1,0.1l0,0
		c0,0-0.1,0-0.1,0.1c0,0.1-0.1,0.1-0.2,0.2c-0.1,0.1-0.1,0.1-0.2,0.2l-0.1,0.1c-0.1,0.1-0.2,0.2-0.2,0.3l-0.1,0.1c0,0-0.1,0-0.1,0
		c0,0.1-0.1,0.1-0.2,0.2c-0.1,0-0.1,0.1-0.2,0.2c0,0,0,0.1-0.1,0.1s-0.1,0-0.1,0.1h0c-0.1,0-0.1,0-0.2,0s-0.1,0.1-0.1,0.1L23.5,10
		c0,0-0.1,0-0.1,0.1c0,0,0,0.1-0.1,0.1c0,0,0,0.1-0.1,0.1c0,0-0.1,0.1-0.1,0.1c0,0,0,0-0.1,0c0,0,0,0.1,0,0.1c0,0,0,0,0.1,0
		c0,0,0.1,0,0.1,0v0c0,0-0.1,0-0.1,0.1c0,0-0.1,0-0.1,0.1h0c0,0,0,0-0.1,0s0,0,0,0v0.1c0,0,0,0.1,0,0.1l0,0c0.1,0.1,0.1,0.1,0.1,0
		c0.1,0,0.2,0,0.4,0c0.1,0,0.1,0,0.1,0c0.1,0,0.1,0,0.1,0c0,0,0,0,0.1,0c0.1,0,0.2,0,0.2,0c0.1,0,0.2,0,0.3,0h0.1c0,0,0.1,0,0.1,0
		c0.1,0,0.1,0,0.2,0c0.1,0,0.2,0.1,0.3,0.1c0.1,0,0.1,0,0.2,0c0.1,0,0.2,0.1,0.3,0.1c0.1,0,0.2,0.1,0.3,0.1c0.1,0,0.1,0.1,0.2,0.1
		c0.1,0,0.1,0,0.2,0.1c0.1,0,0.1,0.1,0.2,0.1c0,0,0.1,0,0.1,0.1c0,0,0,0.1,0.1,0.1c0.1,0,0.1,0,0.2,0.1c0.1,0.1,0.2,0.1,0.3,0.2
		c0.2,0.1,0.3,0.2,0.3,0.2c0.1,0.1,0.1,0.1,0.2,0.2c0,0,0.1,0.1,0.1,0.1c0.1,0,0.2,0.1,0.2,0.2c0,0,0.1,0.1,0.2,0.1l0,0.1l0,0
		c0.1,0,0.1,0,0.1,0s0,0.1,0.1,0.1l0.1,0.1c0,0,0.1,0.1,0.1,0.1c0,0,0.1,0.1,0.1,0.1l0.1,0.1l0.1,0c0.1,0.1,0.1,0.2,0.1,0.2v0
		c0,0,0,0.1,0,0.1c0,0,0.1,0,0.1,0v0c0,0,0,0,0.1,0l0,0c0,0,0.1,0.1,0.1,0.1c0,0,0.1,0.1,0.1,0.1l0.1,0.1c0,0,0,0.1,0.1,0.1
		c0,0,0.1,0.1,0.2,0.1l0.1,0.1v0c0.1,0.1,0.1,0.2,0.1,0.2l0,0.1c0,0,0,0.1,0,0.1l0.1,0.1c0,0,0.1,0.1,0.1,0.1c0,0,0,0.1,0,0.1
		c0,0,0,0,0,0.1c0,0,0.1,0.1,0.1,0.1c0.1,0,0.1,0.1,0.1,0.3l0.1,0.1l0,0c0,0-0.1,0.1-0.1,0.1l0,0c0,0,0,0.1,0,0.2c0,0,0.1,0,0.1,0
		l0,0c0-0.1,0.1-0.1,0.1-0.1v-0.1c0-0.1,0-0.1,0.1-0.1v0.1v0.1c-0.1,0.1-0.1,0.1,0,0.2c0,0,0,0.1,0,0.1v0l0,0v0.1l0.1,0l0,0
		c0,0,0,0,0,0.1c0,0,0,0.1,0,0.1l-0.1,0.1c-0.1,0-0.1,0-0.1,0.1v0c0,0,0,0,0.1,0s0.1,0,0.1,0c0,0,0,0,0,0c0,0,0,0,0,0v0
		c0,0,0,0,0,0.1v0c0,0,0.1,0.1,0.1,0.1c0.1,0.2,0,0.2-0.1,0.3l0,0c0,0-0.1,0-0.1,0.1v0v0c0,0,0,0.1,0,0.1l0.1,0
		c0.1,0,0.1,0.1,0.1,0.1V17.8L30.7,17.8z M12.2,23.5C12.2,23.5,12.2,23.5,12.2,23.5C12.2,23.5,12.2,23.5,12.2,23.5L12.2,23.5z
		 M12.3,24.2L12.3,24.2L12.3,24.2C12.4,24.2,12.4,24.2,12.3,24.2z M12.5,24.7L12.5,24.7L12.5,24.7L12.5,24.7z M12.9,24.6L12.9,24.6
		L12.9,24.6h0.1v-0.1c0,0,0,0,0,0v0h0h0v0C13.1,24.5,13.1,24.6,12.9,24.6L12.9,24.6C13,24.6,13,24.6,12.9,24.6
		C12.9,24.6,12.9,24.6,12.9,24.6z M13.1,25.1C13.1,25,13.1,25,13.1,25.1l0-0.1c0,0,0,0,0,0s0,0,0,0h0l0,0v0c0,0,0,0,0.1,0
		C13,25,13,25,13.1,25.1L13.1,25.1z M13.1,23.4C13.1,23.4,13.1,23.4,13.1,23.4L13.1,23.4L13.1,23.4L13.1,23.4z M13.5,22.2
		c0-0.1,0.1-0.1,0.1-0.1l0.3-0.3c0.1,0,0.1-0.1,0.3-0.2c0,0,0.1-0.1,0.1-0.1c0.1-0.1,0.2-0.2,0.2-0.2c0-0.1,0-0.1-0.1-0.1l0,0
		c-0.1,0-0.1,0-0.1,0l0,0c-0.1,0-0.1,0-0.2,0.1L14,21.3c-0.1,0.1,0,0.1,0,0.1c0,0,0,0,0,0.1l0,0c0,0-0.1,0-0.1,0
		c-0.1,0.1-0.2,0.1-0.2,0.2c0,0.1-0.1,0.1-0.1,0.1c0,0-0.1,0.1-0.1,0.1c-0.1,0-0.1,0.1-0.1,0.1c0,0-0.1,0.1-0.1,0.1s0,0.1,0,0.1v0.1
		C13.3,22.3,13.3,22.3,13.5,22.2L13.5,22.2z M13.4,25.4C13.5,25.4,13.5,25.4,13.4,25.4L13.4,25.4L13.4,25.4L13.4,25.4z M13.4,24.4
		L13.4,24.4L13.4,24.4L13.4,24.4z M13.4,26C13.5,26,13.5,26,13.4,26L13.4,26L13.4,26L13.4,26C13.4,26,13.4,26,13.4,26z M13.5,22.4
		C13.5,22.4,13.5,22.4,13.5,22.4C13.5,22.4,13.5,22.3,13.5,22.4l0.1-0.1L13.5,22.4L13.5,22.4C13.5,22.4,13.5,22.4,13.5,22.4z
		 M13.6,22.5L13.6,22.5C13.5,22.5,13.5,22.5,13.6,22.5c-0.1-0.1-0.1-0.1-0.1-0.1C13.5,22.4,13.5,22.4,13.6,22.5L13.6,22.5L13.6,22.5
		z M14.2,25.7c0,0,0-0.1,0-0.1c0,0,0-0.1,0-0.1c0,0-0.1-0.1-0.1-0.1s-0.1,0-0.1,0c0,0-0.1,0-0.1-0.1l-0.1-0.1c0,0-0.1-0.1-0.1-0.1
		c0,0-0.1,0.1-0.1,0.1v0c0,0.1,0,0.1-0.1,0.1c0,0,0,0,0,0.1l0,0c0.1,0,0.1,0,0.1,0c0,0,0.1,0.1,0.1,0.1v0c0,0.1,0.1,0.1,0.3,0.2
		L14.2,25.7z M13.5,22.3L13.5,22.3c0.1,0,0.1,0,0.1-0.1l0,0l0,0C13.7,22.2,13.6,22.3,13.5,22.3L13.5,22.3z M13.9,25.2
		C13.8,25.2,13.8,25.2,13.9,25.2L13.9,25.2C13.9,25.3,13.9,25.3,13.9,25.2C14,25.2,14,25.2,13.9,25.2L13.9,25.2z M13.8,24.6
		C13.8,24.7,13.8,24.7,13.8,24.6L13.8,24.6L13.8,24.6C13.9,24.6,13.8,24.6,13.8,24.6z M13.9,22.6L13.9,22.6L13.9,22.6L13.9,22.6
		L13.9,22.6z M13.9,22.6L13.9,22.6L13.9,22.6L13.9,22.6L13.9,22.6z M14.2,26C14.2,26,14.2,26,14.2,26C14.2,26,14.2,26,14.2,26
		C14.2,26,14.2,26,14.2,26L14.2,26L14.2,26z M14.2,22c0,0,0.1,0,0.1,0c0.1,0,0.1,0.1,0,0.1c-0.1,0.1-0.1,0.1-0.2,0
		C14.2,22.1,14.2,22.1,14.2,22z M14.2,25.3L14.2,25.3L14.2,25.3L14.2,25.3L14.2,25.3L14.2,25.3z M14.5,25.5
		C14.5,25.4,14.5,25.4,14.5,25.5L14.5,25.5L14.5,25.5L14.5,25.5z M15.3,26.8L15.3,26.8C15.4,26.8,15.3,26.8,15.3,26.8
		c-0.2,0-0.2,0-0.3,0c0,0-0.1,0-0.1-0.1l-0.1-0.1c0,0-0.1,0-0.1,0c-0.1,0-0.1,0-0.1,0c0,0-0.1,0-0.1,0s0,0,0-0.1h0l0,0
		c0-0.1,0-0.1,0.1,0l0.1,0c0,0,0.1,0,0.1,0c0,0,0,0,0.1,0l0.1,0c0,0,0.1,0.1,0.1,0.1C15.3,26.7,15.3,26.7,15.3,26.8L15.3,26.8z
		 M14.7,21.6L14.7,21.6c0.1-0.1,0.1-0.1,0.2,0c0,0,0,0,0,0.1c0,0,0,0.1-0.1,0.1h-0.1c0,0,0,0-0.1,0L14.7,21.6L14.7,21.6z M14.7,21.1
		L14.7,21.1C14.7,21.1,14.7,21,14.7,21.1L14.7,21.1z M14.7,21.6L14.7,21.6l0.1-0.1L14.7,21.6L14.7,21.6z M14.7,20.9L14.7,20.9
		c0,0.1,0,0.1,0.1,0.1c0,0,0.1-0.1,0.1-0.1c0,0,0.1,0,0.1-0.1c0,0,0.1,0,0.1-0.1c0,0,0,0-0.1,0c0,0-0.1,0-0.1,0.1L14.7,20.9
		C14.7,20.9,14.7,20.9,14.7,20.9z M14.8,22.7C14.7,22.7,14.7,22.7,14.8,22.7C14.7,22.7,14.7,22.7,14.8,22.7L14.8,22.7
		C14.8,22.7,14.8,22.7,14.8,22.7z M14.8,21.5L14.8,21.5L14.8,21.5L14.8,21.5L14.8,21.5z M18.4,26.8C18.5,26.8,18.5,26.8,18.4,26.8
		C18.4,26.7,18.4,26.7,18.4,26.8c-0.1-0.1-0.1-0.1-0.1-0.1h-0.1c-0.1-0.1-0.2-0.1-0.2-0.1c-0.1,0-0.1,0-0.1-0.1c0-0.1,0-0.1,0-0.1
		c0,0-0.1,0-0.1-0.1h-0.1c-0.1,0-0.1,0-0.2,0.1l0,0.1c-0.1,0.1-0.2,0-0.3-0.1h-0.2c-0.1,0-0.1,0-0.1-0.1h0c0,0,0,0,0,0
		c0,0-0.1,0-0.1,0h-0.1c-0.2-0.1-0.4-0.2-0.6-0.3c0,0-0.1,0-0.1,0l-0.1-0.1c-0.2,0-0.3,0-0.3,0h0c-0.1,0.1-0.1,0.1-0.2,0
		c0,0-0.1-0.1-0.1-0.1s0,0-0.1,0c-0.1,0-0.1-0.1-0.1-0.1h0c-0.1,0-0.1,0-0.1,0c0,0.1,0,0.2,0.1,0.2l0.1,0c0.1,0.1,0.2,0.1,0.2,0.1
		l0,0c0,0,0.1,0,0.1,0h0.1h0.1c0.1,0.1,0.2,0.1,0.2,0.1h0c0.1,0,0.2,0.1,0.3,0.1c0.1,0,0.2,0.1,0.2,0.2c0,0,0.1,0,0.1,0.1
		c0.1,0,0.1,0,0.3,0.1c0,0,0.1,0,0.1,0c0,0,0.1,0,0.1,0c0.1,0,0.2,0,0.2,0c0.1,0,0.2,0,0.2-0.1v0c0,0,0,0,0.1,0c0,0,0,0,0,0s0,0,0,0
		c0,0,0,0,0.1,0s0.1,0,0.1,0c0.1,0,0.1,0,0.1,0l0,0h-0.1l0,0h0v0.1h0l0.1,0l0.1-0.1H18l0.1,0.1c0.1,0.1,0.2,0.1,0.3,0.1
		C18.3,26.8,18.3,26.9,18.4,26.8C18.4,26.9,18.4,26.9,18.4,26.8z M14.9,21.8C15,21.8,15,21.8,14.9,21.8L14.9,21.8L14.9,21.8z
		 M15.2,21.8L15.2,21.8C15.2,21.8,15.3,21.8,15.2,21.8C15.3,21.8,15.3,21.8,15.2,21.8C15.2,21.9,15.2,21.9,15.2,21.8z M15.2,21.5
		C15.3,21.5,15.3,21.5,15.2,21.5L15.2,21.5z M15.3,21.3L15.3,21.3L15.3,21.3C15.3,21.2,15.3,21.2,15.3,21.3
		C15.4,21.2,15.4,21.2,15.3,21.3L15.3,21.3z M15.3,21.5c0,0,0.1-0.1,0.1-0.1C15.3,21.5,15.3,21.5,15.3,21.5z M15.4,26.6
		C15.4,26.7,15.4,26.7,15.4,26.6L15.4,26.6C15.3,26.7,15.3,26.6,15.4,26.6L15.4,26.6z M17.2,20.3L17.2,20.3c0,0.1,0,0.2-0.1,0.3
		c0,0.1-0.1,0.1-0.1,0.2c-0.1,0-0.1,0.1-0.1,0.1v0c0,0,0,0-0.1,0c0,0,0,0-0.1,0c0,0-0.1,0-0.1,0c0,0,0,0-0.1,0c0,0-0.1,0-0.1,0
		c0,0,0,0,0,0c0,0,0-0.1,0-0.1c0,0-0.1,0.1-0.1,0.1s-0.1,0-0.1,0.1L16.2,21c0.1,0.1,0.1,0.1,0.1,0.2v0v0.1v0.1c0,0-0.1,0-0.1,0
		c0,0-0.1,0-0.1,0c0,0,0-0.1-0.1-0.1l-0.1,0.1l-0.1,0.1c0,0-0.1,0.1-0.1,0.1c0,0.1-0.1,0.1-0.1,0.1h-0.1c0-0.1,0-0.1,0-0.2l0.1-0.1
		c0.1,0,0.1-0.1,0.2-0.1c0.1,0,0.1-0.1,0.2-0.1c0,0,0,0,0.1,0l0,0c0,0,0,0,0.1,0c0,0,0,0,0,0l0-0.1l0,0l0.1-0.1l0.1-0.1
		c0,0,0.1,0,0.1-0.1c0,0,0.1-0.1,0.1-0.1c0,0,0.1-0.1,0.1-0.1c0,0,0.1-0.1,0.2-0.1l0.1-0.1C17.1,20.3,17.2,20.2,17.2,20.3L17.2,20.3
		z M15.5,21.4C15.5,21.4,15.5,21.4,15.5,21.4L15.5,21.4L15.5,21.4L15.5,21.4z M15.6,20.9L15.6,20.9L15.6,20.9L15.6,20.9z M15.7,21.2
		C15.6,21.2,15.6,21.2,15.7,21.2C15.7,21.2,15.7,21.1,15.7,21.2C15.8,21.1,15.8,21.1,15.7,21.2L15.7,21.2z M15.7,21.2L15.7,21.2
		C15.7,21.2,15.7,21.2,15.7,21.2C15.7,21.2,15.8,21.2,15.7,21.2l0.1-0.1L15.7,21.2C15.8,21.2,15.7,21.2,15.7,21.2
		C15.7,21.2,15.7,21.2,15.7,21.2L15.7,21.2z M15.7,21L15.7,21L15.7,21L15.7,21L15.7,21z M15.8,21.1C15.8,21.1,15.8,21.1,15.8,21.1
		C15.8,21.1,15.8,21.1,15.8,21.1z M15.9,21.7L15.9,21.7C15.9,21.6,15.9,21.6,15.9,21.7L15.9,21.7L15.9,21.7L15.9,21.7z M16,21.2
		C15.9,21.2,15.9,21.2,16,21.2C15.9,21.2,15.9,21.2,16,21.2z M16.1,26L16.1,26C16.1,26,16.1,26,16.1,26L16.1,26L16.1,26z M16.1,20.8
		L16.1,20.8L16.1,20.8L16.1,20.8L16.1,20.8z M16.2,20.3L16.2,20.3L16.2,20.3L16.2,20.3z M16.3,20.6L16.3,20.6L16.3,20.6L16.3,20.6
		L16.3,20.6L16.3,20.6z M16.3,20.7L16.3,20.7L16.3,20.7L16.3,20.7L16.3,20.7z M16.3,26.8L16.3,26.8L16.3,26.8L16.3,26.8L16.3,26.8z
		 M16.4,20.1C16.4,20.1,16.4,20.1,16.4,20.1L16.4,20.1L16.4,20.1L16.4,20.1z M16.4,20.6C16.4,20.6,16.4,20.6,16.4,20.6L16.4,20.6
		L16.4,20.6L16.4,20.6z M16.4,20.6L16.4,20.6L16.4,20.6L16.4,20.6L16.4,20.6z M16.4,26.9C16.4,26.9,16.5,26.9,16.4,26.9
		C16.5,26.9,16.5,26.9,16.4,26.9L16.4,26.9z M16.5,20.1C16.5,20.1,16.5,20.1,16.5,20.1C16.5,20.1,16.5,20.1,16.5,20.1L16.5,20.1z
		 M16.5,20.5L16.5,20.5C16.5,20.4,16.5,20.4,16.5,20.5L16.5,20.5z M16.5,21C16.5,21,16.5,21,16.5,21L16.5,21L16.5,21L16.5,21z
		 M16.5,21.1L16.5,21.1L16.5,21.1L16.5,21.1L16.5,21.1z M16.6,20.9L16.6,20.9L16.6,20.9L16.6,20.9L16.6,20.9z M16.8,26.8
		C16.8,26.8,16.8,26.8,16.8,26.8C16.7,26.8,16.7,26.8,16.8,26.8L16.8,26.8z M16.7,21.1C16.7,21.1,16.8,21,16.7,21.1L16.7,21.1
		L16.7,21.1L16.7,21.1L16.7,21.1z M16.8,20.8C16.9,20.8,16.9,20.7,16.8,20.8L16.8,20.8L16.8,20.8L16.8,20.8z M16.9,26.2
		C16.9,26.2,16.9,26.2,16.9,26.2C17,26.2,17,26.2,16.9,26.2L16.9,26.2L16.9,26.2C16.9,26.1,16.9,26.1,16.9,26.2z M17,20.6v-0.1h0
		c0,0-0.1,0-0.1,0c0,0,0,0.1,0,0.1c0,0,0,0,0,0C16.9,20.6,16.9,20.6,17,20.6L17,20.6L17,20.6L17,20.6z M17.1,26.9
		c0-0.1-0.1-0.1-0.1,0C16.9,27,16.9,27,17.1,26.9C17,27,17.1,27,17.1,26.9z M17.3,17.5c0,0,0.1,0,0.1-0.1l0.1-0.1
		c0.2-0.1,0.2-0.1,0.2,0l-0.1,0c-0.1,0-0.1,0-0.2,0.1c-0.1,0-0.1,0.1-0.2,0.1c-0.1,0-0.1,0.1-0.1,0.1l-0.1,0.1c0,0-0.1,0-0.1,0
		c0,0,0,0,0.1-0.1l0.1-0.1C17.2,17.7,17.3,17.6,17.3,17.5z M17.1,20C17.1,20,17.1,20,17.1,20L17.1,20L17.1,20L17.1,20L17.1,20
		L17.1,20z M17.1,19.7C17.1,19.6,17.1,19.6,17.1,19.7C17.1,19.6,17.1,19.6,17.1,19.7l0-0.1L17.1,19.7C17.1,19.6,17.1,19.6,17.1,19.7
		C17.1,19.6,17.1,19.6,17.1,19.7L17.1,19.7L17.1,19.7z M17.3,20.2C17.3,20.2,17.3,20.1,17.3,20.2l0.1-0.1h0v0l0,0.1
		C17.3,20.2,17.3,20.2,17.3,20.2L17.3,20.2z M17.3,26.3C17.3,26.3,17.3,26.3,17.3,26.3C17.3,26.3,17.3,26.4,17.3,26.3L17.3,26.3
		L17.3,26.3C17.3,26.2,17.3,26.2,17.3,26.3z M17.7,19.3c0.1,0,0,0.1-0.1,0.2l-0.1,0.1c0,0,0,0-0.1,0c0,0-0.1,0-0.1,0.1
		c-0.1,0-0.1,0-0.1,0v0c0.1,0,0.1-0.1,0.2-0.1c0,0,0.1-0.1,0.1-0.1C17.6,19.3,17.7,19.3,17.7,19.3L17.7,19.3z M17.3,20.4L17.3,20.4
		c0.1-0.1,0.1-0.1,0.1-0.1h0.1c0,0,0,0,0,0.1c0,0-0.1,0.1-0.1,0.1C17.4,20.5,17.4,20.5,17.3,20.4L17.3,20.4z M17.4,17.9
		C17.4,17.9,17.3,17.9,17.4,17.9C17.3,18,17.4,18,17.4,17.9L17.4,17.9z M17.4,19.8C17.4,19.8,17.4,19.8,17.4,19.8
		c0-0.1,0-0.1,0.1-0.1C17.5,19.7,17.5,19.7,17.4,19.8L17.4,19.8L17.4,19.8z M17.5,17.5l0.1-0.1c0,0,0.1,0,0.1,0c0,0,0,0,0.1,0
		c0,0,0.1,0,0.1,0c0,0,0,0-0.1,0c0,0-0.1,0-0.1,0c0,0,0,0-0.1,0L17.5,17.5z M18,19.6L18,19.6c-0.1,0.1-0.1,0.1-0.1,0.1
		c0,0-0.1,0.1-0.1,0.1h0l-0.1,0.1c0,0,0,0,0,0.1c0,0,0,0,0,0c0,0,0,0.1,0,0.1v0l0,0l0,0c0-0.1,0-0.1,0-0.2c0-0.1,0.1-0.1,0.1-0.2
		c0-0.1,0.1-0.1,0.2-0.1L18,19.6C17.9,19.5,18,19.5,18,19.6L18,19.6z M17.7,20.1C17.7,20.1,17.7,20.1,17.7,20.1
		C17.8,20.2,17.7,20.2,17.7,20.1L17.7,20.1L17.7,20.1z M17.8,27.5L17.8,27.5C17.7,27.5,17.7,27.5,17.8,27.5
		C17.7,27.5,17.7,27.5,17.8,27.5L17.8,27.5L17.8,27.5L17.8,27.5z M17.9,26.8L17.9,26.8C17.8,26.9,17.9,26.9,17.9,26.8L17.9,26.8z
		 M17.9,27.2L17.9,27.2L17.9,27.2L17.9,27.2L17.9,27.2z M18,20.1L18,20.1C17.9,20.1,17.9,20.1,18,20.1C17.9,20.1,17.9,20.1,18,20.1
		L18,20.1C17.9,20.1,17.9,20.1,18,20.1L18,20.1z M17.9,27.5L17.9,27.5L17.9,27.5z M17.9,19.4C17.9,19.3,17.9,19.3,17.9,19.4
		C18,19.4,18,19.4,17.9,19.4C18,19.4,18,19.4,17.9,19.4C18,19.4,17.9,19.4,17.9,19.4z M18.1,19.1c0,0.1-0.1,0.1-0.1,0.1
		C18,19.1,18,19.1,18.1,19.1C18,19.1,18.1,19.1,18.1,19.1z M18.3,27.5C18.3,27.4,18.3,27.4,18.3,27.5c0-0.1,0-0.1,0-0.1
		c0,0,0,0-0.1,0l0,0H18c-0.1,0-0.1,0,0,0.1v0C18.1,27.5,18.2,27.5,18.3,27.5z M18.1,19.5L18.1,19.5C18,19.5,18,19.5,18.1,19.5
		C18,19.5,18,19.5,18.1,19.5C18.1,19.4,18.1,19.5,18.1,19.5L18.1,19.5z M18.1,27.2L18.1,27.2L18.1,27.2L18.1,27.2z M18.2,19.6
		C18.2,19.6,18.2,19.7,18.2,19.6L18.2,19.6L18.2,19.6C18.2,19.6,18.2,19.6,18.2,19.6L18.2,19.6z M18.2,19.8L18.2,19.8L18.2,19.8
		L18.2,19.8z M18.3,19.4L18.3,19.4c0-0.1,0-0.2,0-0.2c0.1,0,0.1,0,0.1,0.1c0,0,0,0,0,0.1c0,0,0,0,0,0.1
		C18.4,19.3,18.4,19.4,18.3,19.4C18.3,19.4,18.3,19.4,18.3,19.4L18.3,19.4z M18.8,18.7C18.8,18.7,18.8,18.7,18.8,18.7
		c0,0.1-0.1,0.1-0.1,0.1c0,0-0.1,0.1-0.3,0.1L18.4,19l-0.1,0c0,0,0,0,0-0.1l0.1,0c0,0,0.1,0,0.1-0.1c0,0,0.1-0.1,0.1-0.1
		C18.7,18.7,18.7,18.7,18.8,18.7L18.8,18.7z M18.8,19.1C18.7,19.2,18.7,19.2,18.8,19.1l-0.1,0.1h-0.1h0l0.1,0l0,0c0,0,0,0,0,0
		S18.7,19.1,18.8,19.1C18.8,19.1,18.8,19.1,18.8,19.1L18.8,19.1z M18.6,19.3C18.6,19.3,18.6,19.3,18.6,19.3c0,0.1,0,0.1,0,0.1
		c0,0,0,0,0,0C18.5,19.5,18.5,19.4,18.6,19.3L18.6,19.3L18.6,19.3z M18.5,26.9L18.5,26.9L18.5,26.9L18.5,26.9L18.5,26.9z M18.8,17
		c0-0.1-0.1-0.1-0.1,0H18.8z M19.4,26.8C19.4,26.8,19.4,26.8,19.4,26.8L19.4,26.8c-0.1-0.1-0.1,0-0.2,0s-0.1,0-0.1,0.1
		c-0.1,0-0.1,0-0.2,0c0,0-0.1,0-0.1,0h0c0,0,0,0,0,0.1h-0.1h0l0,0l0,0l0,0c0,0,0,0,0.1,0c0,0,0,0,0.1,0H19h0.1c0,0,0,0,0,0s0,0,0,0
		C19.3,26.9,19.3,26.9,19.4,26.8L19.4,26.8C19.4,26.8,19.4,26.8,19.4,26.8z M19.1,19.1c-0.1,0-0.1,0.1-0.1,0.1l0,0
		c0,0,0,0.1-0.1,0.1c0,0,0,0,0,0c0,0,0,0,0,0.1c0,0,0,0-0.1,0v0c0,0,0,0,0,0s0,0,0,0c0-0.1,0-0.2,0-0.2c0,0,0-0.1,0-0.1
		c0,0,0-0.1,0-0.1c0,0,0.1,0,0.1,0c0,0,0,0,0.1,0.1v0C19.2,19.1,19.2,19.1,19.1,19.1L19.1,19.1z M19.2,16.6
		c-0.1,0.1-0.1,0.1-0.1,0.1C19.2,16.6,19.2,16.6,19.2,16.6z M19.6,18.4c-0.1,0-0.2,0-0.3,0l-0.1,0c0,0-0.1,0-0.1,0c0,0,0,0,0,0h0h0
		c0,0,0.1,0,0.1-0.1c0,0,0.1-0.1,0.1-0.1c0.1,0,0.1,0,0.2,0c0,0,0.1-0.1,0.1-0.1l0.2-0.1v0h0v0h0v0h0h0l0,0
		C19.7,18.3,19.7,18.3,19.6,18.4L19.6,18.4z M19.4,19.1C19.4,19.1,19.4,19.1,19.4,19.1L19.4,19.1L19.4,19.1z M20.4,18.5
		c-0.1,0.1-0.1,0.1-0.1,0.1c0,0,0,0.1,0,0.1h-0.1l0,0v-0.1v0c0,0,0,0-0.1,0l0,0c0,0.1-0.1,0.1-0.1,0.1l-0.1,0.1c0,0-0.1,0.1-0.1,0.1
		c0,0,0,0-0.1,0h0h-0.1c-0.1,0-0.1,0-0.1-0.1h0c0.1,0,0.1-0.1,0.1-0.1c0,0,0.1-0.1,0.1-0.1l0.1-0.1c0-0.1,0.1-0.1,0.3-0.1l0.2-0.2
		l0,0c0.1,0,0.1,0,0.1,0v0C20.5,18.3,20.5,18.4,20.4,18.5C20.5,18.4,20.5,18.4,20.4,18.5z M19.7,12.6C19.7,12.6,19.7,12.6,19.7,12.6
		c-0.1,0.1-0.1,0-0.1,0C19.6,12.5,19.7,12.5,19.7,12.6L19.7,12.6z M19.6,24.7C19.6,24.7,19.6,24.7,19.6,24.7L19.6,24.7z M19.9,27.4
		C19.9,27.4,19.9,27.4,19.9,27.4L19.9,27.4C19.9,27.5,19.9,27.4,19.9,27.4L19.9,27.4z M20,27.2L20,27.2C19.9,27.2,19.9,27.2,20,27.2
		C20,27.1,20,27.1,20,27.2c0.1-0.1,0.1-0.1,0.1,0C20,27.2,20,27.2,20,27.2L20,27.2z M20.2,26.6C20.2,26.6,20.2,26.5,20.2,26.6
		c-0.1-0.1-0.1-0.1-0.1-0.1c0,0,0,0-0.1,0c0,0-0.1,0-0.1,0.1c-0.1,0,0,0,0.2,0.1L20.2,26.6L20.2,26.6z M20,11.3
		C20,11.3,20,11.3,20,11.3L20,11.3L20,11.3z M20.1,18.2L20.1,18.2C20,18.2,20,18.1,20.1,18.2C20,18.1,20,18.1,20.1,18.2L20.1,18.2
		C20.1,18.1,20.1,18.1,20.1,18.2L20.1,18.2z M20.5,27.3C20.5,27.3,20.5,27.3,20.5,27.3L20.5,27.3C20.5,27.5,20.5,27.5,20.5,27.3
		l-0.2,0.1c-0.1,0-0.2,0-0.2,0c0,0,0,0,0.1-0.1h0.1h0.1c0,0,0.1-0.1,0.1,0C20.4,27.3,20.4,27.3,20.5,27.3z M20.1,24.5L20.1,24.5
		L20.1,24.5L20.1,24.5z M20.2,27.2c0-0.1,0-0.1,0.1-0.1c0,0,0,0,0,0c0,0,0,0.1,0,0.1H20.2L20.2,27.2z M20.2,10.5
		C20.2,10.5,20.2,10.5,20.2,10.5L20.2,10.5z M20.2,24.5C20.2,24.5,20.2,24.5,20.2,24.5C20.3,24.5,20.2,24.5,20.2,24.5z M20.5,13.9
		L20.5,13.9c0-0.1,0-0.1,0-0.1h0.1C20.6,13.8,20.6,13.9,20.5,13.9L20.5,13.9z M20.6,24.4C20.5,24.4,20.5,24.4,20.6,24.4L20.6,24.4
		C20.6,24.4,20.6,24.4,20.6,24.4L20.6,24.4z M20.6,26.5L20.6,26.5L20.6,26.5L20.6,26.5L20.6,26.5z M20.6,27.1
		C20.6,27.1,20.6,27.1,20.6,27.1L20.6,27.1L20.6,27.1C20.6,27.2,20.6,27.2,20.6,27.1z M21,18.1C21,18.1,21,18.1,21,18.1l-0.2,0.1v0
		c0,0,0-0.1,0-0.1l0.1-0.1C20.8,18.1,20.9,18,21,18.1L21,18.1z M21.5,26.1C21.5,26.1,21.5,26.1,21.5,26.1c-0.1,0-0.1,0-0.2,0
		c-0.1,0-0.1,0-0.2,0L21,26.1c-0.1,0-0.1,0.1-0.1,0.1c0,0,0,0,0,0.1c0,0,0,0,0.1,0c0,0,0.1,0,0.3-0.1c0,0,0,0,0.1,0
		C21.3,26.2,21.4,26.2,21.5,26.1L21.5,26.1L21.5,26.1z M21.6,17.2c-0.1,0-0.2,0.1-0.3,0.1c-0.1,0-0.2,0-0.2,0.1c0,0,0,0-0.1,0
		c0,0-0.1,0-0.1,0c0-0.1,0-0.1,0.1-0.1s0.1,0,0.2,0c0,0,0.1,0,0.2-0.1l0.6-0.2c0,0,0.1,0,0.1,0s0.1,0,0.1,0h0c0,0,0,0-0.1,0.1
		L22,17.1l0,0c-0.1,0-0.2,0-0.3,0.1L21.6,17.2z M20.9,24.3L20.9,24.3L20.9,24.3C20.9,24.3,20.9,24.3,20.9,24.3z M20.9,24.3
		L20.9,24.3L20.9,24.3L20.9,24.3L20.9,24.3z M21.1,27.6C21,27.6,21,27.6,21.1,27.6C21,27.6,21,27.6,21.1,27.6L21.1,27.6L21.1,27.6
		L21.1,27.6z M21.2,17.9L21.2,17.9L21.2,17.9L21.2,17.9L21.2,17.9z M21.6,27.2L21.6,27.2C21.5,27.2,21.5,27.2,21.6,27.2
		C21.6,27.1,21.6,27.1,21.6,27.2C21.7,27.1,21.7,27.1,21.6,27.2L21.6,27.2z M21.7,16.8c-0.1,0.1-0.1,0-0.1-0.1
		C21.6,16.8,21.7,16.8,21.7,16.8z M21.6,27.5C21.6,27.5,21.7,27.4,21.6,27.5C21.7,27.4,21.7,27.4,21.6,27.5c0.1-0.1,0.1-0.1,0.1-0.1
		s0,0,0,0C21.7,27.4,21.7,27.5,21.6,27.5L21.6,27.5z M21.7,25.9C21.8,25.9,21.8,25.9,21.7,25.9L21.7,25.9
		C21.6,25.9,21.7,25.9,21.7,25.9L21.7,25.9z M21.8,26.7C21.9,26.8,21.9,26.8,21.8,26.7L21.8,26.7C21.8,26.8,21.8,26.8,21.8,26.7
		L21.8,26.7L21.8,26.7L21.8,26.7z M22,15.8L22,15.8C22,15.9,22,15.9,22,15.8L22,15.8L22,15.8z M22.1,11.1L22.1,11.1
		C22.1,11,22.1,11,22.1,11.1L22.1,11.1C22.1,11,22,11,22.1,11.1L22.1,11.1L22.1,11.1L22.1,11.1z M22.2,27.2
		C22.3,27.3,22.3,27.3,22.2,27.2C22.2,27.3,22.2,27.3,22.2,27.2L22.2,27.2L22.2,27.2z M22.4,10.8L22.4,10.8L22.4,10.8L22.4,10.8
		L22.4,10.8z M22.5,16.5C22.5,16.4,22.5,16.4,22.5,16.5L22.5,16.5C22.6,16.5,22.6,16.5,22.5,16.5L22.5,16.5L22.5,16.5L22.5,16.5z
		 M22.6,23.8L22.6,23.8C22.5,23.8,22.5,23.8,22.6,23.8L22.6,23.8L22.6,23.8z M22.6,26L22.6,26L22.6,26L22.6,26L22.6,26L22.6,26z
		 M22.6,10.5L22.6,10.5L22.6,10.5L22.6,10.5L22.6,10.5z M22.8,26C22.8,26,22.8,26,22.8,26C22.8,25.9,22.8,25.9,22.8,26
		C22.7,26,22.7,26,22.8,26L22.8,26L22.8,26z M22.8,10.9C22.8,10.9,22.8,10.9,22.8,10.9L22.8,10.9L22.8,10.9L22.8,10.9L22.8,10.9z
		 M22.8,27.1L22.8,27.1L22.8,27.1L22.8,27.1L22.8,27.1z M22.9,10.3C22.9,10.3,22.9,10.4,22.9,10.3C22.9,10.4,23,10.4,22.9,10.3
		l0.1,0l0.1-0.1c0,0,0-0.1,0-0.1c0-0.1,0.1-0.1,0.1-0.2c0,0,0,0,0,0l0.1-0.1c0,0,0.1-0.1,0.1-0.1c0-0.1,0.1-0.1,0.2-0.1l0.1-0.1
		c0-0.1,0-0.1,0-0.1c0,0-0.1,0-0.1,0c0,0-0.1,0-0.1,0.1c0,0,0,0-0.1,0c-0.1,0-0.1,0.1-0.1,0.1s-0.1,0.1-0.1,0.1v0l0,0
		c0,0,0,0.1-0.1,0.1c0,0-0.1,0.1-0.1,0.1L22.9,10C22.8,10.1,22.8,10.2,22.9,10.3L22.9,10.3z M23.1,12.9L23.1,12.9
		c-0.1,0-0.1,0-0.1,0v0.1C23,12.9,23.1,12.9,23.1,12.9L23.1,12.9z M23.3,25.8C23.3,25.8,23.3,25.8,23.3,25.8L23.3,25.8
		c0-0.1-0.1-0.1-0.1,0c0,0,0,0,0,0.1L23.3,25.8C23.2,25.8,23.2,25.8,23.3,25.8z M23.4,12.1c0-0.1,0-0.1-0.1-0.1h-0.1l-0.1,0
		c0,0.1,0,0.1,0.1,0.1L23.4,12.1L23.4,12.1z M23.4,23L23.4,23L23.4,23L23.4,23L23.4,23z M23.8,10.5C23.8,10.5,23.8,10.5,23.8,10.5
		L23.8,10.5l-0.1,0.1l-0.1,0.1c-0.1,0-0.2,0-0.2,0c0,0,0,0,0,0c0,0,0.1,0,0.1,0c0,0,0.1,0,0.1,0C23.7,10.5,23.7,10.5,23.8,10.5
		C23.8,10.4,23.8,10.4,23.8,10.5L23.8,10.5z M23.7,25.5L23.7,25.5c0,0-0.1,0-0.1,0c0,0,0,0,0,0L23.7,25.5L23.7,25.5z M24.3,26.4
		C24.4,26.4,24.4,26.4,24.3,26.4c0,0.1,0,0.1-0.1,0.1c-0.1,0-0.1-0.1-0.2-0.1l-0.1,0c0,0-0.1,0-0.1,0c-0.1,0-0.1,0-0.1,0.1
		c0,0,0,0-0.1,0c0,0,0,0,0-0.1c0,0,0-0.1,0-0.1c0.1,0,0.1,0,0.2,0c0.1,0,0.1,0,0.2,0H24C24.1,26.3,24.2,26.4,24.3,26.4z M23.7,15.1
		c0,0,0.1,0,0.1,0C23.8,15.1,23.7,15.1,23.7,15.1z M24,11.9C24,11.9,24,11.9,24,11.9c0-0.1,0-0.1-0.1-0.1l-0.1,0c0,0,0,0-0.1,0
		c0,0,0,0,0,0.1c0,0,0,0.1,0,0.2l0,0c0,0,0,0,0,0l0,0C23.9,12,23.9,11.9,24,11.9z M23.8,16.2L23.8,16.2L23.8,16.2L23.8,16.2z
		 M23.9,10.6L23.9,10.6C24,10.5,24,10.5,23.9,10.6L23.9,10.6L23.9,10.6z M24,10C24,10,24,10,24,10C23.9,10,23.9,9.9,24,9.9H24l0,0
		C24.1,10,24.1,10,24,10z M24.2,8.8C24.1,8.8,24.1,8.9,24.2,8.8L24.2,8.8C24.1,9,24.2,9,24.2,8.8L24.2,8.8
		C24.2,8.9,24.2,8.8,24.2,8.8z M24.2,26.6C24.2,26.6,24.2,26.6,24.2,26.6C24.1,26.6,24.1,26.6,24.2,26.6L24.2,26.6z M24.2,9.8
		L24.2,9.8L24.2,9.8L24.2,9.8L24.2,9.8z M24.2,26.1L24.2,26.1L24.2,26.1L24.2,26.1L24.2,26.1z M24.2,26.1L24.2,26.1
		C24.2,26.1,24.2,26.1,24.2,26.1L24.2,26.1L24.2,26.1z M24.3,8.7L24.3,8.7c0,0,0.1,0,0.1-0.1l0-0.1C24.3,8.6,24.3,8.6,24.3,8.7
		L24.3,8.7L24.3,8.7z M24.3,12.1C24.3,12.1,24.3,12.1,24.3,12.1C24.3,12.2,24.3,12.2,24.3,12.1L24.3,12.1z M24.3,12.9L24.3,12.9
		L24.3,12.9L24.3,12.9L24.3,12.9z M24.5,9.6c0,0.1,0,0.1-0.1,0.1l-0.1,0l0,0c-0.1-0.1,0-0.1,0.1-0.1L24.5,9.6z M24.7,26.2
		c0.1,0,0,0-0.1,0.1l-0.1,0c0,0,0,0-0.1,0c0,0,0,0-0.1,0l-0.1,0l0,0C24.5,26.3,24.6,26.3,24.7,26.2z M24.6,26L24.6,26
		C24.5,26.1,24.5,26,24.6,26L24.6,26L24.6,26z M24.5,12C24.5,12,24.6,12,24.5,12l0.1,0.1c0,0,0,0,0-0.1l0,0h0L24.5,12
		C24.6,11.9,24.6,12,24.5,12z M24.6,12.8C24.6,12.8,24.6,12.8,24.6,12.8L24.6,12.8z M26.4,13.4C26.5,13.4,26.5,13.4,26.4,13.4
		c0.1,0,0.1-0.1,0-0.1l-0.1-0.1c-0.2-0.2-0.5-0.3-0.9-0.5c0,0-0.1,0-0.1,0c0,0,0,0-0.1,0c0,0-0.1,0-0.1,0c0,0-0.1,0-0.1,0
		c0,0,0,0-0.1,0c0,0-0.1,0-0.1-0.1c-0.1,0-0.1,0-0.2,0c0,0,0,0-0.1,0c0,0,0,0-0.1,0c0,0,0,0,0.1,0.1h0.1c0,0,0.1,0,0.1,0
		c0.1,0,0.2,0.1,0.2,0.1c0.1,0,0.2,0,0.2,0.1c0.1,0,0.2,0.1,0.4,0.1C26,13.1,26.2,13.2,26.4,13.4L26.4,13.4z M24.7,9.2L24.7,9.2
		C24.7,9.3,24.8,9.3,24.7,9.2l0,0.1c0,0,0,0.1,0,0.1l-0.1,0c0,0,0,0,0,0C24.6,9.4,24.6,9.3,24.7,9.2L24.7,9.2L24.7,9.2z M24.9,25.7
		c0,0,0.1,0,0.1,0c0,0.1,0,0.1,0,0.1l-0.1,0c-0.1,0-0.1,0-0.1-0.1C24.8,25.8,24.8,25.7,24.9,25.7L24.9,25.7z M25,12
		c0,0-0.1,0-0.1,0.1c0,0-0.1,0.1-0.1,0.1c0,0,0.1,0,0.1,0H25c0,0,0,0,0.1,0.1c0,0,0.1,0.1,0.1,0.1c0,0,0,0,0,0c0,0,0,0,0,0
		c0,0,0,0,0-0.1c0,0-0.1-0.1-0.1-0.1C25.1,12,25.1,12,25,12z M25.7,9.2c-0.1,0-0.1-0.1-0.1-0.1c0,0,0-0.1-0.1-0.1h0c0,0,0,0-0.1,0
		l0,0l-0.1,0.1c0,0-0.1-0.1-0.2-0.1s-0.1,0-0.2,0c0,0,0,0,0,0c0,0,0,0,0-0.1L25,9l0,0c0.1,0,0.1-0.1,0.2-0.1l0.1,0
		c0.1-0.1,0.2-0.1,0.3-0.1c0,0,0,0,0.1,0l0.1-0.1c0,0,0.1,0,0.1,0v0.1h-0.1l0,0c0,0,0,0.1,0,0.1c0,0,0.1,0,0.1,0c0.1,0,0.1,0,0,0.1
		L25.7,9.2L25.7,9.2z M24.9,9.4C24.9,9.4,24.9,9.4,24.9,9.4L24.9,9.4z M25.1,24.6c0-0.1,0-0.2,0-0.2L25,24.4
		c-0.1,0.1-0.2,0.2-0.1,0.2l0,0L25.1,24.6z M24.9,9.4L24.9,9.4C24.9,9.4,24.9,9.4,24.9,9.4z M25.3,25.9C25.3,26,25.3,26,25.3,25.9
		L25.2,26C25.2,26,25.2,25.9,25.3,25.9C25.3,25.9,25.3,25.9,25.3,25.9z M25.3,9.4L25.3,9.4C25.4,9.4,25.4,9.4,25.3,9.4
		c0.1,0.1,0,0.1,0,0.1h-0.1h0c0,0,0,0,0,0C25.3,9.5,25.3,9.5,25.3,9.4L25.3,9.4z M25.3,7.4C25.3,7.3,25.3,7.3,25.3,7.4
		c0.1-0.1,0.1-0.1,0.1-0.1v0C25.3,7.4,25.3,7.4,25.3,7.4L25.3,7.4z M26.6,13c0,0,0-0.1-0.1-0.3l-0.1,0l-0.1-0.1c0,0,0,0,0,0s0,0,0,0
		c0,0-0.1,0-0.1,0c0,0-0.1,0-0.1,0c0,0-0.1,0-0.1-0.1c0,0,0,0-0.1,0c-0.1,0-0.1,0-0.2-0.1c0,0-0.1,0-0.2,0l-0.1,0l-0.1,0
		c0,0-0.1,0-0.1,0.1c0,0,0,0.1,0,0.1l0.1,0c0.1,0,0.1,0.1,0.2,0.1c0.1,0.1,0.1,0.1,0.1,0.1c0,0.1,0.1,0.1,0.1,0.1l0.1,0
		c0.1,0,0.1,0.1,0.2,0.1C26.4,12.9,26.5,12.9,26.6,13L26.6,13z M25.5,7.1c0,0,0.1-0.1,0.1-0.1v0.1C25.6,7.1,25.6,7.1,25.5,7.1
		C25.5,7.2,25.5,7.2,25.5,7.1C25.4,7.2,25.4,7.1,25.5,7.1z M25.5,25.8L25.5,25.8C25.5,25.9,25.4,25.8,25.5,25.8L25.5,25.8L25.5,25.8
		z M25.5,8.4L25.5,8.4L25.5,8.4L25.5,8.4z M25.5,8.4L25.5,8.4L25.5,8.4L25.5,8.4L25.5,8.4z M25.6,25.7L25.6,25.7L25.6,25.7
		C25.6,25.7,25.6,25.7,25.6,25.7z M25.8,7.8C25.8,7.8,25.8,7.9,25.8,7.8c-0.1,0.1-0.1,0.1-0.1,0.1h0C25.8,7.9,25.9,7.9,25.8,7.8
		l0.1,0C25.9,7.8,25.8,7.8,25.8,7.8z M25.8,6.7L25.8,6.7L25.8,6.7L25.8,6.7C25.8,6.6,25.8,6.7,25.8,6.7z M25.7,8.5
		C25.7,8.5,25.8,8.5,25.7,8.5L25.7,8.5L25.7,8.5z M25.7,8.5L25.7,8.5L25.7,8.5L25.7,8.5L25.7,8.5z M26,8.4L26,8.4L26,8.4L26,8.4
		C25.9,8.4,25.9,8.4,26,8.4L26,8.4z M26.5,24.9c0.1,0,0.2,0,0.3-0.1v0c0,0,0,0.1-0.1,0.1h-0.1c0,0-0.1,0-0.1,0.1
		c0,0-0.1,0.1-0.1,0.1c0,0,0,0,0,0.1c0,0.1,0,0.1-0.1,0.1h-0.1c0,0-0.1,0-0.1,0.1c0,0-0.1,0-0.1-0.1l0,0c0,0,0-0.1,0.1-0.1h0
		c0.1,0,0.1-0.1,0.2-0.2L26.5,24.9C26.4,24.9,26.4,24.9,26.5,24.9z M26.1,8.2L26.1,8.2C26.2,8.3,26.1,8.3,26.1,8.2
		C26.1,8.3,26.1,8.3,26.1,8.2C26.1,8.2,26.1,8.2,26.1,8.2C26.1,8.2,26.1,8.2,26.1,8.2L26.1,8.2z M26.3,7.7
		C26.2,7.7,26.2,7.7,26.3,7.7C26.2,7.8,26.2,7.8,26.3,7.7L26.3,7.7L26.3,7.7L26.3,7.7L26.3,7.7C26.3,7.7,26.3,7.6,26.3,7.7l0.1-0.1
		h0h0.1c0,0,0,0,0,0s0,0,0,0l0,0c0,0,0,0,0,0c0,0,0,0,0-0.1v0c0,0,0,0,0,0c0,0,0,0,0,0l0,0v0.1v0.1h-0.1h0l-0.1,0c0,0,0,0,0,0.1v0
		L26.3,7.7L26.3,7.7L26.3,7.7z M26.2,8.4c0,0,0-0.1,0.1-0.1c0,0,0,0,0,0.1S26.3,8.4,26.2,8.4C26.3,8.4,26.2,8.4,26.2,8.4z M26.3,7.6
		C26.3,7.6,26.3,7.7,26.3,7.6L26.3,7.6L26.3,7.6C26.3,7.7,26.3,7.6,26.3,7.6L26.3,7.6L26.3,7.6z M26.3,7.7L26.3,7.7l0-0.1L26.3,7.7
		L26.3,7.7z M26.4,7.1C26.4,7.1,26.4,7.1,26.4,7.1V7V6.9c0-0.1,0-0.1,0.1-0.2l0.1,0.1l0.1,0V7h0C26.6,6.9,26.5,7,26.4,7.1L26.4,7.1z
		 M26.7,13.1C26.6,13.1,26.6,13.2,26.7,13.1c0.1,0.1,0.1,0.1,0.1,0.2c0,0,0.1,0.1,0.1,0.1c0,0,0,0,0.1,0.1c0,0,0,0,0,0.1
		c0.1,0,0.1,0,0.1,0.1l0.1,0c0.1,0.1,0.1,0,0.1-0.1l-0.1-0.1c-0.1-0.1-0.2-0.1-0.2-0.2c-0.1-0.1-0.1-0.1-0.2-0.2
		C26.8,13.1,26.8,13.1,26.7,13.1C26.7,13,26.7,13.1,26.7,13.1z M30,20.9L30,20.9L30,20.9c-0.1,0.2-0.1,0.3-0.1,0.3v0
		c0,0.1,0,0.2-0.1,0.2c-0.1,0-0.1,0.1-0.1,0.1c0,0.1,0,0.1,0,0.2c0,0.1,0,0.1,0,0.2c0,0.1,0,0.1-0.1,0.1c0,0-0.1,0.1-0.2,0.2
		c0,0,0,0.1-0.1,0.1c-0.1,0.1-0.1,0.1-0.2,0.2c0,0.1-0.1,0.1-0.1,0.2c0,0,0,0.1-0.1,0.1s0,0-0.1,0c0,0-0.1,0-0.1,0.1s0,0-0.1,0.1
		l-0.1,0v0.1v0h-0.1h0l-0.1,0.1c0,0,0.1,0,0.1,0c0,0,0.1,0,0.1-0.1v0v0c0,0,0,0,0,0c0,0,0,0,0,0c0,0,0,0,0,0v0.1c0,0,0,0.1-0.1,0.1
		c0,0.1-0.1,0.1-0.3,0.2h-0.1c-0.1,0-0.1,0.1-0.2,0.1c0,0,0,0-0.1,0.1c0,0.1-0.1,0.1-0.1,0.2c0,0.1-0.1,0.2-0.1,0.2l-0.1,0
		c-0.1,0-0.2,0.1-0.3,0.3v0c0,0-0.1,0-0.2,0l-0.1,0c-0.1,0-0.1,0-0.1,0c-0.1,0-0.2,0-0.2,0.1l-0.1,0.1c-0.1,0-0.1,0-0.1-0.1l0,0
		l0.3-0.1c0.1-0.1,0.1-0.1,0.1-0.1c0,0,0.1-0.1,0.2-0.1c0,0,0.1,0,0.1,0c0.1,0,0.1-0.1,0.1-0.1c0,0,0,0,0,0c0,0,0.1,0,0.1-0.1h0.1
		c0.1,0,0.1-0.1,0.1-0.1v-0.1c0,0,0-0.1,0.1-0.1c0,0,0.1-0.1,0.1-0.1H28c0.1,0,0.1-0.1,0.1-0.1c0-0.1,0-0.1-0.1,0
		c-0.1,0-0.1,0-0.2,0h0c0,0-0.1,0-0.1,0l0.1,0h0.1c0,0,0.1,0,0.1,0c0,0,0.1,0,0.1,0c0,0,0,0,0.1,0v0v0c0,0,0,0,0.1-0.1v-0.1l0-0.1
		c0,0,0,0,0.1-0.1c0,0,0.1-0.1,0.1-0.1c0.1,0,0.1,0,0.1,0h0c0,0,0.1,0,0.1,0c0,0,0,0,0.1,0l0-0.1c0,0,0.1,0,0.2,0c0,0,0,0,0.1,0
		c0.1,0,0.1-0.1,0.1-0.1c0-0.1,0-0.1,0.1-0.1c0,0,0.1,0,0.1,0c0,0,0.1-0.1,0.1-0.1c0.1-0.1,0.1-0.1,0.1-0.1h0c0,0,0,0,0,0
		c0,0,0,0,0,0l-0.1,0c0,0-0.1-0.1-0.1-0.1h0c0-0.1,0.1-0.1,0.1-0.1c0.1,0,0.2-0.1,0.2-0.2c0,0,0,0,0-0.1c0,0,0,0,0-0.1
		c0,0,0-0.1,0.1-0.1c0.1-0.1,0.1-0.2,0.1-0.2c0,0,0,0,0-0.1c0,0,0-0.1,0.1-0.1c0,0,0,0,0,0L30,20.9C29.9,20.8,30,20.8,30,20.9z
		 M26.8,7.7c0,0,0,0.1,0,0.1l-0.1,0L26.8,7.7L26.8,7.7z M27.1,24.5c0.1,0.1,0,0.1-0.1,0.1l-0.1,0l0,0C26.9,24.7,26.9,24.6,27.1,24.5
		L27.1,24.5L27.1,24.5z M27,13.9C27.1,13.9,27.1,13.9,27,13.9L27,13.9c-0.1-0.1-0.2-0.1-0.1,0L27,13.9L27,13.9
		C27,13.9,27,13.9,27,13.9z M27.3,14.2c0.1,0.1,0.2,0.2,0.3,0.1h0c0,0-0.1-0.1-0.1-0.1c0,0,0,0,0-0.1L27.3,14.2
		c0-0.2-0.1-0.2-0.1-0.1L27.3,14.2L27.3,14.2z M27.2,23.9C27.2,23.9,27.2,23.9,27.2,23.9L27.2,23.9C27.3,23.9,27.3,23.9,27.2,23.9z
		 M27.6,14.5C27.6,14.5,27.6,14.5,27.6,14.5L27.6,14.5C27.6,14.4,27.5,14.4,27.6,14.5L27.6,14.5C27.5,14.5,27.5,14.5,27.6,14.5z
		 M27.9,23.5L27.9,23.5c-0.1,0-0.1,0-0.1,0C27.9,23.6,27.9,23.6,27.9,23.5L27.9,23.5z M28,21.1C27.9,21.1,27.9,21.1,28,21.1
		C27.9,21.1,27.9,21.1,28,21.1L28,21.1C28,21.1,28,21.1,28,21.1L28,21.1z M28.2,23.3L28.2,23.3C28.2,23.3,28.2,23.3,28.2,23.3
		L28.2,23.3z M28.3,23.1L28.3,23.1C28.2,23,28.2,23,28.3,23.1C28.2,23.1,28.2,23.1,28.3,23.1L28.3,23.1z M28.4,23
		C28.4,23,28.4,22.9,28.4,23L28.4,23L28.4,23L28.4,23z M28.4,23.4L28.4,23.4L28.4,23.4L28.4,23.4L28.4,23.4z M28.6,23L28.6,23
		L28.6,23v0.1V23z M28.8,20.8L28.8,20.8L28.8,20.8L28.8,20.8L28.8,20.8C28.8,20.8,28.8,20.8,28.8,20.8z M28.8,22.4L28.8,22.4
		c-0.1,0-0.1-0.1,0-0.1l0.1,0c0.1,0,0.1,0,0.1,0.1v0C29,22.5,28.9,22.5,28.8,22.4z M29,21.9L29,21.9L29,21.9L29,21.9L29,21.9z
		 M29.2,13.8L29.2,13.8C29.1,13.8,29.1,13.8,29.2,13.8C29.2,13.8,29.2,13.9,29.2,13.8L29.2,13.8z M29.4,14.2c0,0,0-0.1,0-0.1l-0.1,0
		c0,0,0,0-0.1,0s0,0,0,0c0,0,0,0.1,0.1,0.1L29.4,14.2C29.4,14.3,29.4,14.3,29.4,14.2z M29.5,14.5L29.5,14.5L29.5,14.5L29.5,14.5
		L29.5,14.5z M30.3,18.7c-0.1-0.1-0.1-0.1-0.2-0.1c0,0,0,0-0.1,0s0,0,0,0c0,0,0,0-0.1,0s0,0,0,0.1c0,0.1-0.1,0.1-0.1,0.2v0.1h0
		c0,0.1,0,0.1,0,0.1h0.1h0.1l0.1,0.1c0,0,0.1,0,0.1-0.1C30.2,18.9,30.2,18.9,30.3,18.7L30.3,18.7z M29.9,19.2
		C29.9,19.2,29.9,19.2,29.9,19.2L29.9,19.2C29.9,19.2,29.8,19.2,29.9,19.2L29.9,19.2L29.9,19.2z M30,20.7C30,20.7,30,20.7,30,20.7
		L30,20.7z M30.3,17.8C30.4,17.8,30.4,17.8,30.3,17.8C30.4,17.7,30.3,17.7,30.3,17.8L30.3,17.8L30.3,17.8z M30.5,16.9
		C30.5,16.9,30.5,16.9,30.5,16.9L30.5,16.9L30.5,16.9z M30.5,17.9C30.6,17.9,30.6,17.9,30.5,17.9L30.5,17.9L30.5,17.9L30.5,17.9
		L30.5,17.9L30.5,17.9z M30.6,17.4C30.6,17.3,30.6,17.3,30.6,17.4C30.7,17.3,30.7,17.4,30.6,17.4C30.6,17.4,30.6,17.4,30.6,17.4z"/>
</g>
</svg>
