<svg id="Layer_1" data-name="Layer 1" xmlns="http://www.w3.org/2000/svg" viewBox="0 0 300 300"><defs><style>.cls-1{fill:#fff;}</style></defs><title>github-logo</title><path class="cls-1" d="M279.88,76.58a151.26,151.26,0,0,0-54.59-56A143.93,143.93,0,0,0,150,0,144,144,0,0,0,74.71,20.62a151.19,151.19,0,0,0-54.59,56Q0,111.92,0,153.76,0,204,28.61,244.15t73.93,55.56c3.51.66,6.12.19,7.81-1.4a8,8,0,0,0,2.54-6c0-.4,0-4-.1-10.81s-.1-12.75-.1-17.81l-4.49.79a55.39,55.39,0,0,1-10.84.7,80.59,80.59,0,0,1-13.58-1.4,29.89,29.89,0,0,1-13.08-6,25.34,25.34,0,0,1-8.59-12.31l-2-4.61A50.24,50.24,0,0,0,54,230.64Q49.8,225,45.51,223l-1.37-1a14.68,14.68,0,0,1-2.54-2.4,11.13,11.13,0,0,1-1.76-2.81c-.39-.93-.06-1.7,1-2.3s2.93-.9,5.66-.9l3.91.6c2.6.54,5.82,2.13,9.67,4.81a32,32,0,0,1,9.47,10.4A34.86,34.86,0,0,0,80.37,242a22.6,22.6,0,0,0,12.79,4.3,53.7,53.7,0,0,0,11.13-1,38.13,38.13,0,0,0,8.79-3q1.76-13.42,9.57-20.62a131,131,0,0,1-20-3.61,78.55,78.55,0,0,1-18.36-7.81A53,53,0,0,1,68.55,196.8q-6.26-8-10.25-21t-4-30q0-24.23,15.43-41.24-7.22-18.21,1.37-40.84,5.67-1.8,16.8,2.7a117.88,117.88,0,0,1,16.31,7.71q5.17,3.2,8.3,5.41a137.56,137.56,0,0,1,75,0l7.42-4.81a104.5,104.5,0,0,1,18-8.81q10.35-4,15.82-2.2,8.79,22.62,1.56,40.84,15.43,17,15.43,41.25a103.67,103.67,0,0,1-4,30.13q-4,13.11-10.35,21a54.92,54.92,0,0,1-15.82,13.31A78.55,78.55,0,0,1,197.17,218a131,131,0,0,1-20,3.61q10.15,9,10.15,28.43V292.3a8.07,8.07,0,0,0,2.45,6q2.44,2.4,7.71,1.4,45.31-15.42,73.93-55.56T300,153.75Q300,111.92,279.88,76.58Z"/></svg>