<svg id="Layer_1" data-name="Layer 1" xmlns="http://www.w3.org/2000/svg" viewBox="0 0 298 298"><defs><style>.cls-1{fill:#fff;}</style></defs><title>instagram-logo</title><path class="cls-1" d="M148.63,115.35a34.28,34.28,0,1,0,34.27,34.28A34.32,34.32,0,0,0,148.63,115.35Z" transform="translate(-1 -1)"/><path class="cls-1" d="M194.08,66.19H103.17a38,38,0,0,0-38,38v90.91a38,38,0,0,0,38,38h90.91a38,38,0,0,0,38-38V104.17A38,38,0,0,0,194.08,66.19ZM148.63,201.9a52.28,52.28,0,1,1,52.27-52.27A52.33,52.33,0,0,1,148.63,201.9Zm63.8-97.27a13.23,13.23,0,1,1,3.86-9.34A13.37,13.37,0,0,1,212.43,104.63Z" transform="translate(-1 -1)"/><path class="cls-1" d="M150,1C67.84,1,1,67.84,1,150S67.84,299,150,299s149-66.84,149-149S232.16,1,150,1ZM250.06,195.08a56,56,0,0,1-56,56H103.17a56,56,0,0,1-56-56V104.17a56,56,0,0,1,56-56h90.91a56,56,0,0,1,56,56Z" transform="translate(-1 -1)"/></svg>