<svg id="Layer_1" data-name="Layer 1" xmlns="http://www.w3.org/2000/svg" viewBox="0 0 300 300"><defs><style>.cls-1{fill:#fff;}</style></defs><title>twitter-logo</title><path class="cls-1" d="M150,0A150,150,0,1,0,300,150,150,150,0,0,0,150,0Zm79.52,109.21q.12,2.64.12,5.31c0,54.22-41.27,116.75-116.74,116.75A116.17,116.17,0,0,1,50,212.83a83.29,83.29,0,0,0,9.79.58,82.33,82.33,0,0,0,51-17.57,41.06,41.06,0,0,1-38.33-28.5,41,41,0,0,0,18.53-.7A41.06,41.06,0,0,1,58,126.41c0-.17,0-.35,0-.52A40.86,40.86,0,0,0,76.62,131,41.07,41.07,0,0,1,63.93,76.24a116.49,116.49,0,0,0,84.57,42.88,41.06,41.06,0,0,1,69.92-37.43,82.16,82.16,0,0,0,26.05-10,41,41,0,0,1-18,22.7A81.8,81.8,0,0,0,250,88,83.22,83.22,0,0,1,229.52,109.21Z"/></svg>